<?xml version="1.0" encoding="UTF-8"?>
<svg id="Layer_2" data-name="Layer 2" xmlns="http://www.w3.org/2000/svg" viewBox="0 0 878.55 757.08">
  <defs>
    <style>
      .cls-1 {
        fill: #0b496d;
      }

      .cls-1, .cls-2, .cls-3, .cls-4, .cls-5, .cls-6, .cls-7, .cls-8, .cls-9, .cls-10, .cls-11, .cls-12, .cls-13, .cls-14, .cls-15, .cls-16, .cls-17, .cls-18, .cls-19, .cls-20, .cls-21, .cls-22, .cls-23, .cls-24, .cls-25, .cls-26, .cls-27, .cls-28, .cls-29, .cls-30, .cls-31, .cls-32, .cls-33, .cls-34, .cls-35, .cls-36, .cls-37, .cls-38, .cls-39, .cls-40, .cls-41, .cls-42, .cls-43, .cls-44, .cls-45, .cls-46, .cls-47, .cls-48, .cls-49, .cls-50, .cls-51, .cls-52, .cls-53, .cls-54, .cls-55, .cls-56, .cls-57, .cls-58, .cls-59, .cls-60, .cls-61, .cls-62, .cls-63, .cls-64, .cls-65, .cls-66, .cls-67, .cls-68, .cls-69, .cls-70, .cls-71, .cls-72, .cls-73, .cls-74, .cls-75, .cls-76, .cls-77, .cls-78, .cls-79, .cls-80, .cls-81, .cls-82, .cls-83, .cls-84 {
        stroke-width: 0px;
      }

      .cls-2 {
        fill: #fcd6a2;
      }

      .cls-3 {
        fill: #fece6a;
      }

      .cls-4 {
        fill: #98dce0;
      }

      .cls-5 {
        fill: #85c4cd;
      }

      .cls-6 {
        fill: #fb973a;
      }

      .cls-7 {
        fill: #ee6330;
      }

      .cls-8 {
        fill: #feebca;
      }

      .cls-9 {
        fill: #216c86;
      }

      .cls-10 {
        fill: #2c3c71;
      }

      .cls-11 {
        fill: #3d325a;
      }

      .cls-12 {
        fill: #fecd5d;
      }

      .cls-13 {
        fill: #fdfbf2;
      }

      .cls-14 {
        fill: #88c5cf;
      }

      .cls-15 {
        fill: #f27078;
      }

      .cls-16 {
        fill: #fef3e7;
      }

      .cls-17 {
        fill: #89c6cf;
      }

      .cls-18 {
        fill: #f8aa50;
      }

      .cls-19 {
        fill: #fefbf2;
      }

      .cls-20 {
        fill: #e0eff2;
      }

      .cls-21 {
        fill: #fe8c50;
      }

      .cls-22 {
        fill: #feb9a1;
      }

      .cls-23 {
        fill: #fedba9;
      }

      .cls-24 {
        fill: #feb59b;
      }

      .cls-25 {
        fill: #e0f0f2;
      }

      .cls-26 {
        fill: #3c315a;
      }

      .cls-27 {
        fill: #4e5b8f;
      }

      .cls-28 {
        fill: #226b86;
      }

      .cls-29 {
        fill: #4c598d;
      }

      .cls-30 {
        fill: #2e2e52;
      }

      .cls-31 {
        fill: #38869a;
      }

      .cls-32 {
        fill: #368499;
      }

      .cls-33 {
        fill: #5ea7b3;
      }

      .cls-34 {
        fill: #2c2e52;
      }

      .cls-35 {
        fill: #565a8f;
      }

      .cls-36 {
        fill: #fee5ac;
      }

      .cls-37 {
        fill: #fd9a9a;
      }

      .cls-38 {
        fill: #eef7f7;
      }

      .cls-39 {
        fill: #2f2e52;
      }

      .cls-40 {
        fill: #51aeb4;
      }

      .cls-41 {
        fill: #352d55;
      }

      .cls-42 {
        fill: #322f53;
      }

      .cls-43 {
        fill: #fdba47;
      }

      .cls-44 {
        fill: #febfbe;
      }

      .cls-45 {
        fill: #1e647f;
      }

      .cls-46 {
        fill: #fdbf49;
      }

      .cls-47 {
        fill: #fef5e7;
      }

      .cls-48 {
        fill: #599cad;
      }

      .cls-49 {
        fill: #f89641;
      }

      .cls-50 {
        fill: #fdc95d;
      }

      .cls-51 {
        fill: #fa9697;
      }

      .cls-52 {
        fill: #378599;
      }

      .cls-53 {
        fill: #40345e;
      }

      .cls-54 {
        fill: #5e78a9;
      }

      .cls-55 {
        fill: #2c3e73;
      }

      .cls-56 {
        fill: #5d78a9;
      }

      .cls-57 {
        fill: #feeccc;
      }

      .cls-58 {
        fill: #fc9c9e;
      }

      .cls-59 {
        fill: #155774;
      }

      .cls-60 {
        fill: #0a456b;
      }

      .cls-61 {
        fill: #0e246b;
      }

      .cls-62 {
        fill: #5f78a8;
      }

      .cls-63 {
        fill: #fb9a9d;
      }

      .cls-64 {
        fill: #4f5c8f;
      }

      .cls-65 {
        fill: #fef0c8;
      }

      .cls-66 {
        fill: #353058;
      }

      .cls-67 {
        fill: #febe49;
      }

      .cls-68 {
        fill: #f5928f;
      }

      .cls-69 {
        fill: #6078a9;
      }

      .cls-70 {
        fill: #e85e2d;
      }

      .cls-71 {
        fill: #e95e2d;
      }

      .cls-72 {
        fill: #e06369;
      }

      .cls-73 {
        fill: #f9aa50;
      }

      .cls-74 {
        fill: #f27a3d;
      }

      .cls-75 {
        fill: #392e57;
      }

      .cls-76 {
        fill: #fedb7c;
      }

      .cls-77 {
        fill: #fd9596;
      }

      .cls-78 {
        fill: #358397;
      }

      .cls-79 {
        fill: #368398;
      }

      .cls-80 {
        fill: #f76e38;
      }

      .cls-81 {
        fill: #feeac7;
      }

      .cls-82 {
        fill: #2f2f53;
      }

      .cls-83 {
        fill: #0d476c;
      }

      .cls-84 {
        fill: #6793ae;
      }
    </style>
  </defs>
  <g id="_Ñëîé_1" data-name="Ñëîé 1">
    <g>
      <ellipse class="cls-38" cx="428.03" cy="375.97" rx="346.15" ry="291"/>
      <path class="cls-76" d="M523.92,399.06c5.59-39.33,12.23-78.48,20.03-117.43,2.28-11.37,4.59-22.78,8.33-33.73,3.74-10.93,10.47-19.49,22.82-21.76.45.2.9.34,1.41.37,7.16.3,7.27.44,6.9,8.18-2.25,2.47-5.46,2.04-8.3,2.69-3.08.71-6.03,1.72-6.36,5.3-.35,3.81,2.92,4.79,5.67,5.97,3.17,1.36,6.54.85,9.84,1.01,2.16.11,4.32.21,6.36,1.03,12.95,3.11,26.1,5.25,39.17,7.73,50.88,9.65,101.74,19.42,152.11,31.55,9.64,2.32,16.58,7.59,18.32,18.05-1.42,13.1-4.67,25.87-7.04,38.8-2.76,15.06-5.65,30.1-8.24,45.19-3.21,18.69-6.66,37.35-10.12,55.99-.23,1.67-.93,3.17-1.65,4.67-7.67,15.84-10.09,32.14-4.44,49.18.07.84-.09,1.64-.58,2.34-11.02,4.46-21.97,4.23-32.79-.62-3.33-1.5-5.4-4.32-6.83-7.61-1.06-2.43-1.98-4.93-3.26-7.26-2.9-5.29-7.51-6.78-12.99-4.11-1.94.94-3.89,1.98-5.47,3.43-5.35,4.92-11.33,7.77-18.85,7.52-4.17-.14-6.16,2.37-6.5,6.65-.2,2.48.05,4.98-.18,7.46-.17,1.57-.68,3.02-1.58,4.32-3.81,4.25-4.04,7.47-.84,12.26.91,1.35,2.23,2.4,2.9,3.94.54,1.42.55,2.92.69,4.41-.05,1.3.54,2.49.62,3.76-.68,4.18,1.14,7.3,3.96,10.21,7.47,7.7,17.05,11.49,26.99,14.3,12.98,3.68,26.3,5.42,39.84,4.94,1.52-.05,3.01-.02,4.17,1.19-.01,15.92-2.57,31.37-8.45,46.21-.43,1.08-1.33,1.9-2.04,2.82-1.56,3.08-4.56,3.97-7.53,4.89-6.32,3.76-13.33,3.25-20.21,2.98-4.25-.17-8.47-1.07-12.7-1.64-1.99,1.36-4.12.79-6.24.47-13.59-2.04-26.91-5.36-40.34-8.19-16.23-2.5-32.18-6.4-48.29-9.53-4.07-.79-8.12-1.66-12.22-2.31-15.38-3.65-30.89-6.79-46.02-11.42-10.21-3.05-20.5-5.86-30.3-10.17-5.4-2.38-10.31-5.41-14.17-9.96-5.67-6.57-6.39-14.54-5.7-22.57,1.94-22.31,4.76-44.52,7.72-66.71,1.74-12.99,2.96-26.04,5.24-38.95.15-1.09.65-2.11.61-3.23.81-12.94,2.95-25.7,4.85-38.5.22-1.48.59-2.94,1.67-4.09Z"/>
      <path class="cls-44" d="M329.08,251.91c4.75.3,9.55-.58,14.14,1.96,4.44,2.46,7.03,5.83,7.92,10.76,3.23,17.76,5.05,35.7,7.18,53.61,2.41,20.21,3.65,40.51,5.62,60.75.69,7.04-.5,14.26,1.98,21.15,1.18,5.69,1.35,11.51,1.59,17.26.42,9.79,1.13,19.55,1.95,29.3-.42,16.14,1.29,32.24,1.2,48.38-.05,8.47,1.4,16.93,1.16,25.4-.4,14.31,1.45,28.56.72,42.87-.87,17.08-10.28,27.5-25.66,33.38-3.42,1.31-6.97,2.24-10.43,3.42-2.07.69-4.25,1.01-6.3,1.77-3.19,1.09-6.55,1.57-9.7,2.75-2.95,2.22-1.52,5.45-1.96,8.25-.35,2.23.84,5.11-2.47,6.16-2.29-2.93-1.23-6.37-1.35-9.59-.1-2.51-.99-3.23-3.38-2.55-12.45,3.53-25.23,5.52-37.87,8.17-.81.16-1.64.23-2.46.32-21.24,4.53-42.51,8.88-64.07,11.63-13.78,2.64-27.68,4.31-41.64,5.54-1.61.14-3.3.61-4.75-.61-9.81-.74-19.62,2.21-29.42-.09-1.23-.68-2.06-1.68-2.22-3.09-1.49-13.41-3.59-26.77-3.32-40.32,1.42-2.07,3.42-1.59,5.4-1.21,14.01,2.72,27.92,6.13,42.32,6.3,2.54.03,4.3,1.12,5.49,3.53,6.96,14.03,14.53,16.77,29.15,9.97,4.82-2.24,10.06-4.45,12.85-9.62,3.42-4.29,4.67-9.15,3.84-14.56-.72-4.19-.71-8.46-1.5-12.64-5.44-19.09-12.25-37.77-16.69-57.16-.74-3.26-2.32-6.18-3.92-9.09-4.79-8.33-11.37-15.34-17.08-23-2.11-3.92-4.04-7.95-6.29-11.8-1.45-2.49-3.31-4.83-6.59-4.37-3.53.5-4.39,3.42-5.27,6.41-1.17,4-.08,8.29-1.8,12.19-5.64,4.71-7.05,11.54-8.6,18.1-1.71,7.25-4.05,14.39-4.52,21.9-.07,1.17-.44,2.29-1.44,3.06-9.82,1.81-19.28,1.22-28.04-4.17-1.81-6.42-1.65-13.07-2.24-19.63-.57-6.41-.66-12.88-2.65-19.09-.37-7.26-1.07-14.49-1.38-21.76.34-12.15-1.47-24.17-2.52-36.21-1.55-17.87-2.97-35.74-4.43-53.61-2.1-25.65-4.07-51.32-6.5-76.94-.19-1.98-.62-3.96.35-5.87,1.44-1.9,3.58-2.31,5.73-2.58,35.81-4.52,71.19-11.72,106.79-17.55,31.82-5.21,63.59-10.72,95.38-16.06,5.76-.97,11.67-2.78,17.68-1.15Z"/>
      <path class="cls-22" d="M347.12,162.89c-15.41-6.38-28.33-15.63-35.72-31.19-4.03-8.5-5.46-17.67-6.17-26.88-1.05-13.64-.77-27.28,1.71-40.79,2.54-9.87,6.01-19.29,12.17-27.59,8.87-11.94,21.18-19.03,34.57-24.43,17.88-7.21,36.72-9.71,55.84-11.17,13.47-1.03,26.91-.64,40.37-.75,1.78-.01,3.7-.49,5.26.9-3.71,1.11-7.41.44-10.86.34.54.66,1.67.22,2.63.2,10.28-.27,20.49.64,30.67,1.94,1.13.15,2.32.3,3.39-.35,1.42.06,2.93-.33,4.09.9,5.9,1.69,11.84,3.17,17.92,4.08.73.27,1.46.54,2.19.81,2.63,1.88,5.62,2.82,8.79,3.22.37.22.73.43,1.1.65,2.56,2.5,6.13,3.24,9.02,5.18l-.03-.02c6.5,4.08,12.09,9.2,17.04,15.03h0c1.42,2.42,3.38,4.52,4.57,7.09.65,1.41,3.42,2.8.7,4.45-2.12,1.29-5.59,1.25-6.2-1-1.73-6.41-3.99-5.03-7.94-1.87-2.24,1.79-5.46.08-8.19-.63-.9-.24-1.87-.7-3.1.31,2.1.77,4.5.84,5.4,3.17.37.96.58,1.93.05,2.88-.68,1.2-1.68.66-2.63.44-4.19-.97-8.35-1.67-11.7-5-2.03-2.02-5.44-.96-8.15-1.74-2.82-.81-5.61-1.65-5.96-5.13-.36-3.65-.87-7.49,3.37-9.32-3.77-4.18-7.17-2.71-10.36,1.1.21,1.69,3.65,1.12,2.82,3.21-.72,1.82-2.96,2.34-4.76,1.96-2.53-.53-4.22-.01-6.17,1.83-2.75,2.6-5.35,1.7-6.82-1.88-.5-1.2-.9-2.37-2.75-3.54.96,3.5-1.38,8.11,4.79,7.4.3-.03.61.23.9.41,3.05,1.9,2.3,4.39,1.88,7.4-.3,2.15,5.43,1.58,4.18,5.65-.43,1.4-1.14,2.95-2.57,2.43-4.24-1.55-9.42,1.02-13.05-3.2-2.07-2.4-3.92-2.89-5.86.72-2.21,4.09-6.45,3.33-10.3,2.95-.58-.06-1.14-.89-1.75-.07.42-.17.68-.03.79.42-.86,2.14-2.97,1.87-4.64,2.35-5.61,1.63-10.24,4.69-13.89,9.23q-3.36,4.17-6.68-.05c-10.23-13-28.47-14.27-39.85-2.67-5.9,6.01-8.06,13.26-6.31,21.54,2.16,10.24,7.56,18.74,14.6,26.26,6.26,6.69,12.93,12.93,20.43,18.23,1.36.96,2.66,2,3.66,3.35,1.52,2.35,3.8,3.65,6.37,4.54.43.16.84.36,1.24.58,1,.7,2.15.79,3.32.95,1.59.22,3.72.04,3.84,2.28.1,1.89-1.84,2.27-3.24,2.51-4.05.71-6.85,2.61-8.43,6.63-.89,2.25-2.8,4.09-5.14,5.22,3.88,5.06,5.25,11.2,8.39,17.01.3-1.68-.75-3.09-.47-4.48.44-2.24,1.88-3.52,4.1-3.71,2.5-.22,2.89,1.56,3.18,3.53.9,6.2-2.7,11.24-8.46,11.75-1.02.09-2.18.28-2.85-.47-2.42-2.71-5.2-2.22-8.2-1.36-1.79.51-3.34-.05-3.85-2.11-.65-2.62-2.16-2.83-4.52-2.05-1.88.62-3.95-.04-5.93-.1-1.41-.04-2.51-.85-3.1-2.19-.84-1.9.65-2.63,1.68-3.37-3.47-1.45-6.27-.39-8.7,2.49-1.23,1.47-3.07,1.78-5.04,1.51-12.17-1.7-24.2-3.99-35.77-8.27-.29-.11-.63.11-.9.32Z"/>
      <path class="cls-24" d="M452.32,53.21c-.49-.22-1.59-.75-.98-.93,1.54-.45,3.31-.39,4.94-.21,4.2.47,6.86-1.32,7.61-5.37.63-3.36,1.75-2.33,3.47-.87,3.16,2.68,5.88,6.56,11.04,4.29.88-.39,1.93.15,2.68.96.76.82,1.8,1.23,2.51.14.75-1.16.76-2.63-.04-3.78-1.06-1.52-1.53.07-2.17.6-.69.57-1.71,1.03-2.01-.01-.39-1.35-1.35-2.87-.36-4.27,1.03-1.47,2.73-2.6.68-4.6-1.48-1.44-2.43-1.98-4.55-.59-1.76,1.16-3.14-.53-2.84-2.57.2-1.33.23-2.52.01-3.87-.3-1.83-1.13-5.13.7-5.22,2.05-.11,4.02,2.68,4.38,5.16.2,1.33-.43,2.68,1.52,2.92,1.56.19,3.12.02,3.88-1.57,1.23-2.55,2.31-4.36,5.38-1.69,1.29,1.12,3.12-.37,4.75-.91-.89-1.54-2.7-.28-3.7-1.32-.88-.91-1.68-2.6-.43-2.83,3.16-.57,4.58-3.06,6.71-4.77.82-.66,2.38-1,2.59,0,.73,3.48,4.53,2.99,6.51,5.67-6.19-.79-5.46,3.26-5.62,7.05-.2,4.7,3.23,4.94,6.26,5.34,3.9.52,7.77.47,10.57,4.09,2.4,3.11,7.2-.09,9.98,4.22.08-3.8-1.01-5.24-3.98-5.26-1.45,0-3.93.7-3.42-2.1.37-2.06,2.45-2,4.12-1.74,1.3.2,2.59.63,3.82,1.12,3.71,1.48,6.75,1.22,8.81-2.77.51-.99,1.02-2.68,2.94-1.89,1.7.69,1.85,2.03,1.99,3.63.44,5.02.87,5.24,6.3,4.13-.83-3.93-4.45-6.46-5.25-10.39,7.73,7.6,11.17,17.37,13.92,27.5.6,2.2,1.23,4.4,1.85,6.6,1.12,12.04,1.75,24.06.36,36.16-2.98,26.01-15.16,45.54-39.19,56.97-17.19,8.18-35.71,10.93-54.37,12.77-6.44.63-10.92,2.5-13.8,9.04-3.52,8.02-8.33,15.49-12.89,23.02-3.37,5.58-6.35,5.44-10.05-.03-6.06-8.94-12.27-17.78-18.05-26.89-2.62-4.13-6.2-4.82-10.51-5.1-14.68-.96-29.26-2.64-43.36-7.1-2.68-.85-5.26-2-7.89-3.01,3.29-1.12,6.47-.18,9.33,1.17,3.33,1.56,6.45,3.34,10.29,2.2,1.39-.41,2.03.79,3.02,1.3,2.4,1.23,5.11,2.3,7.62,1.03,2.33-1.18,3.51-1.85,5.62.81,1.58,2,4.26.14,5.9-1.74,1.94-2.22,3.65-5.09,7.19-2.22.31.26.94.2,1.42.17,1.12-.07,2.26-2.53,3.21-.47.79,1.7-.87,2.49-2.5,2.88-3.31.8-1.56,2.43-.18,3.18,2.42,1.33,5.29,1.62,7.46-.32,2.79-2.49,4.33-.53,4.59,1.53.67,5.34,3.86,2.85,6.12,2.13,1.4-.45,2.8-2,3.57.14,1.84,5.11,6.34,2.48,8.02,1.58,2.19-1.18,4.74-4.39,3.77-7.76-.42-1.44.91-3.51-1.13-4.33-1.16-.47-2.19.3-3.11,1.12-1.76,1.56-.58,3.01.09,4.47.65,1.43,1.04,2.86-.06,4.21-.48.59-1.18.57-1.73.01-1-1.03-2.78-1.85-2.12-3.59.77-2.02.06-3.07-1.54-4.1-1.74-1.12-1.85-2.93-1.97-4.83-.16-2.58-.85-4.99-4.01-5.46-.88-.13-1.68-.47-1.67-1.47,0-1,.77-1.48,1.67-1.43,4.34.22,6.12-3.94,6.54-6.2.7-3.8,2.59-4.21,5.39-4.75,1.91-.36,3.75-1.1,5.95-1.77-2.11-2.78-6.57.45-7.64-3.52,5.84.09,10.48-2.87,14.87-6.14,10.12-7.55,20.46-14.84,28.05-25.27,4.25-5.85,7.9-11.93,9.67-18.98,3.61-14.39-3.67-26.81-17.91-30.91-2.85-.82-5.99-.58-8.57-2.35Z"/>
      <path class="cls-25" d="M333.62,728.81c.57-.31,1.62-.61,1.64-.95.3-6.17,4.81-5.16,8.58-4.91,9.97.66,19.56,3.07,28.83,6.79,2.09.84,3.4,2.65,4.88,4.2,2.17,2.25,2.09,4.21-.71,6.12-6.92,4.72-14.79,6.51-22.83,7.85-18.77,3.13-37.68,4.8-56.65,6.15-12.57.89-25.1,2.01-37.71,1.85-7.47-.1-14.86,1.79-22.34.96-5.94-.66-11.85-.08-17.76.08-14.8.4-29.6-.44-44.3-1.34-26.02-1.59-52.15-3.17-77.76-8.74-5.66-1.23-11.29-2.78-16.17-6.18-4.14-2.88-4.28-6,0-8.82,6.22-4.11,13.53-5.49,20.64-6.79,11.34-2.07,22.71-4.4,34.37-3.9.23,0,.49-.73.74-1.11,1.52-.73,2.1.58,2.73,1.41,2.88,3.8,6.69,6.55,10.84,8.57,13.88,6.73,28.4,11.06,44.05,10.48,10.8-.4,14.98-7.28,10.45-17.13-.62-1.36-1.32-2.68-1.4-4.22-.26-3.11,1.97-3.64,4.19-3.67,14.6-.21,29.21-.39,43.81.09,4.17.14,6.71,2.17,6.87,6.83.13,3.99,2.14,6.91,6.31,7.86,1.16.08,2.32.21,3.43.53,14.75,4.25,29.71,6,45.09,4.77,6.46-.51,12.47-1.36,17.49-5.78.75-.66,1.69-1.04,2.74-.97Z"/>
      <path class="cls-63" d="M104.07,289.04c1.31,12.82,3.14,25.62,3.75,38.48.47,9.94,1.72,19.79,2.35,29.71,1,15.68,2.5,31.33,3.78,46.99.73,8.91,1.6,17.81,2.1,26.73.59,10.41,2.52,20.74,1.95,31.23-2.94-.85-2.5-3.64-3.08-5.69-3.41-12.22-9.12-23.03-18.44-31.83-3.43-3.24-7.21-5.81-11.5-7.7-4.36-1.84-8.77-3.39-13.56-3.65-1.55-.08-3.36.21-4.16-1.76,1.87-5.28-.16-10.53-.38-15.76-.48-11.4-1.85-22.75-2.64-34.14-.82-11.89-1.39-23.8-2.07-35.71,1.34-8.77-1.16-17.42-.85-26.18.14-3.93-.35-7.89.16-11.87,1.16-9.03,5.3-12.13,14.47-10.56,1.32.22,2.64.26,3.95.4,3.34,8.22,10.26,9.84,18.1,9.86,2.09,0,4.36-.38,6.04,1.45Z"/>
      <path class="cls-62" d="M333.62,728.81c-4.38,5.34-10.11,7.68-16.92,8.2-17.39,1.33-34.43-.45-51.18-5.21-7.1-2.55-9.72-7.85-7.71-16.97,3.18-14.45,5.68-29.02,7.84-43.64,1.57-10.67,2.67-21.41,2.98-32.21.06-2.12-.31-4.38,1.49-6.08.94-.1,1.93-.05,2.68-.83,12.52-2.48,25.24-3.82,37.68-6.75,3.06-.72,4.35.49,4.09,3.63-.11,1.29-.29,2.66.34,3.91-2.21,21.73-5.4,43.32-10.6,64.55-.92,3.78-.27,5.41,3.66,6.36,8.94,2.16,17.23,5.86,24.16,12.13,3.11,4.01,3.91,8.28,1.47,12.92Z"/>
      <path class="cls-69" d="M204.99,720.28c.48.87.95,1.75,1.44,2.61,5.18,9.12.69,18.51-9.88,18.92-19.92.77-38.39-4.35-54.82-16-2.11-1.5-3.08-3.86-4.67-5.75-1.61-4.57-1.49-9.27.34-13.57,7.44-17.52,12.48-35.85,18.54-53.83,1.7-1.75,3.62-2.96,6.1-3.58,11.26-2.81,22.55-5.42,34.07-6.92,3.76-.49,6.58.39,7.68,4.41.15,8.83-3.33,16.87-5.77,25.09-2.69,9.06-6.05,17.92-9.79,26.62-2.69,6.24-2.62,6.27,3.24,9.35,5.67,2.98,10.78,6.55,13.53,12.66Z"/>
      <path class="cls-52" d="M581.94,631.91c-10.15,22.68-14.43,46.98-19.62,71.03-3.67,10.18-6.91,13.13-13.46,11.86-3.4-.66-6.71-1.8-10.05-2.76-1.27-.36-2.51-.8-3.76-1.2-9.55-1.83-17.33-7.37-25.27-12.42-4.32-2.75-8.1-6.32-11.68-10.07-2.89-3.02-4.87-6.19-4-10.54.09-.92.18-1.84.26-2.77-.98-4.48,2-6.96,4.91-9.34,2.43-1.98,5.4-2.99,8.4-3.84,2.92-.45,5.84-.47,8.76-.02,3.51.76,7.3,4.15,10.07,2.84,2.9-1.37.63-6.32,1.6-9.59,1.08-3.63,1.33-7.44,2.01-11.16,1.75-4.67,1.73-9.95,4.95-14.1,2.33-2.32,2.69-5.59,3.91-8.43,1.44-3.35,3.39-4.22,7.03-3.27,10.74,2.81,21.08,6.82,31.7,9.97,1.97.58,3.64,1.62,4.25,3.79Z"/>
      <path class="cls-73" d="M590.2,251.23c-5.99-.62-12.12.82-17.98-1.94-3.15-1.48-5.54-3.06-5.21-6.83.35-3.97,3.33-5.56,6.66-6.31,3.03-.69,6.19-.83,9.3-1.21,7.33-1.55,14.54-.06,21.67,1.23,35.03,6.34,70.04,12.81,104.88,20.21,29.78,6.33,59.61,12.45,89.32,19.12,11.23,2.52,22.17,5.95,33.07,9.55,7.71,9.42,8.07,20.29,6.15,31.56-5.85,34.39-12.38,68.66-17.34,103.2-.05.32-.25.61-.38.92-.35.58-.85,1.15-1.49,1.17-6.35.2-12.4,2.73-18.81,2.42-1.92-1.99-1.25-4.35-.8-6.59,4.53-22.79,8.78-45.63,13.37-68.41,2.23-11.06,4.07-22.18,5.66-33.35.57-4.03-.15-7.94-1.35-11.77-3.05-10.51-10.64-16.12-20.65-19.01-11.99-3.45-24.21-6-36.39-8.67-39.96-8.79-80.04-17.01-120.31-24.26-15.15-2.73-30.29-4.39-45.53-.7-1.3.32-2.62.55-3.83-.33Z"/>
      <path class="cls-31" d="M719.07,666.78c7.05,12,15.6,22.93,24.05,33.95,4.55,5.94,4.2,9.78-.72,15.51-1.39,1.62-2.94,3.12-4.41,4.68-.73,2.59-2.73,4.09-4.81,5.48-11.99,8-25.11,13.46-39.01,17.07-4.47,1.16-9.05.42-13.15-1.32-10.04-4.24-10.58-17.21-1.21-24.3,3.51-4.03,7.26-7.87,12.06-10.28,3.22-1.62,2.85-2.91.85-5.35-11.45-13.99-19.17-30-25.08-46.99-.94-2.69-.03-5.67-1.7-8.14-1.46-4.82,1.99-4.04,4.47-3.62,10.97,1.83,22.07,2.89,32.85,5.79,1.44.39,2.89.82,4.38.97,3.16.31,4.82,1.88,6,4.96,1.52,3.96,2.54,8.25,5.42,11.61Z"/>
      <path class="cls-20" d="M628,755.91c-9.99,0-20,.51-29.95-.12-16.16-1.02-32.33-2.03-48.46-3.64-14.65-1.46-29.28-2.81-43.61-6.29-3.68-.89-7.51-1.65-10.57-4.14-4.9-3.98-4.53-7.67.86-10.93,5.37-3.25,11.4-4.65,17.4-5.74,17.24-3.14,34.58-5.48,52.13-6.2,9.08-.38,18.14-1.29,27.21-1.96.62-.7,1.42-1.06,2.32-1.23,9.58-.35,19.17-.49,28.74-1.2,2.96-.17,5.92-.13,8.89-.07,2.7.22,5.4-.01,8.1.06,2.75-.08,5.57-.52,7.95,1.44,1,.01,2,.03,3,.04,2.05,2.77.22,4.16-1.9,5.54-2.57,1.67-3.75,3.54-1.47,6.55,2.38,3.15.41,6.71.21,10.07-.08,1.28-1.05,2.69-.14,3.83,2.64,3.28,2.06,7.22,2.55,10.96.17,1.28.89,2.92-.96,3.32-1.72.37-4.75.97-5.14-.39-1.66-5.72-7.26-3.98-10.75-6.05-1.91-1.13-4.03-1.41-4.07-4.02-.04-2.67,2.31-2.88,4.14-3.56,2.31-.86,4.79-.74,8.19-.99-2.13-.59-3.23-.18-4.35-.24-2.01-.11-3.56-.91-4.45-2.7-1-1.99-.13-3.95,1.38-4.86,2.96-1.8,2.49-3.79,1.2-6.21-1.35-2.53-3.29-3.59-6.17-2.95-1.79.39-3.67.49-5.22,1.57-2.5,1.74-4.88,1.77-7.35-.97.3,4.9-1.01,7.87-5.77,8.32-2.08.2-2.45,2.01-2.64,3.72-.2,1.78.79,2.82,2.37,3.34,2.01.66,3.75.78,3.56-2.19-.06-1-.19-2.04.24-2.96,1.36-2.9,2.79-6.15,6.57-5.93,4.08.23,3.83,3.83,4.3,6.78.61,3.77.53,6.94-4.3,7.68-1.1.17-2,1.16-2.84,1.97-1.02.99-1.61,2.14-1.12,3.58.51,1.51,1.76,1.79,3.17,1.92,2.5.23,5.01-.41,7.47,0,1.93.32,3.75,1.48,3.29,3.63-.44,2.04-2.28,2.07-4.01,1.2Z"/>
      <path class="cls-78" d="M68.15,589.87c-5.17.57-10.12-.47-15-2.05-7.56-2.42-12.72-8.02-17.93-13.55-1.62-1.72-2.87-3.63-2.84-6.13-.61-4.98-2.21-9.64-4.03-14.29-1.47-3.75-.47-7.82-.56-11.7-.36-15.8-.39-31.62-.05-47.43.25-11.84,2.32-23.51,5.64-34.87,3.21-11,10.63-18.66,20.83-23.55,5.83-2.79,9.14-.05,8.86,6.28-.57,12.95-1.98,25.88-1.42,38.86.12,2.71-.07,5.35-1.06,7.84-2.69,6.81-3.24,13.77-2.6,21.05.92,10.59.89,21.26,3.44,31.69,3.5,14.35,8.96,27.83,17.12,40.18,1.07,1.62,3.13,3.11,1.85,5.25-1.09,1.82-3.38,1.81-5.37,1.98-2.3.2-4.65-.49-6.89.44Z"/>
      <path class="cls-25" d="M628,755.91c1.38-.15,3.47.33,3.18-1.87-.2-1.53-2.02-2.56-3.52-1.98-2.3.89-4.6-.1-6.76.48-2.38.64-3.35-.52-4.23-2.33-1.01-2.07-.83-3.87.99-5.36,1.29-1.04,2.99-1.76,3.88-3.05,1.16-1.7,3.88,1.27,3.97-1.35.1-2.76-.39-5.61-1.04-8.32-.53-2.2-2.58-3.03-4.24-1.55-2.11,1.87-4.82,3.83-3.68,7.45.47,1.48.98,3.52-.63,3.94-1.93.5-4.33.43-6.15-.93-1.06-.79-3.01-1.18-2.17-3.32,1.09-2.78-.13-7.35,5.79-6.04,2.29.51,3.51-2.2,3.08-4.62-.27-1.5-.79-2.88.3-4.24,3.57,2.64,4.34,3.1,13.32.14,4.88-1.61,6.13,1.24,7.82,4.12.53.9.25,2.12,1.52,2.86,2.59,1.51.72,2.49-.72,2.8-2.66.58-4.66,2.34-4.12,4.62.7,2.91,3.6,2.98,6.23,2.12,1.28-.42,2.61-1,3.68.21.31.35.23,1.31-.01,1.82-.7,1.43-2.2,1.7-3.45,1.33-2.98-.88-5.51.67-8.24,1.12-1.2.2-1.86.92-1.55,2.06.29,1.06.96,3,1.95,2.4,2.54-1.53,3.64-.83,4.69,1.6.41.95,1.67.91,2.69.58,3.34-1.1,5.47-1.17,4.77,3.63-.36,2.44,2.38,1.67,3.85,1.58,1.84-.12,1.14-1.18.83-2.45-1.01-4.09.14-8.55-3.38-12.34-.81-.87,1.35-5.65,1.76-8.75.18-1.37.48-2.24-.63-3.5-3.27-3.73-2.82-6.48,1.9-8.6,2.36-1.06,2.3-2.4,2.33-4.2,7.83.33,15.67.68,23.5.96,1.52.05,2.97.16,4.3.95-1.75,3.35-4.1,6.37-4.99,10.17-1.62,6.87,2.5,13.09,9.56,14.02,4.77.63,9.49.57,14.15-.99,14.16-4.76,28-10.1,39.47-20.12,5.46,1.94,11.25,2.15,16.9,2.89,10.36,1.36,20.51,3.32,30.31,7,2.91,1.09,4.99,3.07,5.35,5.98.34,2.71-2.39,3.87-4.34,4.93-7.67,4.16-16.08,5.93-24.62,7.17-16.01,2.33-32.01,4.43-48.23,5.28-13.69.72-27.35,1.47-41.06,1.87-13.04.38-26.07,1.02-39.12.85-1.76-.02-3.7.62-5.19-.97Z"/>
      <path class="cls-80" d="M824.91,602.8c-9.74,1.94-19.48,3.4-29.27.3-3.68-.97-3.82-3.13-1.98-5.94,8.08-12.36,11.05-26.56,14.63-40.54,3.04-11.88,4.42-24.15,8.29-35.83,2.18-5.84,4.7-11.55,6.9-17.39,2.28-3.66,2.56-7.85,3.02-11.94.4-3.47,1.83-5.63,5.61-5.54.5.01,1.02.04,1.48-.12,12.51-4.21,16.01,4.83,15.44,14.29-1.23,20.35-3.43,40.63-6.92,60.74-.32,1.86-.51,3.58.47,5.26.55,1.6.84,3.3.3,4.88-3.31,9.7-6.08,19.7-14.36,26.77-1.59,1.36-3.55,2.56-3.61,5.06Z"/>
      <path class="cls-68" d="M80,277.97c-.8.42-1.18,2.02-2.38,1.24-4.2-2.72-7.93.23-11.82.87-3.28.54-3.53,3.66-3.51,5.85.07,9.44-.86,18.88.57,28.33.58,3.79,1.2,7.88-.66,11.67-.36-8.59-1.64-17.13-1.18-25.75-.67-4.15-.6-8.3-.03-12.44.19-11.56,7.61-18.24,16.39-23.8,3.33-2.11,7.14-3.46,10.73-5.15,15.52-4.98,31.7-6.75,47.63-9.68,24.06-4.42,48.2-8.46,72.33-12.5,24.95-4.17,49.86-8.58,74.96-11.77,6.9-.87,13.75-1.95,20.73-1.88,9.92.09,14.32,3.16,18.16,12.94-.45.21-.93.5-1.42.4-17.13-3.69-33.78.96-50.46,3.36-32.28,4.64-64.47,9.93-96.55,15.85-24.38,4.5-48.85,8.57-73.13,13.63-7.49,1.56-13.96,5.03-20.38,8.83Z"/>
      <path class="cls-74" d="M799.76,423.84c6.73-1.9,13.54-3.24,20.58-3.11,22.71,3.05,35.27,17.51,42.73,37.83,4.33,11.77,4.23,23.97,3.96,36.21.44.45.43.88-.03,1.31-3.27-.86-2.45-3.69-2.34-5.72.62-11.24-2.01-21.98-4.61-32.93-.13.77.35,1.25.31,1.81-.15,2.18,3.02,4.66-.56,6.52-2.64,1.37-7.56.33-9.54-2.19-1.02-1.3-1.72-2.84-3.44-3.4-1.38-.71-2.32-1.85-3.18-3.1-7-10.14-16.1-16.21-28.98-14.94-15.79,3.47-23.79,14.21-27.26,29.17-1.05,4.53-1.55,9.17-3.14,13.6-2.27,6.34-6.47,11.19-11.34,15.56-1.3,1.17-2.64,2.71-4.8,1.76-3.98-7.29-4.08-15.15-3.68-23.19.56-11.21,4.38-21.38,9.3-31.26,1.76-6.06,6.02-10.36,10.33-14.62,1.34-.87,2.51-1.96,3.78-2.93,3.79-2.47,7.2-5.67,11.92-6.39Z"/>
      <path class="cls-40" d="M33.29,568.76c4.05,7.24,9.93,12.61,17.04,16.73,1.08.63,2.71.54,2.82,2.32-16.08-2.95-29.28-9.68-34.71-26.56-.47-1.47-.31-3.16-2.81-3.3-7.66-.43-11.78-5.69-13.32-12.25-4.27-18.22-2.42-36.22,3.91-53.75.9-2.5,2.5-4.89,4.84-6.22,3.28-1.86,4.58-4.13,4.75-8.09.71-15.97,4.47-31.04,14.85-43.8,2.15-2.5,4.58-2.94,6.33.08,1.74,3.01,5.59,1.93,7.38,4.48-.06,1.77-1.26,2.52-2.73,3.02-3.64-.29-1.35,2.7-2.18,3.98-9.58,15.08-10.81,32.18-11.83,49.27-.49,8.27-.25,16.57-.83,24.86-.74,10.57.68,21.17,1.22,31.73.3,5.81,3.87,11.5,5.24,17.48Z"/>
      <path class="cls-45" d="M41.32,441.29c.89-.83,1.79-1.66,2.68-2.49,4.73-7.42,12.2-8.87,20.16-9.24,15.89,1.37,26.1,10.24,32.53,24.33,4.34,9.49,4.76,19.59,5.29,29.73.38,7.29.28,14.6,2.34,21.75,1.21,4.21,4.35,7.49,5.1,11.83-1.56,2.45-3.2.89-4.59-.07-4.1-2.82-6.92-6.66-8.43-11.42-1.92-6.06-3.18-12.23-2.76-18.64.86-11.71-.7-22.97-5.64-33.76-1.83-4.01-4.19-7.43-7.44-10.31-2.55-2.02-5.48-5.69-8.28-4.22-2.66,1.4-.47,5.69-.17,8.68.37,3.62.4,7.22.19,10.85-3.65,10.52-7.86,20.85-9.18,32.06-1.71,14.6-1.05,28.89,4.87,42.59,1.81,4.18,4.71,7.62,7.73,10.96,1.22,1.35,2.79,2.4,3.39,4.24.73,6.48,1.48,12.97,2.38,19.43-.27,5.18.87,10.24,1.33,15.36.19,2.08.96,4.31-.96,6.09-4.54,1.05-9.12,1.33-13.75.82,2.91-2.15,6.49-.15,9.62-1.6,2.32-1.08,2.62-1.42.91-3.72-9.42-12.66-14.85-27.1-18.67-42.32-3.05-12.14-2.64-24.55-3.79-36.83-.27-2.93-.66-6.02.61-8.88,3.26-7.31,3.47-14.98,3.39-22.85-.11-11.08.44-22.18,1.82-33.21.33-2.64-.9-3.81-3.23-3.87-1.45-.03-3.14.15-4.33.88-10.38,6.33-17.56,14.41-20.8,27.06-6.78,26.46-3.6,53.18-4.6,79.79-.28,7.52,2.75,14.24,4.43,21.29.27,1.12,1.02,2.17-.22,3.14-4.17-7.54-6.51-15.74-7.08-24.2-1.44-21.41-.96-42.85,1.14-64.19,1.26-12.83,3.17-25.75,11.87-36.29.46-1.12.6-2.47,2.11-2.8Z"/>
      <path class="cls-3" d="M831.9,285.05c-1.92,1.4-3.82.57-5.67-.14-14.6-5.59-29.92-8.46-45.1-11.84-18.56-4.14-37.13-8.3-55.79-11.97-29.2-5.74-58.21-12.46-87.6-17.25-13.37-2.18-26.63-5.02-40.01-7.25-4.93-.82-10.03.4-14.77-1.66-.06-.15-.18-.3-.18-.46-.12-5.02-2.07-8.36-7.68-8.34,10.93-1.12,21.38,1.96,31.94,3.81,23.43,4.1,46.86,8.27,70.21,12.78,27.59,5.33,55.1,11.06,82.64,16.62,15.78,3.54,31.65,6.76,47.32,10.75,9.57,2.43,19.4,5.12,24.67,14.95Z"/>
      <path class="cls-21" d="M846.92,458.95c1.89.08,3.17,1.16,3.81,2.79,1.68,4.33,5.35,3.16,8.49,3.07,1.89-.06,1.16-1.3.7-2.5-1.05-2.68-2.06-5.44-1.21-9.13,4.55,6.27,4.33,13.33,6.17,19.71,1.69,5.84.93,11.89,1.09,17.86.05,1.78-.52,3.7.85,5.28,1.92,1.67,1.66,3.9,1.45,6.04-2.36,23.18-4.03,46.46-9.69,69.18-.4,1.62-.52,3.29-.31,4.96-1.52.54-2.82.9-3.48,2.92-4.72,14.4-15.96,20.76-29.86,23.68-.77-.52-1.54-1.05-2.53-1.71,12.18-8.21,17.2-20.43,19.62-34.13-.44-7.56,1.87-14.78,2.91-22.14,2.28-16.15,3.83-32.33,4.73-48.61.43-7.82,1.33-15.57-.08-23.36-.57-3.12-1.22-6.2-2.39-9.16-.6-1.52-1.38-3.1-.24-4.74Z"/>
      <path class="cls-58" d="M81.89,589.05c-.62-7-1.23-14-1.85-21.01,1.96-.92,3.15.61,4.38,1.54,10.58,8,22.85,12.05,35.43,15.44,2.07.56,4.29.74,5.95,2.35.12.22.24.45.36.67,1.31,13.36,2.61,26.73,3.97,40.09.13,1.28.62,2.52.95,3.78-22.72.11-41.12-12.23-47.22-31.68-1.14-3.64-1.89-7.35-1.97-11.18Z"/>
      <path class="cls-28" d="M719.07,666.78c-2.96-1.05-3.34-4-3.97-6.3-1.58-5.79-4.57-8.59-10.9-9.79-11.78-2.24-23.63-3.96-35.42-6.09-2.73-.49-2.71.72-2.83,2.48-.39-.38-.77-.76-1.16-1.14-1.84-10.2-4.7-20.27-3.77-30.8,15.31,3.29,30.57,6.81,46.08,9.08,1.35,14.93,5.91,28.95,11.97,42.56Z"/>
      <path class="cls-18" d="M740.01,622.89c1.9-1.82,4.85-2.4,6.01-5.09,1.63-.83,3.41-1.28,5.1-1.92,9.06-3.45,15.95-9.26,19.59-18.47,3.93-9.93,5.67-20.39,7.36-30.86.91-6.17,1.78-12.35,3.32-18.41,3.66-2.88,8.05-4.35,12.17-6.34,1.33-.64,2.86-.97,4.03.52.75,1.38.81,2.86.6,4.35-2.34,16.54-3.97,33.19-7.41,49.57-.45,2.13-.92,4.22-2.78,5.64-2,3.21-3.91,6.48-6.02,9.62-4.13,6.11-9.98,9.37-17.24,10.58-8.23,1.38-16.45,1.56-24.73.8Z"/>
      <path class="cls-71" d="M858.25,576.2c-2.29-.41-2.23-1.65-1.71-3.63,5.64-21.53,7.76-43.58,9.48-65.68.28-3.62,1.35-7.18.78-10.86.07-.42.15-.84.22-1.26,8.34,4.9,10.07,13.49,10.75,21.79,1.12,13.65,1.56,27.45-2.8,40.8-1.6,4.9-3.66,9.57-7.05,13.53-2.55,2.98-5.55,5.19-9.68,5.31Z"/>
      <path class="cls-70" d="M788,601.89c3.8-16.82,5.99-33.89,7.95-51,.36-3.11,1.51-6.17.78-9.37.05-.88.45-1.62,1.12-2.12,6.81-5.06,12.95-10.78,17.82-17.8.48-.69,1.27-1.04,2.16-.98-5.7,20.93-8.13,42.69-15.91,63.1-1.89,4.96-3.69,9.9-7.16,14.08-1.7,2.05-2.71,4.26,1.64,4.19.58,0,.74.46.19.84-.26.18-.63.19-.95.27-2.55-.4-5.09-.81-7.64-1.21Z"/>
      <path class="cls-29" d="M202.95,646.88c-1.36-2.65-2.79-3.92-6.47-3.42-12.23,1.69-24.15,4.67-36.14,7.42-1.58.36-2.84.73-3.24,2.49-.12.53-.48.78-.88.22-.18-.25-.2-.62-.29-.94,1.53-6.89,3.05-13.77,4.58-20.66,15.53-2.02,31.06-4.04,46.59-6.05,1.21,7.49.42,14.59-4.15,20.94Z"/>
      <path class="cls-48" d="M64.13,430.93c-7.86-.33-14.33,2.93-20.13,7.87-3.35-.96-7.05-.98-8.8-5.1-1.12-2.64-2.99.12-4.54.16,8.86-12.92,20.49-21.3,36.62-22.32,6.53.39,12.95,1.18,18.75,4.57-1.02,2.68-3,1.23-4.47.83-2.89-.79-5.77-1.6-8.76-1.95-1.34-.16-2.71.08-2.08,1.7,1.44,3.71-1.63,7.5.55,11.24.98,1.69-.31,2.72-2.27,2.64-1.62-.07-3.3-.56-4.86.35Z"/>
      <path class="cls-24" d="M481,3.12c-4.52,2.69-9.1.1-13.51-.28-7.73-.67-15.47-.66-23.21-1.85,3.63,0,7.26,0,10.89,0,8.68-.13,17.25,1.15,25.84,2.13Z"/>
      <path class="cls-24" d="M541.11,32.98c-5.68-5.01-11.36-10.02-17.04-15.03,7.19,3.29,12.93,8.24,17.04,15.03Z"/>
      <path class="cls-24" d="M503.01,8.1c-2.9,2.06-5.15-.77-7.73-1.08-3.69-.44-7.33-1.33-10.98-2.04-.1-.02-.17-.19-.26-.29.35-.22.71-.45,1.06-.67,6.2.38,12.08,2.13,17.92,4.08Z"/>
      <path class="cls-24" d="M513.99,12.14c-3.43.3-6.62-.08-8.79-3.22,3.15.47,5.94,1.95,8.79,3.22Z"/>
      <path class="cls-24" d="M524.1,17.97c-3.42-1-6.91-1.89-9.02-5.18,3.19,1.41,6.66,2.33,9.02,5.18Z"/>
      <path class="cls-63" d="M60.99,287.74c.01,4.15.02,8.29.03,12.44-1.43-4.14-1.33-8.29-.03-12.44Z"/>
      <path class="cls-16" d="M80,277.97c3.4-5.34,8.96-7.28,14.58-8.83,14.9-4.09,30.21-6.21,45.36-9.04,23.47-4.39,46.97-8.63,70.53-12.52,31.74-5.24,63.47-10.58,95.43-14.28,5.38-.62,10.91.35,16.03,2.6,4.1,4.57,4.34,10.86,7.15,16-10.44,1.68-20.88,3.33-31.3,5.06-14.84,2.46-29.67,4.97-44.51,7.46-22.98,3.86-45.96,7.71-68.93,11.6-13.85,2.35-27.67,4.91-41.54,7.16-12.88,2.09-25.81,3.9-38.72,5.84-6.07-.15-12.19.38-18.03-2.14-4.03-1.75-6.75-4.1-6.04-8.92Z"/>
      <path class="cls-54" d="M374.92,394.88c21.58-14.31,34.55-34.73,42.12-59.06,2.46-7.9,5.45-15.64,9.7-22.8,4.89-8.23,11.36-8.58,17.31-1.05,3.41,4.07,3.81,9.07,4.14,14.02.18,2.78-1.86,4.02-4.17,4.95-5.46,2.2-9.24,6.12-12.06,11.53,2.16.54,2.87-.79,3.74-1.62,2.06-1.95,4.03-3.97,6.42-5.54,7.09-4.64,12.22-2.21,13.14,6.31.85,7.85-1,15.24-4.25,22.3-1.67,3.63-3.37,7.24-4.92,10.93-12.35,24.62-31.41,43.24-53.3,59.27-2.11,1.55-4.23,3.97-7.51,2.72-.92-.79-1.39-1.85-1.69-2.98-2.93-11.18-6.43-22.2-8.63-33.57-.35-1.82-.22-3.61-.05-5.42Z"/>
      <path class="cls-79" d="M523.92,399.06c-1.73,13.47-3.47,26.93-5.2,40.4-.1.82-.15,1.64-.22,2.46-1.34,1.04-2.53.23-3.69-.35-8.93-4.48-17.63-9.35-25.34-15.78-13.79-10.56-26.38-22.31-36.36-36.65-2.08-2.98-4.56-5.76-5.41-9.46-.56-2.32.59-4.15,1.58-6.1,3.45-6.82,7.16-13.55,8.68-21.15,1.46-7.31,1.16-14.27-4.7-19.89-.48-.46-.08.21-.31-.38-2.63-6.95-4.12-14.22-5.98-21.39,3.87-3.38,7.6-2.43,11.05.58,2.56,2.24,3.87,5.35,4.9,8.53,6.04,18.6,14.25,36.13,27.12,51,9.69,11.19,21.1,20.58,33.87,28.19Z"/>
      <path class="cls-27" d="M374.92,394.88c1.83,2.86,1.35,6.27,2.19,9.36,2.98,10.92,5.97,21.83,8.95,32.75-4.59,5.88-10.87,8.7-18.01,9.95-1.74-14.49-2.1-29.08-3.1-43.63-.08-1.23.07-2.29.98-3.17,3-1.75,6-3.51,9-5.26Z"/>
      <path class="cls-1" d="M446.97,310.77c2.58,5.66,6.45,10.93,5.21,17.74-.24,1.29.95,2.07,1.82,2.81,6.42,5.43,6.86,12.69,5.62,20.1-1.38,8.28-5.3,15.69-9.32,22.96-1.09,1.97-1.92,3.78-1.36,6.03-2.98-.59-3.62-2.86-3.89-5.4,2.09-7.87,7.2-14.62,8.45-22.81.78-5.1,1.55-10.15-.84-15.12-1.71-3.54-4.13-3.87-7.34-2.27-4.12,2.06-7.01,5.54-10.22,8.66-1,.97-1.93,3.34-3.92,1.45-1.62-1.53-1.03-3.11.22-4.85,3.46-4.82,7.32-9.09,13.22-10.85,3.67-1.09,2.49-4.01,2.16-6.17-.57-3.75-1.77-7.4-2.7-11.09.97-.4,1.94-.8,2.9-1.2Z"/>
      <path class="cls-17" d="M469.97,288.43c.14-.43.16-1.67.78-2.24,4.29-3.9,8.66-7.71,13.1-11.43,1.49-1.25,2.95-.22,3.87.96,1.29,1.64,2.1,3.81.4,5.46-4.03,3.93-8.09,7.9-12.6,11.24-2.87,2.12-5.66.1-5.57-3.99Z"/>
      <path class="cls-14" d="M446.01,269.2c.59-3.38,1.23-7.78,2.18-12.12.59-2.69,1.92-5.3,5.22-4.95,3.71.4,2.88,3.62,2.62,5.88-.5,4.41-1.3,8.8-2.28,13.13-.56,2.49-1.11,5.55-4.9,4.95-3.64-.58-2.77-3.47-2.83-6.89Z"/>
      <path class="cls-14" d="M427,274.76c.23,2.81-.77,4.06-2.4,4.78-1.92.84-3.45-.3-4.13-1.75-2.45-5.21-4.71-10.52-6.87-15.86-.8-1.97.36-3.62,2.01-4.55,1.58-.89,3.26-.58,4.39,1.01,3.71,5.2,5.11,11.35,7,16.38Z"/>
      <path class="cls-5" d="M392.89,287.02c5,1.64,9.81,3.92,14.21,6.91,1.47,1,2.49,2.85,1.39,4.84-1.12,2.04-2.98,2.75-5.1,1.82-4.41-1.94-8.78-3.97-13.08-6.14-1.99-1.01-2.79-2.89-2-5.08.74-2.05,2.52-2.41,4.57-2.34Z"/>
      <path class="cls-32" d="M817.83,520.62c-5.54,8.47-12.52,15.49-21.1,20.9-4.74,2.57-9.34,5.46-14.69,6.7-4.41,3.84-10.09,3.82-15.36,4.95-2.57.55-5.25.75-7.88,1.1-7.65.67-15.32.3-22.78-1.13-10.28-1.97-20.7-2.46-31.03-3.76-5.96-.75-11.67-2.37-17-5.28-2.73-1.49-4.9-3.36-5.93-6.37-.29-.89-.57-1.79-.86-2.68,3.05-1.22,5.85.48,8.77.78,2.41.24,4.8,1.21,8.15-.3-6.28-2.38-13.15-.36-17.56-5.52-3.54-2.47-5.01-6.13-5.24-10.18-.15-2.55-.14-5.5,3.48-6.14,4.77.76,9.13,2.94,13.81,4.06,2.56.61,5.03,1.24,8.64-.29-7.58-3.01-15.58-1.86-21.06-7.42-.11-1.66-.28-3.31-.3-4.97-.12-9.31,1.68-11.32,10.84-11.09,5.46.14,9.41-2.52,13.42-5.6,4.14-3.18,7.92-6.99,13.96-6.66,3.58.2,5.95,1.57,7.67,4.45.68,1.13,1.26,2.34,1.77,3.56,5.48,12.97,15.37,18.28,29.58,15.84,3.59-.62,7.17-1.26,10.75-1.88,3.94-3,8.12-5.65,12.1-8.61,5.9-4.39,9.25-10.14,10.83-17.26,1.75-7.9,2.91-16.02,7.74-22.93,2.92-4.17,6.32-7.68,11.09-9.65,2.32-.96,4.69-1.76,7.18-.43,6.59,7.3,9.18,16.34,10.84,25.67,2.03,11.41.11,22.53-3.29,33.46-1.43,5.85-4.34,11.12-6.55,16.66Z"/>
      <path class="cls-47" d="M590.2,251.23c19.31-6.52,38.49-2.48,57.56,1.03,42.27,7.78,84.36,16.46,126.28,25.92,8.88,2,17.93,3.55,26.45,6.9,8.79,3.45,15.38,9.11,17.6,18.79.39.81-.34,1.48-.71,1.11-2.5-2.59-5.26-1.55-8.03-.83-.66.14-1.33.21-1.99.3-3.22.17-5.16,3.36-8.37,3.54-1.91-9.45-8.2-14.42-17.13-16.59-33.14-8.06-66.56-14.85-100.03-21.36-29.89-5.81-59.82-11.38-89.74-17.04-1.08-.2-1.96-.41-1.88-1.76Z"/>
      <path class="cls-12" d="M520.96,552.65c1.12-10.97,2.1-21.34,3.27-31.68,1.16-10.17,2.49-20.33,3.8-30.48,1.56-12.12,3.59-24.19,4.66-36.35,1.24-14.18,3.98-28.14,5.44-42.28,1.12-10.83,3.18-21.57,4.88-32.34,2.63-16.64,5.06-33.32,8.06-49.89,3.56-19.66,7.67-39.21,11.48-58.83.94-4.82.75-10.04,5.45-13.32.94-.66,1.74-1.81,3.03-1.13,1.46.76.56,1.96.34,3.06-4.05,19.75-8.36,39.45-12,59.28-3.19,17.38-5.18,34.98-8.54,52.32-2.27,11.7-3.52,23.52-5.5,35.25-2.75,16.27-4.23,32.76-6.34,49.15-1.88,14.58-4,29.12-5.78,43.71-1.56,12.8-2.68,25.65-4.25,38.44-.85,6.88-1.22,13.83-2.88,20.61-.33,1.36-.34,2.76-2.18,2.68-1.76-.07-2.64-.87-2.54-2.86.09-1.96-.28-3.95-.4-5.33Z"/>
      <path class="cls-9" d="M535.98,629.86c3.51-11.84,9.03-22.74,15.49-33.21.95-1.54,1.9-3.07,2.85-4.6,14.65,3.53,29.3,7.05,43.95,10.61.75.18,1.41.69,2.12,1.04-7.85,8.29-13.12,18.26-18.44,28.21-6.29-3.72-13.49-5.11-20.2-7.74-5.52-2.17-11.5-3.13-17.13-5.07-2.44-.84-3.31-.11-4.08,1.87-1.2,3.06-2.45,6.1-3.7,9.14-.03.07-.32.1-.46.06-.15-.04-.26-.2-.39-.3Z"/>
      <path class="cls-8" d="M798.99,307.98c2.15-2.51,4.92-4,8.04-4.94,2,2.5,1.36,5.36,1.1,8.15-1.05,11.3-3.31,22.41-5.7,33.47-6.02,27.84-10.56,55.96-15.99,83.91-.35,1.81-.86,3.55-1.54,5.25-4.2,4.27-8.01,8.85-11.17,13.96.69-8.52,2.79-16.79,4.26-25.18,4.27-24.25,8.61-48.48,13.02-72.7,2.55-13.99,5.31-27.95,7.97-41.92Z"/>
      <path class="cls-50" d="M682.07,537.75c6.01,6.39,13.89,9.44,22.16,10.05,18.32,1.34,36.29,6.03,54.79,5.34,2.77,5.14.18,10.13-.44,15.17-.21.2-.42.41-.63.61-19.18,1.28-37.7-1.56-55.57-8.72-7.2-2.89-13.34-7.16-18.52-12.92-2.59-2.87-2.96-6.02-1.79-9.53Z"/>
      <path class="cls-82" d="M609.31,374.81c.32,5.82-1.16,10.55-3.37,15.06-2.72,5.55-8.66,8.85-14.24,8.06-5.22-.73-9.33-4.99-10.79-11-1.72-7.13-.28-13.85,2.87-20.22,3.37-6.82,9.14-9.93,15.25-8.69,4.62.95,9.56,7.39,10.25,13.5.15,1.31.02,2.66.02,3.29Z"/>
      <path class="cls-42" d="M680.7,400.48c-.02-5.44.96-9.77,2.65-13.92,2.87-7.06,9.15-11.16,15.25-10.13,5.72.97,11.02,7.59,11.35,14.61.3,6.57-1.35,12.67-4.84,18.35-3.25,5.31-7.77,7.51-13.81,6.55-5.11-.81-9.04-5.25-10.25-11.44-.31-1.62-.29-3.3-.35-4.02Z"/>
      <path class="cls-81" d="M779.21,567.09c-1.6,11.64-3.18,23.43-8.65,33.91-5.02,9.61-12.89,16.27-24.54,16.8,5.77-6.8,6.41-15.35,7.91-23.56,1.53-8.4,2.7-16.88,4.03-25.32,0,0,.06.04.06.04,2.04-1.73,4.35-1.79,6.46-.45,2.2,1.39,1.67,3.78,1.38,5.91-.96,7.07-2.43,14.05-3.77,21.07,2.65-7.69,3.62-15.77,5.39-23.67,1.03-4.62,6.49-7.87,10.94-6.33.72.25.92.87.79,1.6Z"/>
      <path class="cls-34" d="M642.67,433.96c-14.6.28-25.22-7.88-28.26-20.59-.73-3.05-1.09-6.48,2.75-7.29,3.5-.74,4.37,2.06,5.1,5.21,1.89,8.15,7.6,12.45,15.66,13.88,7.65,1.35,16.36-2.19,20.29-8.61,1.62-2.65,3.3-5.21,6.47-3,2.8,1.95,1.97,5.17.37,7.62-5.58,8.58-13.84,12.39-22.38,12.78Z"/>
      <path class="cls-59" d="M815.95,445.08c-10.5.41-18.01,10.44-20.8,20.09-1.38,4.76-2.2,9.68-3.29,14.53-2.27,10.09-9.45,16.06-17.76,21.04-1.96,1.18-4.14,1.99-6.21,2.97.08-.5.15-.99.23-1.49,9.48-5.94,15.14-14.33,16.88-25.48,2.05-13.1,6.39-24.98,18.82-32.06,3.46-1.97,7.05-3.52,11.12-3.61,1.34,1.08,2.29,2.27,1.01,4.01Z"/>
      <path class="cls-39" d="M606.5,317.92c2.95.5,6.81.63,9.54,3.84,1.33,1.56,1.62,3.38.64,5.06-1.1,1.88-2.79,1.13-4.38.45-5.88-2.5-11.31-1.49-16.21,2.41-1.98,1.57-3.84,2.88-5.91.41-2.12-2.53-.64-4.9,1.13-6.58,3.97-3.78,8.91-5.53,15.19-5.59Z"/>
      <path class="cls-30" d="M706.04,334.72c7.9,0,15.93,5.53,18.55,12.55.86,2.3,1.17,4.73-1.37,6.15-2.8,1.56-4.25-.38-5.42-2.61-2.85-5.41-7.24-8.58-13.44-8.73-2.57-.06-5.04-.55-5.25-3.27-.22-2.9,2.59-3.43,4.88-3.93.8-.17,1.65-.14,2.05-.17Z"/>
      <path class="cls-60" d="M680.2,510.05c6.49,2.45,13.03,4.73,20.07,4.99,1.5.06,2.66.78,2.63,2.38-.04,1.87-1.41,2.52-3.08,2.48-7.54-.21-14.61-2.04-20.99-6.2.46-1.22.92-2.43,1.38-3.65Z"/>
      <path class="cls-83" d="M680.58,530.02c4.81,1.95,9.76,3.13,14.99,2.9,2.08-.09,4.28.01,4.28,2.86,0,3.03-2.52,2.14-4.09,2.11-4.99-.09-9.83-1.19-14.54-2.82-.21-1.68-.43-3.36-.64-5.04Z"/>
      <path class="cls-56" d="M78.24,548.28c-11.99-9.94-16.01-23.45-17.16-38.26-1.41-18.31,2.96-35.5,10.15-52.14,1.7-3.46,2.1-7.79,6.37-9.55,6.77,1.24,9.85,6.43,12.09,12.03,2.64,6.63,4.74,13.46,4.49,20.79-.07,1.93-.13,3.99.88,5.82.03,9.37.8,18.61,7.26,26.08,1.64,1.9,3.19,5.09,6.86,3.85,1.4-2.36,2.7-.38,4.05.07,3.23,1.77,7.13,2.15,9.9,4.85,8.96,3.78,18.35,4.56,27.93,3.89,4.5-2.69,9.08-.03,13.62-.21,6.49-.15,12.93-.03,19.05,2.57,3.39,1.44,6.56,3.18,8.79,6.26.9,1.73,1.28,3.6,1.51,5.52-.07,2.52-.92,4.68-2.88,6.34-7.84.7-15.67,2.22-23.68.65,2.15,2.51,5.03,2.44,7.86,2.76,5.64.63,11.17-1.47,16.81-.51,3.47,3.57,3.58,7.29.34,12.17-1.18,1.78-2.52,3.42-4.6,4.22-7.03,2.97-14.12,1.93-21.98-.82,3.5,4.91,8.37,5.86,14.77,4.22,2.28-.59,4.18-2.9,6.9-1.68,1.06,1.76.93,3.59.37,5.45-1.84,3.89-5.66,5.01-9.17,6.57-9.88,2.34-19.7,1.44-29.48-.71-7.92-1.74-15.68-4.12-23.52-6.2-13.33-3.28-26.03-8.17-37.94-15.05-3.88-2.24-7.96-4.3-9.56-8.97Z"/>
      <path class="cls-84" d="M112.18,517.91c-.97-.43-1.52-2.12-3.01-1.01-7.55-8.19-8.07-18.5-8.51-28.76-.32-7.37-.21-14.8-1.66-22.05-3.18-15.87-12.02-30.52-29.96-34.58-1.6-.36-3.27-.4-4.91-.59.68-.92,1.69-.87,2.69-.98,2.16-.24,6.7.8,1.93-3.44-1.08-.96-.38-2.22.23-3.2,1.37-2.21,1.15-4.36.2-6.65-1.39-3.35-.28-3.59,3.1-3.3,4.75.4,8.87,3.4,13.74,2.76,16.82,7.97,24.82,22.67,30.07,39.45.68,2.19,1.28,4.4,1.91,6.61.78,7.24,1.5,14.47,1.33,21.77,1.69,12.18-1.15,23.42-7.16,33.98Z"/>
      <path class="cls-67" d="M203.2,503c3.84,4.64,4.55,10.47,6.15,15.98,4.91,16.99,9.91,33.96,14.87,50.94-1.59,5.26-7.74,9.08-14.53,9.03-4.4-6.18-6.73-13.3-8.95-20.42-4.4-14.11-8.09-28.43-12.42-42.55-.84-2.73.07-5.62-1.31-8.19,5.46-1.4,11.04-2.37,16.19-4.78Z"/>
      <path class="cls-77" d="M125.1,570.99c8.63,2.13,17.22,4.4,25.89,6.34,9.24,2.06,18.57,2.94,27.95.71,2.9,1.03,4.41,3.3,5.36,6.06-.14,6.44,1.56,12.45,5.45,17.49,2.4,3.11,6.39,3.36,10.16,2.8,5.96-.88,11.77-2.24,16.96-5.53,1.51-.96,3.05-2.16,5.07-1.32.12,1.04.01,2.09-.83,2.75-7.81,6.07-15.96,11.48-26.34,11.6-8.61.1-13.9-3.53-16.35-11.71-1.19-3.98-2.96-5.36-7.22-5.34-13.32.06-26.18-3.46-39.18-5.84-1.94-.35-3.77-1.38-5.84-.98,0,0-.12-.19-.12-.19-2.71-5.48-4.16-11.04-.95-16.86Z"/>
      <path class="cls-11" d="M214.19,393.51c0,10.54-3.55,16.12-10.9,17.72-5.21,1.13-9.58-.57-12.93-4.46-5.33-6.2-6.56-19.66-2.6-26.92,2.41-4.42,5.73-7.91,11.19-7.91,6.01,0,9.83,3.72,12.41,8.64,2.18,4.15,3.19,8.72,2.83,12.94Z"/>
      <path class="cls-64" d="M314.93,632.86c-.34-5.59-2.22-6.64-8.26-5.29-11.34,2.53-22.83,4.97-34.57,5.37-1.09-5.65-.32-11.35-.43-17.02-.02-.9.64-1.45,1.33-1.92,12.05-2.67,24.11-5.33,36.16-8.01,2.24-.5,4.48-1.03,7.38-1.7,0,5.03,0,9.79,0,14.55-.54,4.67-1.08,9.34-1.62,14.02Z"/>
      <path class="cls-66" d="M319.14,378.25c.32,2.99-.07,5.97-1.29,8.73-1.89,4.27-4.56,7.65-9.77,8.13-5.5.51-9.98-1.38-12.84-5.93-4.23-6.73-5.32-14.28-3.7-22.02,1.56-7.48,5.92-11.81,11.41-12.11,4.59-.25,11.56,4.69,13.85,10.03,1.79,4.16,2.6,8.56,2.33,13.16Z"/>
      <path class="cls-26" d="M282.18,406.96c-.19,11.1-9.32,20.98-20.95,21.92-10.79.87-20.33-2.26-26.8-11.75-.74-1.08-1.39-2.26-1.82-3.49-.87-2.48-1.08-5.24,1.56-6.57,2.69-1.37,3.96.85,5.3,2.99,6.33,10.11,19.75,13.13,29.08,6.8,3.7-2.5,5.59-6.05,6.39-10.24.5-2.65,1.06-5.09,4.46-4.7,3.45.39,2.61,3.22,2.79,5.04Z"/>
      <path class="cls-33" d="M221.93,597.55c-6.22,4.25-13.1,6.76-20.49,8.17-8.79,1.69-14.52-1.85-16.31-10.49-.61-2.94-1.67-5.71-3.11-8.31-1.42-2.56-.33-3.22,2.04-3.21,2.93-1.78,5.71-.2,8.53.36,2.68,1.37,3.3,4.1,3.84,6.6.85,3.87,3.05,4.54,6.52,3.83,5.95-1.21,11.1-3.93,15.96-7.49,2.12-1.56,3.71-4.36,7.02-3.86.79,5.39.75,10.55-4.01,14.39Z"/>
      <path class="cls-4" d="M225.94,583.15c-5.22,3.97-10.14,8.36-16.36,10.9-3.42,1.4-7.02,2.4-10.53,2.24-5.1-.23-2.78-5.74-4.83-8.34-.66-.84-.66-2.18-.96-3.3,0-1.76,1.5-1.64,2.57-2.07,3.74-.62,7.25-1.97,10.74-3.4,1.11-.39,2.21-.92,3.45-.49,5.02-2.46,11.04-3.31,14.19-8.78,1.56,4.28,1.15,8.82,1.73,13.24Z"/>
      <path class="cls-65" d="M203.2,503c-4.34,4.92-10.13,5.3-16.09,5.17-.62.52-1.33.58-2.09.39-1.84-5.54-4.79-10.56-7.45-15.72-1.07-2.07-2.29-3.98-4.8-4.63-1.05-.27-2.61-.37-2.59-1.81.02-1.4,1.55-1.45,2.62-1.72.8-.2,1.58-.45,2.36-.7,3.83-.55,7.08-3.21,11.11-3.01,6.41,6.75,12.18,13.99,16.93,22.02Z"/>
      <path class="cls-37" d="M165.12,526.71c-4.76.65-9.32-1.42-14.07-1,.77-13.07,4.05-25.53,8.77-37.7,1.03-2.65,2.93-3.82,5.05-5.08.86.49,1.22,1.3,1.43,2.21,0,7.58-2.47,14.98-1.71,22.65.26,2.62.06,5.28.58,7.89-.03,3.67,1.79,7.36-.05,11.03Z"/>
      <path class="cls-53" d="M165.24,484.88c-.12-.65-.25-1.3-.37-1.94.38-4.25.66-8.52,1.16-12.75.42-3.57,2.27-6.29,5.9-7.09,3.35-.74,5.81,1.21,7.38,3.87,2.65,4.49,5.78,8.78,6.97,14.01-3.28,2.62-7.17,3.65-11.21,4.3-3.26-.57-6.65,2.25-9.82-.39Z"/>
      <path class="cls-75" d="M172.96,345.95c.08-.23.35-1.54.95-2.68,3.12-5.93,14.36-10.5,20.77-8.54,2.11.64,4.46,1.35,4.36,3.98-.1,2.83-2.77,3.15-4.82,3.26-6.41.34-12.01,2.04-15.87,7.67-.71,1.03-1.86,1.83-3.45.98-1.52-.81-2.2-1.91-1.95-4.67Z"/>
      <path class="cls-41" d="M298.84,318.85c5.77-.04,10.17,1.01,13.62,4.58,1.87,1.94,2.86,4.4,1.06,6.67-1.96,2.47-4.03.88-5.98-.61-4.39-3.36-9.25-2.72-14.21-1.61-1.76.39-4.11,1.88-5.26-.67-1.13-2.49.48-4.49,2.4-5.94,2.74-2.09,5.94-2.78,8.37-2.41Z"/>
      <path class="cls-51" d="M112.18,517.91c-.07-3.6,2.01-6.54,3.05-9.79,2.53-7.88,3.74-15.96,4.11-24.19,2.2,3.88,1.91,8.31,2.22,12.46.63,8.46,2.1,16.89,1.56,25.43-3.65-1.3-7.29-2.61-10.94-3.91Z"/>
      <path class="cls-61" d="M273,614c-2.02,6.23-.42,12.63-.9,18.94-.38.55-.73.34-1.07-.05.03-6.3.07-12.59.1-18.89.62,0,1.24,0,1.87,0Z"/>
      <path class="cls-19" d="M452.32,53.21c22.09-.52,34.85,19.24,25.69,39.81-6.42,14.42-17.41,24.83-29.83,34.01-4.27,3.15-8.47,6.36-13.08,9.02-2.96,1.7-5.75,2.41-8.89.81,0,0-.1.09-.1.09-2.55-1.08-5.03-2.27-6.97-4.34-8.74-6.87-17.58-13.64-24.96-22.05-8.13-9.26-14.88-19.27-15.02-32.19-.18-16.12,16.92-28.91,32.52-24.55,9.19,2.57,11.93,4.53,19.04,13.67,4.55-8.82,12.63-12.25,21.6-14.29Z"/>
      <path class="cls-24" d="M413.64,166.07c1.94.63,3.44,1.86,4.04,3.86.26.87-.6,1.76-1.45,1.42-1.87-.76-4.47-.86-4.76-3.56-.12-1.07,1.05-1.52,2.16-1.72Z"/>
      <path class="cls-24" d="M490.08,22.78c-1.49-.5-2.09-1.37-1.85-2.67.19-1.04.86-1.87,1.99-1.68,1.31.22,1.83,1.24,1.63,2.54-.17,1.1-.97,1.57-1.76,1.81Z"/>
      <path class="cls-24" d="M505.62,32.49c.74.02,1.21.35,1.28,1.12.1,1.03-.03,2.01-1.27,2.19-.66.09-1.26-.25-1.37-1.04-.16-1.12.37-1.84,1.37-2.27Z"/>
      <path class="cls-24" d="M484.81,26.25c-.43.96-1.05,1.72-2.22,1.36-.85-.26-1.55-1.16-.99-1.82.53-.63,1.69-.95,2.59-1,.77-.05.81.79.62,1.47Z"/>
      <path class="cls-24" d="M419.14,132.6c2.54,1.09,4.88,2.52,6.97,4.34-3.24.03-5.5-1.52-6.97-4.34Z"/>
      <path class="cls-13" d="M507.1,663.26c3.31-2.11,6.6-2.28,9.86.11-3.29-.04-6.57-.07-9.86-.11Z"/>
      <path class="cls-57" d="M808.91,303.05c2.81.16,6.21-4.21,8.36,1.08.03.06.31.07.45.02.14-.05.25-.19.37-.3,2.12,4.19,2.04,8.69,1.52,13.13-1.78,15.13-5.14,29.99-7.99,44.94-3.94,20.64-7.91,41.27-11.86,61.91-3.91,2.59-7.83,5.17-11.74,7.76-1.75-2.17-.62-4.48-.23-6.69,5.84-33.91,13.17-67.54,19.43-101.37,1.11-6,3.1-11.97.99-18.18-.27-.79.19-1.62.71-2.31Z"/>
      <path class="cls-20" d="M643.26,755.84c-3.04,0-4.84.07-6.62-.02-1.24-.07-2.41-.69-2.21-2.08.24-1.6,1.68-1.99,3.04-1.71,1.94.39,3.36,1.74,5.78,3.82Z"/>
      <path class="cls-7" d="M815.95,445.08c-.34-1.34-.67-2.68-1.01-4.01,13.74-1.87,22.85,5.06,30.01,15.75.53.8,1.31,1.43,1.98,2.13,5.33,11.7,5.02,23.83,4.36,36.46-1.06,20.37-3.73,40.49-6.43,60.64-.5,3.7-1.88,7.28-2.86,10.91-3.86-3.7-1-7.93-.48-11.67,1.74-12.59,3.81-25.11,4.51-37.83.3-5.42.79-10.88,1.81-16.21.95-5-1.9-8.96-2.96-13.36-.24-.99-3.46-1.55-5.37-1.78-3.34-.4-6.24,2.3-9.92,1.35-1.38-.36-1.42,2.18-1.66,3.65-.72,4.4-.33,9.13-3.53,12.85,4.55-18.59,4.01-36.7-5.18-53.95-.92-1.73-2.17-3.29-3.26-4.92Z"/>
      <path class="cls-23" d="M808.91,303.05c4.34,9.42.17,18.55-1.47,27.56-5.82,31.94-12.25,63.77-18.45,95.64-.35,1.78-.65,3.56-.97,5.34-1.04.74-2.08,1.48-3.13,2.22-1.34-6.26,1.35-12.06,2.43-17.94,5.88-32.04,12.36-63.98,18.39-95.99,1.04-5.5.9-11.22,1.31-16.84.63,0,1.26,0,1.89.01Z"/>
      <path class="cls-48" d="M41.32,441.29c-.34,1.21-1.07,2.12-2.11,2.8-.51-1.18-2.96-1.77-1.52-3.45,1.11-1.29,2.63-.78,3.63.65Z"/>
      <path class="cls-15" d="M125.1,570.99c-.82,5.68.48,11.25.95,16.86-11.88-2.47-23.27-6.28-34.14-11.74-4.36-2.19-7.77-5.6-11.87-8.07-.73-6.58-2.27-13.08-1.8-19.76,9.64,9.39,21.77,14.27,34.12,18.71,4.19,1.51,8.49,2.68,12.74,4.01Z"/>
      <path class="cls-35" d="M95.06,486.97c-2.07-1.92-1.68-4.57-1.93-6.96-.86-8.3-2.81-16.22-6.94-23.57-2.07-3.69-5.1-5.97-8.87-7.49-.55-3.38,1.69-5.19,3.93-7,8.45,6.26,10.17,15.99,12.79,25.18,1.85,6.48.97,13.21,1.02,19.84Z"/>
      <path class="cls-72" d="M81.25,441.95c-.51,2.79-3.02,4.45-3.93,7-2.8,2.45-3.1,6.6-6.08,8.93-.53-6.25-.83-12.52-1.67-18.73-.5-3.66.69-3.66,3.39-2.49,3.06,1.32,5.95,2.86,8.3,5.28Z"/>
      <path class="cls-2" d="M779.21,567.09c-5.16-1.67-9.4.91-10.33,5.8-1.41,7.45-3.11,14.85-4.91,22.22-.35,1.43-.1,4.43-2.53,3.73-2.48-.71-1.33-3.26-.85-5.16,1.49-5.92,2.77-11.88,3.5-17.96.82-6.83.98-6.81-6.07-6.75-.66-5.34,1.34-10.51,1-15.82,7.71-1.46,15.5-2.55,23.02-4.91-.21,6.4-1.67,12.61-2.84,18.86Z"/>
      <path class="cls-46" d="M207.11,579.99c-3.43,2.01-7.11,3.31-11.06,3.82-3.23-.09-5.12-1.79-5.84-4.89-.54-2.31-1.91-4.17-3.25-6.04-.02-1.98-.03-3.96-.05-5.93-.46-.7-.41-1.34.22-1.92,6.8-6.14,7.9-9.52,4.95-15.27-1.15-1.15-2.03-2.4-1.42-4.15.81-1.89,1.62-3.78,2.43-5.67,1.33-.26,1.77.72,2.06,1.65,3.75,11.71,7.35,23.46,11.73,34.96.42,1.1.5,2.27.24,3.44Z"/>
      <path class="cls-43" d="M165.12,526.71c-.7-3.47-1.45-6.93-.92-10.51.4-.8,1.12-1.25,1.93-1.37,5.58-.83,10.88-2.44,15.75-5.35.7-.42,1.59-.36,2.41-.16,4.4,4.1,4.41,10.05,6.15,15.21,1.13,3.35,3.58,6.84,1.5,10.76-5.8-6.65-13.64-8.09-21.86-8.51-1.65-.09-3.31-.04-4.96-.06Z"/>
      <path class="cls-6" d="M191.94,535.28c-2.17-8.66-4.09-17.4-8.18-25.44-.07-1.08.58-1.53,1.52-1.73.61.02,1.21.04,1.82.06,2.21.58,1.69,1.77,1.79,3.77.2,4,1.97,7.94,3.19,11.88,4.66,15.12,8.06,30.62,13.87,45.41,1.26,3.21,3.78,5.87,4.07,9.48-.97.43-1.95.86-2.92,1.29-3.9-9.11-7.28-18.41-10.03-27.95-1.18-4.08-2.65-8.07-4-12.1-.38-1.55-.76-3.11-1.13-4.66Z"/>
      <path class="cls-10" d="M190.65,545.61c.97,1.21,1.8,2.48,1.42,4.16-5.76.44-11.46,1.59-17.29,1.34-3.05-.13-5.86-.88-8.59-2.09-1.09-.48-2.13-1.23-1.58-2.65.43-1.11,1.23-2.09,2.64-1.68,7.35,2.09,14.65,1.88,21.95-.27.33-.1.96.78,1.44,1.21Z"/>
      <path class="cls-49" d="M186.96,572.88c3.36-.36,3.46,2.42,4.06,4.45.85,2.88,1.76,5.55,5.03,6.47-.93.28-1.85.57-2.78.85-3.06-.32-6.12-.63-9.19-.95-2.98-.75-3.38-3.82-5.13-5.67,2.78-1.54,5.81-2.7,8.01-5.15Z"/>
      <path class="cls-55" d="M187.12,565.03c-.07.64-.14,1.28-.22,1.92-5.66,4.99-15.96,5.45-21.53,1.1-1.32-1.03-1.49-2.16-1.01-3.43.58-1.53,1.82-1.78,3.24-1.04,6.3,3.31,12.88,2.73,19.51,1.45Z"/>
      <path class="cls-36" d="M185.28,508.11c-.51.58-1.01,1.15-1.52,1.73-5.92,3.98-12.49,5.93-19.56,6.36-2.29-8.49-1.22-16.97.12-25.45.31-1.96.61-3.91.92-5.87,3.27.13,6.55.26,9.82.39-1.34.41-2.68.83-4.37,1.35,5.99.68,14.95,14.22,14.6,21.49Z"/>
    </g>
  </g>
</svg>