<?xml version="1.0" encoding="UTF-8"?>
<svg id="Layer_2" data-name="Layer 2" xmlns="http://www.w3.org/2000/svg" viewBox="0 0 870.43 769.29">
  <defs>
    <style>
      .cls-1 {
        fill: #f8976d;
      }

      .cls-1, .cls-2, .cls-3, .cls-4, .cls-5, .cls-6, .cls-7, .cls-8, .cls-9, .cls-10, .cls-11, .cls-12, .cls-13, .cls-14, .cls-15, .cls-16, .cls-17, .cls-18, .cls-19, .cls-20, .cls-21, .cls-22, .cls-23, .cls-24, .cls-25, .cls-26, .cls-27, .cls-28, .cls-29, .cls-30, .cls-31, .cls-32, .cls-33, .cls-34, .cls-35, .cls-36, .cls-37, .cls-38, .cls-39, .cls-40, .cls-41, .cls-42, .cls-43, .cls-44, .cls-45, .cls-46, .cls-47, .cls-48, .cls-49, .cls-50, .cls-51, .cls-52, .cls-53, .cls-54, .cls-55, .cls-56, .cls-57, .cls-58, .cls-59, .cls-60, .cls-61, .cls-62, .cls-63, .cls-64, .cls-65, .cls-66, .cls-67, .cls-68, .cls-69, .cls-70, .cls-71, .cls-72, .cls-73, .cls-74, .cls-75, .cls-76, .cls-77, .cls-78, .cls-79, .cls-80, .cls-81, .cls-82, .cls-83, .cls-84, .cls-85, .cls-86, .cls-87, .cls-88, .cls-89, .cls-90, .cls-91, .cls-92, .cls-93, .cls-94, .cls-95, .cls-96, .cls-97, .cls-98, .cls-99, .cls-100 {
        stroke-width: 0px;
      }

      .cls-2 {
        fill: #81cdd8;
      }

      .cls-3 {
        fill: #4e859f;
      }

      .cls-4 {
        fill: #326e8c;
      }

      .cls-5 {
        fill: #fdf8eb;
      }

      .cls-6 {
        fill: #3e778f;
      }

      .cls-7 {
        fill: #fa9b71;
      }

      .cls-8 {
        fill: #93dbe3;
      }

      .cls-9 {
        fill: #fdebc5;
      }

      .cls-10 {
        fill: #d8a76f;
      }

      .cls-11 {
        fill: #73b5c4;
      }

      .cls-12 {
        fill: #52a0aa;
      }

      .cls-13 {
        fill: #fcf1d5;
      }

      .cls-14 {
        fill: #6fb4c4;
      }

      .cls-15 {
        fill: #5595ac;
      }

      .cls-16 {
        fill: #3d678a;
      }

      .cls-17 {
        fill: #0c4958;
      }

      .cls-18 {
        fill: #e3dad6;
      }

      .cls-19 {
        fill: #e3d9d3;
      }

      .cls-20 {
        fill: #559fad;
      }

      .cls-21 {
        fill: #aee7eb;
      }

      .cls-22 {
        fill: #e78a3b;
      }

      .cls-23 {
        fill: #7ec0d0;
      }

      .cls-24 {
        fill: #dcd8bb;
      }

      .cls-25 {
        fill: #ea8d66;
      }

      .cls-26 {
        fill: #fefaee;
      }

      .cls-27 {
        fill: #d7d3b7;
      }

      .cls-28 {
        fill: #406d93;
      }

      .cls-29 {
        fill: #e2d8d2;
      }

      .cls-30 {
        fill: #ce9259;
      }

      .cls-31 {
        fill: #fcf4e7;
      }

      .cls-32 {
        fill: #c35e44;
      }

      .cls-33 {
        fill: #496d64;
      }

      .cls-34 {
        fill: #dbd6b9;
      }

      .cls-35 {
        fill: #6fb7c7;
      }

      .cls-36 {
        fill: #f2e6c6;
      }

      .cls-37 {
        fill: #fefaed;
      }

      .cls-38 {
        fill: #8fd9e2;
      }

      .cls-39 {
        fill: #daa86f;
      }

      .cls-40 {
        fill: #fdebc4;
      }

      .cls-41 {
        fill: #3b6083;
      }

      .cls-42 {
        fill: #486c64;
      }

      .cls-43 {
        fill: #e4d7cf;
      }

      .cls-44 {
        fill: #c6654b;
      }

      .cls-45 {
        fill: #fccc99;
      }

      .cls-46 {
        fill: #e3d8d3;
      }

      .cls-47 {
        fill: #f9c55c;
      }

      .cls-48 {
        fill: #4389ab;
      }

      .cls-49 {
        fill: #91d2da;
      }

      .cls-50 {
        fill: #dcd7bb;
      }

      .cls-51 {
        fill: #6ab1c2;
      }

      .cls-52 {
        fill: #55a0ac;
      }

      .cls-53 {
        fill: #8bd6df;
      }

      .cls-54 {
        fill: #4a7167;
      }

      .cls-55 {
        fill: #fef9ed;
      }

      .cls-56 {
        fill: #e2d8d3;
      }

      .cls-57 {
        fill: #d9d5b8;
      }

      .cls-58 {
        fill: #3d5682;
      }

      .cls-59 {
        fill: #dcd7ba;
      }

      .cls-60 {
        fill: #f7f3ee;
      }

      .cls-61 {
        fill: #476b63;
      }

      .cls-62 {
        fill: #fdfaf1;
      }

      .cls-63 {
        fill: #fce5a6;
      }

      .cls-64 {
        fill: #ce9458;
      }

      .cls-65 {
        fill: #4a90a2;
      }

      .cls-66 {
        fill: #59a5af;
      }

      .cls-67 {
        fill: #6bb2c4;
      }

      .cls-68 {
        fill: #0c0a17;
      }

      .cls-69 {
        fill: #134d59;
      }

      .cls-70 {
        fill: #8ed8e1;
      }

      .cls-71 {
        fill: #e1d8d4;
      }

      .cls-72 {
        fill: #fcf7ec;
      }

      .cls-73 {
        fill: #4d879f;
      }

      .cls-74 {
        fill: #e2e0e2;
      }

      .cls-75 {
        fill: #6bb2c3;
      }

      .cls-76 {
        fill: #f7d9a8;
      }

      .cls-77 {
        fill: #d1f7f6;
      }

      .cls-78 {
        fill: #ca9259;
      }

      .cls-79 {
        fill: #121120;
      }

      .cls-80 {
        fill: #fada8d;
      }

      .cls-81 {
        fill: #f9c45b;
      }

      .cls-82 {
        fill: #90dae2;
      }

      .cls-83 {
        fill: #d7d2b6;
      }

      .cls-84 {
        fill: #f69d71;
      }

      .cls-85 {
        fill: #3e5c58;
      }

      .cls-86 {
        fill: #dad6b9;
      }

      .cls-87 {
        fill: #ddd6ba;
      }

      .cls-88 {
        fill: #fdbd89;
      }

      .cls-89 {
        fill: #f0bf7d;
      }

      .cls-90 {
        fill: #fdf7ec;
      }

      .cls-91 {
        fill: #f0bf7c;
      }

      .cls-92 {
        fill: #fbb784;
      }

      .cls-93 {
        fill: #f7b68f;
      }

      .cls-94 {
        fill: #3a597c;
      }

      .cls-95 {
        fill: #559eab;
      }

      .cls-96 {
        fill: #5797af;
      }

      .cls-97 {
        fill: #4fa8c2;
      }

      .cls-98 {
        fill: #f0c07d;
      }

      .cls-99 {
        fill: #f2aa7a;
      }

      .cls-100 {
        fill: #a6ebee;
      }
    </style>
  </defs>
  <g id="_Ñëîé_1" data-name="Ñëîé 1">
    <g>
      <path class="cls-58" d="M485.5,162.52c4.65-5.85,9.55-11.46,15.43-16.12,1.98-.15,3.78-1.2,5.8-1.18,2.11.01,4.74-.79,5.97,1.26,1.22,2.03-1.26,3.42-2.18,5.06-9.73,9.58-19.32,19.22-25.1,31.95-6.64,14.6-11.38,29.81-14.86,45.43-4.2,18.83-7.67,37.78-9.95,56.95-.34,2.82-.08,5.66-.38,8.46-.18,1.62.34,3.89-2.4,4.09-.18-.26-.39-.59-.32-.9.15-.65-.03-1.03.09-.39,1.59,8.51.09,17.12.95,25.65.01.14.2.25.33.38,2.23,3.38,1.62,7.38,2.38,11.08,2.32,11.34,5.43,22.3,12.96,31.47,13.49,16.34,31.16,26.17,50.84,33.01,27.36,9.51,55.72,14.29,84.29,18.13,15.66,2.1,31.41,3.15,47.17,4.2,21.81,1.46,43.61,1.43,65.31-.39,22.05-1.85,44.05-4.88,63.76-16.48,9.25-5.45,15.99-13.44,22.9-21.31,2.24-1.83,3.98-4.12,4.87-6.81,2.06-6.23,7.07-8.36,12.73-8.65,6.21-.32,11.29-2.39,15.57-6.75.93-.95,1.89-1.9,3.29-2.12,1.01-.16,2.09-.15,2.72.77.77,1.12-.28,1.82-.9,2.51-3.86,4.32-8.62,7.62-14.15,8.84-6.35,1.41-10.41,4.65-12.59,10.66-.79,2.17-2.09,4.15-3.1,6.25-5.42,8.42-11.88,15.86-19.94,21.9-14.57,10.93-31.38,15.97-49.01,18.91-2.89.48-5.8.82-9.56,1.34,5.22,3.98,10.04,7.4,14.34,11.44,4.5,4.24,8.85,8.63,12.14,13.83,1.74,2.75,3.92,3.81,6.84,3.96,7.93.4,14.3,3.88,19.33,9.86,3.27,3.88,7.55,6.48,11.5,9.49,10.22,7.79,17.28,17.77,21.29,29.92.58,1.76.9,3.4,3.2,3.84,8.94,1.71,13.36,7.68,15.33,16.16,2.95,12.63,5.24,25.27,4.68,38.37-.63,14.6-6.26,25.54-20.64,30.7-1.3.47-1.86,1.36-2.35,2.35-7.75,15.5-21.71,21.74-37.56,24.61-18.81,3.4-37.61,2.94-56.22-1.86-1.25-.32-2.63-.15-3.95-.22-10.28-.54-10.39-.54-10.49,10-.24,23.68,4.03,46.76,9.48,69.67,2.76,11.57,5.48,23.14,6.29,35.06.22,5.85-2.98,9.58-7.71,12.3-8.37,4.82-17.54,7-27.05,7.85-14.24,1.27-28.49,2.04-42.67-.63-3.6-.68-7.12-1.67-10.52-3.02-10.5-4.18-14.23-12.85-10.09-23.44.6-1.55,1.41-3.01,2.14-4.5,3.99-7.83,10.22-13.5,17.7-17.81,3.38-1.95,4.27-4.19,3.68-8.15-2.93-19.73-5.78-39.5-5.67-59.53.02-3.66-.17-7.32-.91-10.91-4.37-1.19-8.86-.24-13.31-.88-8.32-1.2-16.77-1.41-25.12-2.47-1.51-.19-2.96.26-4.41.61-9.6.15-10.16.11-10.82,10.19-1.25,18.91-.79,37.82,2.01,56.63,1.61,10.83,3.59,21.62,3.91,32.6-.96,11.85-8.86,17.35-19.23,19.16-22.95,3.99-46.01,4.64-68.95-.56-2.45-.56-4.75-1.52-6.96-2.7-4.6-2.46-8.33-5.49-7.72-11.46.16-16.93,9.23-28.98,26.31-34.93,9.62-3.35,9.32-3.31,8.02-13.26-.85-6.54-1.62-13.15-1.22-19.8.79-5.42.27-10.88.33-16.32.12-10.39-.22-20.8.87-31.17.19-1.79.45-3.62-.21-5.39.95-4.67-.98-7.67-4.62-10.77-11.05-9.4-16.11-22.04-17.62-36.2-3.07-28.66,2.28-56.46,8.82-84.53-12.41,1.44-24.58-.77-36.79-2.48-.76.28-1.06-.21-1.33-.76-13.23-2.52-25.42-8.05-37.8-13.02-.93-.29-1.78-.73-2.51-1.38-2.01-2.13-4.93-3.51-5.53-6.81-.32-1.8-1.01-3.73.85-5.03,2.25-1.57,4.1-.02,5.86,1.19,1.86,1.28,2.85,2.82.4,5.07,2.41-.74,4.17-2.47,6.46-1.4.43.16.84.37,1.24.6,2.99,1.95,6.09,3.61,9.78,3.76,1,.04,1.77.51,2.42,1.22,3.91,3.07,9,3.68,13.22,6.49,2.18,1.45,6.72,1.48,10.1,1.73,10.02.75,20.08,1.81,30.17.94,2.22-.19,4.85.5,5.71-2.64,3.59-11.55,7.62-22.94,12.71-34.87-9.84.95-18.9,2.2-27.92.26-6.21-1.1-12.48-1.95-18.4-4.29-2.12-.79-4.36-1.19-6.49-1.96-6.97-3.04-13.63-6.65-19.98-10.84-1.4-.92-2.71-1.89-3.38-3.49q-2.63-5.84,5.52-8.28c4.4,1.17,7.27,4.99,11.4,6.63,3.08,1.27,5.83,3.24,9.08,4.13,17.57,6.78,35.38,10.31,55.14,4.02-20.45-5.55-38.97-12.69-55.52-24.24-2.75-1.94-5.37-4.06-7.93-6.25-8.37-6.8-15.06-14.93-19.65-24.74-4.44-8.4-6.93-17.4-8.16-26.78.57-8.57-4.13-14.6-8.96-21.11-9.37-12.63-12.2-27.71-11.62-43.03.6-15.53,3.95-30.65,12.16-44.29,2.33-3.86,4.89-7.52,7.77-10.97,2.84-2.85,5.74-5.64,9.22-7.73,5.84-1.36,8.47-5.35,9.85-10.95,1.94-7.87,5.45-15.21,8.92-22.52,3.24-3.6,4.02-9.1,8.82-11.5Z"/>
      <path class="cls-64" d="M442.86,459.6c.57.28,1.14.55,1.71.83,1.22,1.12,4.57.67,2.9,3.93-2.28,1.82-5,1.54-7.61,1.5-13.71-.23-27.43.15-41.14.03-64.27,1.97-128.55.78-192.82,1.02-51.12.19-102.24.46-153.35-.3-12.05-.18-20.1,4.96-28.15,12.03-1.47,1.29-2.5,3.17-4.78,3.54,6.76,2.57,13.69,3.54,20.84,3.5,18.49-.08,36.98.28,55.46-.08,106.06-2.07,212.13-.4,318.19-.94,2.5-.01,5-.08,7.48.14,9.98.05,19.99-.34,29.95.14,9.19.45,16.72-1.97,22.57-9.18.73-.9,1.51-1.78,2.45-2.48,2.12-.23,4.17-.1,5.97,1.23.44.28.88.56,1.32.84-4.99,13.66-11.85,18.52-27.08,18.92-35.92.94-71.85,1.17-107.79,1.17-54.44,0-108.89.18-163.33.24-34.75.04-69.5-.06-104.24,0-12.58.02-25.16.45-37.75.39-6.12-.03-12.35-.18-18.34-1.28-15.91-2.9-24.25-13.25-24.32-29.77-.12-30.31.01-60.63-.11-90.94-.06-16.2-.6-32.39-.63-48.59-.07-27.83.13-55.66.13-83.49,0-16.11-.17-32.22-.2-48.33-.08-42.19-.4-84.39,0-126.57.12-13.21.3-26.47,1.57-39.71C3.28,11.69,14.33,3.22,29.33,1.44c21.56-2.56,43.24-.9,64.87-.99,30.42-.13,60.85.63,91.27.66,43.42.03,86.86-.88,130.27-.25,45.3.65,90.58.28,135.87.54,5.84.03,11.62.86,17.29,2.12,8.24,1.84,15.04,10.94,16.27,20.67,1.54,12.25.18,24.51.42,36.76.64,33.08-.26,66.16-.66,99.24,0,.77.38,1.55.58,2.33-2.59,3.87-5.18,7.73-7.77,11.6-2.77-1.52-2.28-4.25-2.3-6.65-.13-18.64.05-37.29.62-55.92.59-19.31.19-38.61.05-57.92-.05-6.82-.05-13.64.04-20.46.07-5.06-.88-9.95-3.6-14.34-1.51-2.44-3.08-3.18-5.43-.63-5.02,5.45-7.87,11.26-7.82,19.16.31,53.78.17,107.56.15,161.34,0,3.3.4,6.69-1.39,9.76-2.69,2.28-5.39,4.56-8.08,6.84-1.92-1.83-1.7-4.25-1.7-6.54,0-51.71-.16-103.42.05-155.13.05-5.9,1.22-12.07-4.08-16.67-2.79-1.61-5.85-1.13-8.81-1.13-80.38-.02-160.76-.02-241.15-.02-2.99,0-5.99.14-8.98-.23-2.08-.71-4.23-.77-6.4-.77-41.41-.11-82.82.37-124.24.22-1.83,0-3.67-.02-5.47.34-4.9.97-7.18,3.52-7.49,8.53-.37,5.97.34,11.98-.49,17.94-1.46,5.04-.64,10.21-.75,15.32.15,1.53.14,3.06,0,4.59-.04,5.01-.24,10.02.15,15.03.03,35.19.17,70.39-.03,105.58-.29,2.66-.16,5.33-.16,7.99,0,62.79,0,125.59-.01,188.38,0,3,.13,6-.2,8.98-1.69,8-.41,16.09-.79,24.13.02,1.23.25,2.47.06,3.7-.06,3.71-.27,7.42.17,11.12,1.07,7.85,2.87,9.88,9.75,9.94,65.84.55,131.68.29,197.52.15,21.3-.32,42.62.43,63.91-.34,39.1-1.41,78.2-.43,117.3-.77,2.16-.02,4.32.17,6.48.02,3.69-.68,5.61,2.37,8.23,3.94Z"/>
      <path class="cls-74" d="M636.6,726.17c-6.82,16.15-3.23,24.3,13.92,27.86,22.79,4.73,45.6,4.44,67.89-3.51,6.69-2.39,11.17-6.8,13.25-13.61,1.34-1.66,1.84-3.97.86-7.96-.77-3.13-.42-3.39,2.96-3.16,7.73.53,15.49,1.15,23.23,1.37,20.71.57,41.19,3.38,61.51,6.93,7.63,1.34,15.58,3.17,22.62,7.14,1.58.89,3.72,1.52,3.38,3.76-.34,2.24-2.1,3.28-4.23,4.36-14.89,7.55-31.32,7.55-47.24,9.81-17.35,2.47-34.84,3.72-52.31,5.24-20.96,1.83-41.92,3.16-62.95,4.09-29.79,1.31-59.55.67-89.32.53-12.56-.06-25.22.09-37.73-.95-19.11-1.59-38.28-2.5-57.37-4.54-14.13-1.51-28.27-3.03-42.43-4.32-14.66-1.33-29.01-4.33-43.06-8.74-1.73-.54-3.38-1.45-4.92-2.42-3.68-2.33-3.37-4.49.35-6.89,7.62-4.91,16.4-5.86,24.89-7.97,12.89-3.2,26.08-4.36,39.2-5.59,7.74-.72,15.49-1.31,23.2-2.36,4.34-.59,7.96-.51,6.66,5.57-.02.09.14.23.21.34.26-.32.52-.64.78-.95,2.12,8.55,8.9,11.31,16.4,13.08,17.34,4.1,34.91,3.55,52.47,2.32,5.1-.36,10.17-1.33,15.21-2.27,9.72-1.82,16.31-6.96,17.69-17.35.82-2.83,2.58-3.99,5.64-4.21,7.75-.56,15.52.39,23.27-.75,3.33-.49,6.42.62,5.96,5.16Z"/>
      <path class="cls-58" d="M510.07,150.81c.67-1.27,1.34-2.54,2.07-3.92-3.68-1.92-7.57,1.17-11.2-.5,6.05-3.85,6.66-10.44,7.62-16.47,2.43-15.2,5.11-30.35,8.11-45.45.59-2.97-.88-4.49-2.69-6.32-8.09-8.16-6.85-23.79,2.3-30.5,8.71-6.38,21.02-2.18,24.05,8.21,3.09,10.59-.52,20.53-10.06,26.1-3.56,2.08-3.1,5.2-3.54,8.16-1.97,13.22-3.83,26.46-5.7,39.7-.11.79.08,1.62.17,2.99,20.73-9.58,42.4-13.58,64.75-14.32,2.93.81,5.92.37,8.87.35,14.05-.12,28.09.1,42.11,1,1.63.1,3.31.28,4.92-.28,19.06,1.04,37.93,3.56,56.75,6.68,23.52,3.9,46.78,8.83,69.25,16.96,18.49,6.68,36.14,14.88,50.25,29.16,4.29,4.35,7.94,9.23,12.1,14.61,2.61-15.95,5.09-31.21,7.59-46.46,1.18-7.19,2.28-14.39,3.64-21.54.7-3.67.44-6.27-3.03-8.87-6.71-5.02-8.43-15.69-4.79-24.64,3.2-7.88,9.8-11.93,18.51-11.18,5.09.44,9.09,2.89,11.94,7.15,6.65,9.93,3.57,24.04-7.2,30.94-2.67,1.71-3.43,3.7-3.86,6.33-4.18,25.65-8.34,51.3-12.54,76.94-.8,4.9-.77,9.44.92,14.41,3.71,10.88,4.94,22.3,4.52,33.82-.09,2.39.44,4.09,2.54,5.42,13.58,8.58,19.68,21.8,21.3,36.99,2.29,21.5-.98,42.31-11.29,61.56-6.47,12.08-15.47,21.48-29.54,24.69-3.31.76-5.24,3.21-6.69,6.19-1.5,3.08-2.61,6.42-5.26,8.83,2.73-8.35,5.69-15.97,16.24-17.78,5.56-.96,10.4-4.84,14.28-9.93-2.32-.9-3.36.01-4.72,1.49-4.34,4.7-9.5,7.22-16.31,7.29-4.9.05-10.02,1.63-11.83,7.75-.8,2.72-2.12,5.59-5.22,6.8-.74-2.76,1.21-4.65,2.22-6.84.61-1.33,1.76-2.79-.54-3.59-13.46-4.7-19.35-15.64-23.32-28.19-5.38-28.37-2.14-55.48,11.86-81.01,4.73-7.69,9.94-14.97,18.03-19.56,2.09-1.19,2.89-3.1,3.24-5.32,1.62-10.34,3.48-20.64,4.93-31,.6-4.3-.84-8.24-3-11.86-7.94-13.3-18.9-23.48-32.54-30.75-11.76-6.26-23.91-11.6-36.9-14.86-13.75-4.59-27.9-7.54-42.09-10.34-12.26-1.78-24.4-4.35-36.69-5.97-4.57-.14-9.13-.32-13.44-2.02-.6-.39-.22-1.61-.59-1.62-15.04-.4-29.95-3.38-45.06-2.42-.84.05-1.61.38-2.43.54-5.79.83-11.62.29-17.43.43-20.21.5-40.1,2.87-59.26,9.74-7.39,2.65-14.45,5.92-20.93,10.38-1.61,1.11-3.18,2.53-5.43,1.88Z"/>
      <path class="cls-68" d="M641.85,119.57c-5.3,1.87-10.87,1.17-16.12.57-11.55-1.34-23.08-.31-34.6-.79-1.75-.07-3.66.64-5.19-.85,18.65-.53,37.29-.34,55.91,1.07Z"/>
      <path class="cls-61" d="M534.07,609.33c1.77,3.47,1.09,7.26.65,10.73-1.57,12.29-.38,24.59-.82,36.88-.06,1.77.58,3.69-.82,5.27-.46-17.64-.82-35.28.99-52.87Z"/>
      <path class="cls-61" d="M436.14,456.42c-3.84,1.56-7.86.74-11.78.77-32.75.2-65.5-.05-98.25.47-26.41.42-52.82.66-79.23.47-3.09-1.28-6.27-.28-9.39-.29-56.82-.07-113.65-.05-170.47-.05-7.9,0-13.49-4.55-15.36-12.39-1.41-5.9-1.35-11.92-1.33-17.91.2-55.97.07-111.95.18-167.92.04-22.14-.18-44.29.4-66.43,1.04-39.8.16-79.6.54-119.41.04-4.51.5-8.97.86-13.45.56-7.04,4.79-10.71,10.89-12.81,3.81-1.31,7.82-1.94,11.83-1.55,9.64.93,19.25.72,28.92.4,19.62-.66,39.25.98,58.88.47,20.64-.54,41.27.31,61.92-.49,14.27-.55,28.6.04,42.91.28,21.64.37,43.3.24,64.95.04,15.12-.14,30.25-.87,45.41,0,10.45.59,20.96-.9,31.44-.33,11.12.61,22.24-.37,33.36.43,3.87.28,6.28,1.66,6.89,5.61.07,43.03.13,86.05.2,129.08.02,11.3.04,22.59.06,33.89-13.9,17.26-20.09,37.34-19.8,59.13.2,15.05,2.93,30.25,13.93,41.48,5.64,5.75,5.52,12.06,6.65,18.63-.9,3.51.34,6.92.46,10.38.42,12.64.75,25.28-.17,37.91-.99,2.45-2.34,2-3.56.27-1.18-1.67-1.35-3.73-1.74-5.68-2.05-10.18-4.92-20.05-11.02-28.68-6.5-9.19-15.28-14.42-26.63-13.84-4.42.23-6.65-1.38-8.9-4.69-8.21-12.13-17.12-23.83-24.42-36.51-8.19-14.25-20.63-23.75-33.79-32.61-4.55-3.06-9.1-6.15-13.72-9.12-1.12-.72-2.16-1.58-3.39-2.1-2.73-1.15-5.54-3.01-8.47-.98-3.02,2.09-2.92,5.29-2.39,8.58,2.47,15.34,6.84,30.17,12.02,44.77,1.96,5.51,5.58,10.24,8.9,15,11.17,15.96,21.47,32.51,32.68,48.44,1.9,2.7,2.32,4.79-.75,7.16-13.57,10.48-14.62,32.56-2.38,44.63,8.52,8.41,19.19,11.35,30.56,11.34,7.81,0,13.71,2.41,18.97,8.04,5.7,6.1,12.63,10.8,19.65,15.31,1.58,1.02,3.84,1.62,3.49,4.27Z"/>
      <path class="cls-37" d="M660.91,131.07c4.65.52,9.29,1.05,13.94,1.57-.88,2.53-3.11,1.92-4.94,2.02-2.64.15-5.2-.89-7.83-.81-2.22.06-5.44-.94-4.28,3.57.44,1.69-1.41,1.88-2.65,2.26-9.32.69-18.62-.39-27.83-1.12-11.36-.9-22.56.31-33.79.68-12.57.41-25.13,2.24-37.42,5.38-2.91.74-5.73,1.66-8.5,2.77-9.13,2.83-17.43,7.26-25.2,12.82-6.25,4.46-11,10.07-14.22,17.01-.66.98-1.4,1.92-2.36,2.57-9.34,6.28-13.94,15.77-17.92,25.82-10.8,27.32-16.78,55.69-19.72,84.86-1.28,12.71-.81,25.3.35,37.88,1.51,16.34,9.87,29.02,22.55,39.13,12.83,10.23,27.98,15.24,43.44,19.51,23.2,6.42,47.11,8.71,70.87,11.9,18.97,2.54,38.05,4.55,57.16,4.65,18.29.1,36.61-1.27,53.87-8.6,14.99-6.36,24.92-17.41,30.6-32.47,6.97-18.49,11.1-37.66,13.42-57.25,2.08-17.53,3.3-35.1,3.06-52.79-.15-11.33-2.27-22.27-6.13-32.74-3.21-8.7-10.62-14.3-17.74-19.85-4.53-3.46-9.84-5.45-15.05-7.52-4.15-1.64-5.14-4.16-3.79-8.15,3.93-11.61,9.9-21.65,21.05-27.78,2.87-1.43,5.23-3.75,8.32-4.83.51-.14,1.03-.19,1.56-.18,7.21.37,12.99,4.19,18.37,8.33,12.62,9.69,21.22,22.28,25.94,37.56,6.71,21.7,7.24,43.8,4.84,66.15-5.65,10.9-10.02,22.26-12.09,34.4-2.55,14.93-3.34,29.88-.08,44.83.18.81.19,1.65.28,2.47-1.84,19.29-10.92,34.68-25.7,46.79-12.1,9.91-26.18,15.54-41.48,18.62-14.26,2.87-28.67,4.43-43.11,4.59-18.62.21-37.21-.9-55.72-3.59-28.01-4.07-55.94-8.45-83.56-14.74-21.91-4.99-41.85-14.25-60.05-27.35-1.35-.97-3.01-1.8-3.74-3.25-1.16-2.32-1.75.59-2.6.09-8.87-11.24-12.33-24.47-14.08-38.34-.2-1.6.23-3.35-.9-4.78-1.17-8.25-.89-16.52-.13-24.78,1.34-10.81,2.23-21.7,4.09-32.42,5.14-29.64,10.26-59.32,23.95-86.64,5.46-10.89,14.2-19.06,22.31-27.77.39-.42,1.16-.49,1.76-.73,27.48-19.53,59.04-23.11,91.44-23.4,3.81-.03,7.63-.11,11.44-.17,11.25-1.26,22.4.34,33.55,1.41,4.84.47,9.91-.16,14.41,2.42Z"/>
      <path class="cls-55" d="M679.82,466.1c-12.76,1.69-25.59,2.99-38.26,5.2-10.32,1.8-14.6,7.69-14.75,18.02-.24,17.34-.51,34.68-.77,52.02.81,12.21.18,24.44.32,36.66.06,4.76.03,9.51.67,14.23.24,1.82.83,3.5,1.88,5.02.05.84-.52,1.42-1.12.95-4.7-3.6-10.16-2.51-15.38-2.48-23.43.14-45.86-4.55-67.38-13.7-6.92-2.94-13.29-6.85-18.81-12.01-1.24-1.16-2.64-2-4.09-2.8-3.2-15.28-2.35-30.55-.48-45.93,3.38-27.91,10.99-54.65,21.23-80.72,1.14-2.9,2.55-5.69,3.83-8.53,2.65-.73,4.17,1.92,6.5,2.15,21.29,8.67,43.69,12.18,66.36,14.72,12.86,1.44,25.71,2.88,38.59,4.07,2.8.26,5.61.6,8.28,1.61.74.4,1.31,1,1.66,1.74,2.09,4.42,4.39,8.51,10.31,8.14.76-.05,1.48.64,1.4,1.66Z"/>
      <path class="cls-58" d="M436.14,456.42c-5.95-5.01-13.12-8.37-18.76-13.82-1.31-1.26-2.98-2.19-4.12-3.58-5.32-6.45-11.71-9.03-20.4-9.02-14.13,0-26.81-4.72-35-17.4-6.95-10.76-4.75-30.31,3.83-38.65,1.79-1.74,5.92-1.55,5.38-4.83-.36-2.22-2.67-4.09-4.05-6.16-11.34-17-22.55-34.09-34.04-50.98-7.97-11.73-10.26-25.43-13.97-38.63-1.61-5.72-2.6-11.62-3.7-17.47-1.26-6.74,3.93-11.31,10.12-8.43,10.25,4.77,18.92,12.19,28.45,18.17,14.64,9.18,23.35,23.24,32.35,37.23,6.37,9.91,13.23,19.5,19.89,29.22.72,1.06,1.27,2.03,3.13,1.68,14.49-2.74,29.13,7.68,35.53,22.52,3.3,7.65,5.42,15.65,6.96,23.82.31,1.64.37,3.35,2.07,4.3,3.18,2.66,4.88,6.52,7.71,9.46,2.23,3.08,6.31,4.59,7.42,8.64-.52.36-.99.84-1.56,1.07q-4.49,1.87-3.57,5.81c-3.16-.04-4.81-2.49-6.89-4.27-2.25-2.87-5.77-4.81-6.45-8.82-.13-1.05,3.26-1.31.59-3.01-2.18-1.38-2.83-3.81-3.84-6.08-.88-1.99-.53-6.44-5.21-4.05-.45.23-.96-1.15-1.19-1.93-.94-8.56-3.53-16.57-7.94-24-3.61-6.1-8.53-10.6-15.34-12.83-1.91-.63-3.91-.79-5.93-.69-4.76.24-8.68,3.07-9.43,6.79-.7,3.47,1.69,7.26,5.98,9.43,1.79.91,3.67,1.65,5.67,1.89,10.25,1.19,17.45,6.88,22.75,15.35,1.33,2.12,2.77,4.15,4.16,6.22.74,1.31,1.3,2.73,1.01,4.22-.59,3.11,1.47,3.47,3.66,3.8,4.11,5.7,7.77,11.55,7.84,18.96.12,11.38-6.74,21.32-17.51,25.25-1.36.5-2.98.37-4.39,1.82,6.54,4.4,12.97,8.71,19.72,12.54,1.69.96,3.76,1.57,4.15,3.92-2.04.3-4.21-.21-5.88,1.83-.88,1.08-2.52.84-3.35-.64-.8-1.44.35-1.59,1.35-1.83.98-.24,1.57-.96.64-1.7-1.53-1.22-2.99-2.82-5.13-2.84-1.15-.01-1.88,1.01-1.52,2.08.71,2.13.4,4.77,2.86,6.1,1.16.63,2.42,1.2,2.68,2.74-2.24-1.06-4.48-2.12-6.72-3.18Z"/>
      <path class="cls-7" d="M731.62,482.51c7.65,14.19,11.55,28.95,6.26,44.89-3.87,11.66-10.15,15.66-22.51,15.05-3.33-.17-6.67.32-9.76,1.46-5.67,2.1-10.61,5.53-11.61,11.87-1.17,7.43,2.3,13.43,8.36,17.45,3.16,2.1,3.3,3.3,1.1,6.2-4.1,5.42-7.99,11.08-9.5,17.89-.37,1.67-1.26,2.21-2.69,2.32-2.48.18-4.97.29-7.45.43-2.77-.52-5.54-.37-8.32-.03-7.04.86-7.04.84-8.71-6-1.3-6.01.7-11.92.58-17.9-.52-24.63,1.26-49.23,1.04-73.86-.06-6.61.93-7.72,7.45-9.01,17.14-3.4,34.1-7.62,51.34-10.55,1.47-.25,2.91-.78,4.42-.2Z"/>
      <path class="cls-29" d="M473.08,366.26c2.06-2.19-1.95-2.66-1.04-5.07,5.72,5.81,12.38,9.97,19,14.23,19.02,12.23,40.14,18.69,62.11,22.87,13.48,2.56,26.87,5.8,40.46,7.58,16.7,2.19,33.34,4.8,50.1,6.66,11.59,1.28,23.16.69,34.71,1.29,10.64.55,21.53-.91,32.09-2.72,12.03-2.06,24.19-4.03,35.34-9.72,17.65-9.01,31.32-21.59,38.35-40.62,1.9-5.15,2.25-10.75,4.83-15.66,2.28,5.65,4.38,11.35,8.2,16.25,4.56,5.83,10.19,9.83,17.96,11.02-2.06,3.85-3.92,7.32-5.78,10.79-7.88,11.27-17.62,20.4-30.26,26.12-21.75,9.85-45,12.41-68.43,13.46-52.21,2.34-103.87-2.4-154.87-13.74-22.39-4.98-44.32-11.59-63.54-24.84-7.27-5.01-13.89-10.8-19.23-17.91Z"/>
      <path class="cls-91" d="M458.07,208.45c-.05-34.58-.11-69.15-.14-103.73-.02-23.82.12-47.63-.11-71.45-.05-4.94,1.78-8.63,4.8-12.09.88-1,1.94-1.86,2.73-2.92,4.5-6.04,5.54-6.05,9.21.51,2.31,4.12,3.24,8.76,3.26,13.41.11,23.29.17,46.59.01,69.88-.15,21.73-.61,43.46-.9,65.18-.03,2.3-.38,4.68.8,6.86-4.07,9.8-8.31,19.52-11.13,29.81-1.04,3.79-5.72,2.91-8.54,4.53Z"/>
      <path class="cls-55" d="M703.88,596.26c2.28-7.11,7.14-12.59,11.58-18.33.98-1.26,2.38-2.28,3.08-3.67,1.5-2.99,1.5-5.33-3-5.03-5.08.33-8.9-2.22-11.97-5.94-3.17-3.83-2.41-7.91,1.85-10.54,3.05-1.87,6.5-2.67,10.01-2.32,20.73,2.02,30.99-15.36,32.53-31.22.38-3.97.65-7.95.06-11.92,1.03-1.17,2.31-2,3.85-2.13,6.81-.59,13.62-.94,20.36.61,1.51.35,2.82,1.01,3.54,2.49,1.69,15.37,1.35,30.69-1.04,45.97-3.28-1.12-1.91-3.75-1.77-5.84.79-11.24,2.64-22.46.53-33.75-.18-.94-.15-1.93-1.15-2.74-.08,7.04-.32,14.03-.86,21.03-.89,11.44-2.58,22.76-8.93,32.32-10.65,16.01-23.13,30.18-43.91,33.02-4.5.62-8.94.55-13.36-.54-.75-.19-1.72-.23-1.41-1.47Z"/>
      <path class="cls-14" d="M666.85,455.47c-25.53-2.59-51.11-4.81-76.43-9.13-13.21-2.25-26.15-5.81-38.51-11.16-.99-.44-1.84-1.36-1.5-2.27,1.77-4.78,3.05-9.76,5.38-14.33,27,5.63,54.23,9.58,81.72,11.95,20.74,1.79,41.5,2.01,62.28,1.95.38,2.35-2.3,21.85-3.23,23.45-9.93,1.4-19.86,2.2-29.72-.46Z"/>
      <path class="cls-20" d="M795.01,496.17c0-4.62-.96-9.24-.08-14.71,8.23,6.3,14.68,13.31,18.85,22.33,5.66,12.27,7.93,25.38,8.94,38.66,1.12,14.73,1.31,29.51-2.7,43.98-4.23,15.29-14.5,24.06-29.57,27.89-12.72,3.23-25.63,3.54-38.62,2.74-1.41-.09-2.79-.57-5.03-1.05,8.42-4.18,14.94-9.39,20.13-16.28,2.21-2.94,5.51-4.03,9.16-4.42,14.27-1.55,18.83-6.66,18.87-20.98.03-11.65.02-23.31.03-34.96,2.69-2.4,6.05-1.12,9.09-1.57,9.54-1.41,10.53-2.57,8.21-11.9-2.21-8.9-5.27-17.48-11.21-24.72-1.7-2.07-3.44-4.06-6.06-4.99Z"/>
      <path class="cls-56" d="M522.14,567.21c1.03-1.07,1.53-2.08,3.32-.22,12.63,13.18,29.37,17.88,46.31,22.38,16.87,4.48,34,5.38,51.26,4.76,3.13-.11,3.2,3.59,5.9,3.12,7.61,10.06,18.2,13.56,30.24,13.01,9.62-.44,19.23-1.44,28.79-2.6,3.9-.47,6.96-.7,8.99,3.54.93,1.94,3.04,3.32,4.79,5.15-15.97,2.93-31.89,4.7-48.1,3.59-28.83-1.98-57.55-4.62-85.64-11.81-17.24-4.41-32.4-11.97-41.52-28.34-2.2-3.94-3.81-8.06-4.32-12.57Z"/>
      <path class="cls-7" d="M634.08,569.34c.06-19.31.12-38.63.21-57.94,0-.8.3-1.6.46-2.41,1.2,1.46.45,3.13.68,5.4-.08-6.37.11-12.07-.06-17.75-.1-3.29,1.16-4.75,3.97-2.81,6.3,4.35,13.25,6.75,20.65,8.34,4.11.89,2.93,5.09,4.11,7.83.84,13.8.63,27.62.25,41.41-.36,12.96-.77,25.92-.89,38.88-.01,1.33-.09,2.66-.47,3.95-1.61,3.81-4.9,3.52-8.07,3.08-11.27-1.55-20.42-12.14-20.51-23.53-.01-1.48.29-3-.32-4.44Z"/>
      <path class="cls-55" d="M563.84,736.03c-15.38.48-30.8,1.07-45.86-2.86-8.31-2.17-11.01-3.66-6.59-13.85,4.93-11.38,15.6-14.92,26.58-17.59.44-.11,1.15-.2,1.37.03,1.89,2.07,3.92.2,5.87.3-.22-2.61,2.27-5.34-.34-7.84,1.26-1.18,2.78-.96,4.24-.65,9.02,1.9,18.08,2.04,27.19.75,1.32-.19,2.65-.23,3.91.36,1.67,1.18,1.23,2.95,1.23,4.55-.01,3.49-.22,6.99.01,10.46.58,8.73-3.88,14-11.36,17.44-9.87,4.54-22.06,6.76-36.8,6.55,8.21.39,16.43-.09,24.64.14,2.1.06,4.82-.83,5.91,2.21Z"/>
      <path class="cls-55" d="M694.82,746.03c-14.04,1.37-28.06,1.89-41.9-1.58-11.57-2.9-12.88-6.76-6.19-16.52,4.19-6.12,10.3-9.76,16.27-13.68,3.85-2.53,7.92-5.12,5.12-10.86.89-1,2.07-1.08,3.2-.72,10.92,3.49,21.89,2.4,32.87.45.32-.06.66-.02.99-.02,2.22.12,2.91,1.45,3.34,3.53,4.23,20.84-4.64,31.12-21.91,37.82,2.48-.08,5.8-2.18,8.21,1.59Z"/>
      <path class="cls-53" d="M747.1,501.22c-2.63-11.12-7.77-21.09-13.99-30.57-5.46-8.31-12.53-12.62-22.78-9.54-1.38.42-2.97.16-4.46.21-2.65-6.05-3.93-12.21-1.6-18.69q2.56.57,2.84,3.51c.55,5.87.58,5.94,5.98,3.09,5.63-2.98,11.92-3.97,17.83-6.1,2.47-.89,4.3,1.14,6.02,2.72,6.11,5.6,10.83,12.46,16.45,18.5-4.21-4.64-7.92-9.72-12.2-14.29-3.3-3.52-6.75-6.79-11.34-8.7-2.96-1.23-5.36-3.3-6.61-6.44-.81-2.03-.14-2.42,1.71-1.66,12.87,5.38,23.09,14.23,31.61,24.98,10.2,12.86,15.68,27.85,18.26,43.96-8.03-.27-16.06-.93-24.08.28-1.35.2-2.58-.39-3.63-1.28Z"/>
      <path class="cls-46" d="M703.88,596.26c2.42-1.04,4.3,1.07,6.64,1.07,15.42-.02,28.3-5.38,38.27-17.36,2.54-3.05,5.42-5.78,8-8.82,8.65-10.19,11.73-22.31,13.04-35.1.92-8.99,1.73-18.02.36-27.26,3.56-.1,4.36,1.39,4.8,4.68,1.66,12.44.56,24.72-1.06,37.03-.17,1.27-.4,2.69.8,3.73-2.99,17.79-7.96,34.82-21.85,47.43-11.93,10.84-26.11,13.31-41.33,8.35-8.12-2.64-10.05-6.72-7.68-13.75Z"/>
      <path class="cls-75" d="M710.73,674.27c1.08,5.62,2.17,11.24,3.25,16.86-.67,3.34-3.9,5.47-8.38,5.54-4.03-2.87-3.8-7.6-4.78-11.65-2.45-10.19-8.66-16.93-17.97-21.22-6.6-3.05-13.44-5.51-20.13-8.33-1.59-7.83-.5-15.83-1.53-23.71-.3-2.33,1.23-2.63,3.15-2.6,4.8.07,9.61,0,14.41-.02,2.5-.77,4.76-.24,7.17.74,4.26,1.75,8.33,4,12.97,4.87,3.58.67,5.06,3.48,5.19,6.92.42,11.24,1.86,22.25,6.67,32.58Z"/>
      <path class="cls-67" d="M507.82,429.52c9.91,1.37,19.77.98,30.44-1.4-5.91,12.88-10.18,25.5-14.44,38.13-1.74,2.63-4.6,2.39-7.12,2.48-9.56.32-19.17.58-28.58-1.4-4.92-1.04-10.07-1.49-14.59-4.02-1.42-1.08-1.06-2.48-.11-3.39,5.24-4.98,8.78-11.26,13.07-16.96,3.58-.23,6.1,2.22,9.04,3.62,1.93.92,3.81,1.9,5.94,2.35,4.05.86,7.04-2.09,5.41-5.92-.94-2.22-1.4-4.17-1.2-6.51.15-1.8-1.34-2.9-2.63-3.98-.88-.73-2.05-1.49-1.29-2.83.65-1.14,1.79-.37,2.67-.18,1.15.25,2.25.52,3.38.02Z"/>
      <path class="cls-38" d="M543.82,686.34c-1.84-10.56-1.97-21.25-2.14-31.92-.1-6.38-1.18-12.78.22-19.14,6.75,2.05,12.26,6.39,18.23,9.88,10.19,5.95,14.27,15.76,16.56,26.65.62,2.94,1.39,5.83,2.07,8.74.51,2.2,1.49,4.52-.16,6.72-7.12,4.18-14.89,2.53-22.4,2.13-4.18-.23-8.73-.13-12.38-3.05Z"/>
      <path class="cls-32" d="M661.75,595.37c.23-28.71,1.71-57.41,1.09-86.14-.41-.57-.41-1.23-.43-1.9q-.27-7.14-7.2-8.49c-8.33-1.62-15.25-5.49-20.17-12.58.29-2.43,1.7-4.04,3.78-5.15,2.07-1,3.4.36,4.71,1.56,2.05,1.88,4.3,3.46,6.71,4.83,4.84,3.05,10.08,2.99,15.39,1.85,15.24-3.29,30.5-6.46,45.77-9.64,3.57-.74,7.09-1.75,10.77-1.81,2.28,0,4.48-.96,6.79-.58.88,1.73,1.76,3.45,2.65,5.18-1.65,1.68-3.85,1.6-5.96,2.02-17.36,3.53-34.69,7.26-52.07,10.7-3.07.61-3.62,2.03-3.63,4.74-.02,14.05.39,28.14-.44,42.15-1.03,17.42.14,34.89-1.46,52.27.22,2.78,1.62,5.87-1.95,7.69-.76.03-1.52.07-2.28.1-3.1-1.54-3.71-3.84-2.08-6.82Z"/>
      <path class="cls-70" d="M662.72,655.48c.37-.47-.08-1.71,1.42-1.05,6.6,2.89,13.34,5.48,19.89,8.46,9.23,4.21,15.41,11.09,17.87,21.17,1,4.11,1.3,8.49,3.9,12.11-.85,1.41-2.29,1.92-3.74,2.27-10.01,2.47-20.02,3.51-29.99-.2-1.89-.7-3.73-1.44-5.11-3-2.27-13.16-3.57-26.43-4.24-39.76Z"/>
      <path class="cls-51" d="M578.89,686.24c-1.25-4.95-2.78-9.86-3.71-14.87-2.34-12.6-8.58-22.05-20.31-27.96-4.5-2.27-9.28-4.43-12.97-8.14.04-3,.07-6.01.11-9.01,1.32-2.18-1-6.16,1.31-6.73,3.15-.77,7.04.08,9.86,2.32,6.5,5.15,14.2,8.55,20.79,14.99-1.17-6.33-.14-12.01-2.05-17.41-.03-.08.17-.26.29-.36.24-.2.54-.19.88.02,3.89.78,7.78,1.56,11.67,2.34.18,2.82.26,5.56-.89,8.3-1,2.37-.34,4.89.22,7.36,1,4.37,1.86,8.78.92,13.29.02,1.9.03,3.81.05,5.71.89,3.69-.29,7.51.66,11.2.34,5.32.68,10.65,1.03,15.97-1.71,3.43-4.39,4.28-7.88,2.98Z"/>
      <path class="cls-19" d="M446.87,396.45c2.25,2.66,4.5,5.31,6.75,7.97,2.8,2.91,2.5,6.44,2.13,10.04-.52,4.95-.44,9.94-1.18,14.87-.67,4.45.92,7.6,5.08,9.74,4.14,2.14,8.39,3.98,12.68,5.73,1.37.56,2.91.78,3.8,2.17-.69,6.11-5.39,9.28-9.47,12.9-1.33.48-2.72,1.33-3.65-.6-.68-.33-1.37-.67-2.05-1-3.54-.79-6.9-1.99-9.73-4.36,0,0,0-.05,0-.05-9.07-5.44-18.4-10.49-27.34-17.64,6.11-1.13,11.36-3.08,15.74-6.91,10-8.74,11.31-20.67,3.62-33.13-.89-1.44-2.81-2.59-1.86-4.78.69-2.13,1.86-1.2,2.84-.36,1.63,1.4,2.32,3.34,2.65,5.41Z"/>
      <path class="cls-41" d="M463.36,217.52c-7.61,29.13-13.54,57.58-14.26,87.09-18.06-13.81-8.64-73.99,14.26-87.09Z"/>
      <path class="cls-62" d="M484.96,390.93c17.64,12.32,37.4,19.71,59.55,25.23-21.28,8.92-40.53,4.98-59.64-2.52-2.48-7.58-2.77-15.15.09-22.7Z"/>
      <path class="cls-5" d="M475.84,447.27c-5.74-2.05-11.3-4.45-16.83-7.03-5.73-2.67-6.7-7.02-5.75-12,1.2-6.26.06-12.72,2.01-18.83.71-2.23-3.43-2.59-1.65-5,2.06,1.65,4.12,3.3,6.17,4.95,5.41,5.23,12.1,8.45,18.63,11.93,1.43.76,2.86,1.52,4.29,2.28,2.36,7.73-1.25,20.18-6.87,23.7Z"/>
      <path class="cls-18" d="M563.84,736.03c-1.44-1.25-3.19-.82-4.79-.74-9.3.42-18.51-.78-27.82-1.69,9.92.82,19.21-2.17,28.61-4.4,3.68-.87,7.29-2.26,10.72-3.88,6.39-3,10.09-7.71,9.41-15.33-.43-4.89-.1-9.85-.12-14.77,1.8-2.98,4.18-4.75,7.87-3.8,1.38,10.16,3.05,20.29,4.04,30.49.77,7.99-.64,9.36-8.32,11.39-6.43,1.7-12.94,2.75-19.61,2.73Z"/>
      <path class="cls-71" d="M694.82,746.03c-3.46-1.73-7.21-.15-11.22-1.02,4.08-2.24,7.89-4.25,11.63-6.4,11.42-6.58,14.65-16.81,12.19-28.64-.39-1.87,1.49-4.8-1.72-5.91,2.62-3.16,5.84-4.67,9.98-3.59,1.89,9.04,3.81,18.08,5.66,27.14,1.79,8.77-.09,11.79-8.66,14.79-5.8,2.03-11.76,3.12-17.86,3.63Z"/>
      <path class="cls-45" d="M648.97,488.15c-4.02-1.42-6.23-5.45-10.14-7.02,3.49-3.64,8.39-2.98,12.56-3.33,19.78-1.65,39.22-5.41,58.78-8.43,1.13-.17,2.31-.12,3.46-.17,4.74-.25,5.49,2.78,5.37,6.53-.71,1.02-1.73,1.57-2.92,1.74-16.48,2.34-32.32,7.94-48.86,9.84-6.02.69-12.08,2.56-18.25.84Z"/>
      <path class="cls-6" d="M795.01,496.17c1.6-2.37,2.59-.56,3.74.52,8.52,8.08,12.16,18.64,15.06,29.57.29,1.11.43,2.26.67,3.39,1.18,5.54-.26,7.46-5.69,8.69-4.58,1.03-9.18.87-13.79,1.02,0-14.4.01-28.79.02-43.19Z"/>
      <path class="cls-39" d="M464.92,402.48c-2.58-2.81-6.07-4.72-7.96-8.19-1.03-10.19-.74-20.39-.16-30.59.06-1.1.41-2.35,2-2.34,4.28,9.67,11.59,16.95,19,24.15,1.44,6.88.6,13.82.45,20.73-.03,1.37-.25,3.11-2.36,3.16-4.12-1.58-7.25-4.71-10.97-6.92Z"/>
      <path class="cls-84" d="M786.61,478.42c.72,25.13.43,50.27.31,75.41-.04,7.16.23,14.32.1,21.48-.14,7.75-1.95,9.63-9.79,11.1-.95.18-1.88.5-3.54.94,3.68-9.36,6.87-18.27,8.5-27.66,4.53-26.11,4.15-51.93-3.92-77.39-.29-.92-.24-1.95-.34-2.94,2.88-.43,5.73-1.14,8.68-.94Z"/>
      <path class="cls-35" d="M724.94,433.28c.09,2.43.67,4.31,3.15,5.7,11.26,6.3,19.31,15.98,26.72,26.25.29.4.51.87.66,1.34.08.26-.06.59-.18,1.54-4.19-4.88-8.1-9.42-11.98-13.99-.74-.88-1.23-1.98-1.99-2.84-7.14-8.11-9.86-8.65-19.76-4.13-3.87,1.77-7.85,3.31-11.67,5.18-3.3,1.62-4.03.35-4.09-2.8-.05-2.39,1-4.99-.85-7.18-1.56-4.95-.06-7.96,4.96-9.94,5.06-.69,10.16-2.16,15.01.87Z"/>
      <path class="cls-96" d="M573.1,619.09c2.46,6.22.97,12.74,2.04,19.47-10.79-6.71-19.4-15.83-31.74-18.55-1.18,2.04.41,4.52-1.39,6.25.07-4.92.21-9.85.19-14.77-.01-2.27.62-3.16,2.89-2.04,8.93,4.41,18.59,6.67,28.02,9.63Z"/>
      <path class="cls-2" d="M507.82,429.52c-1.58,1.47-3.44.45-5.8.6,3.48,2.58,7.39,4.77,4.28,9.62,1.66.72,2.03,2.14,2.24,3.78.74,5.72-2.34,7.99-7.75,6.45-5.1-1.45-9.16-4.72-13.91-6.71-.33-6.09-.14-12.12,2.09-17.92,6.28,1.39,12.57,2.78,18.85,4.17Z"/>
      <path class="cls-16" d="M829.8,586.5c1.96-16.08,1-30.97.96-45.85-.01-3.62,2.49-4.35,4.69-5.53,1.76-.94,1.94,1.06,2.06,1.89,1.99,13.09,3.98,26.2-.11,39.28-1.22,3.9-3.6,6.91-7.6,10.21Z"/>
      <path class="cls-95" d="M715.67,700.47c-3.33,1.2-6.65,2.4-9.98,3.59-12.59,3.55-25.12,3.5-37.57-.69-.39-2.71-.78-5.42-1.17-8.13,6.25,1.43,12.19,4.19,18.82,3.99,6.81-.2,13.44-1.49,20.03-3.06,2.37-.88,5.65-.44,5.71-4.47.04-2.67,2.35,2.77,2.48-.57.57,3.11,1.13,6.23,1.7,9.34Z"/>
      <path class="cls-52" d="M587.74,691.43c-2.62,1.27-5.25,2.53-7.87,3.8-11.75,2.47-23.4,1.72-35-1-1.69-2.45-.82-5.24-1.05-7.89,8.15.86,16.22,2.44,24.5,1.97,3.65-.21,7.19-.66,10.57-2.06,2.71-.77,5.67-.89,7.88-2.98.24,2.73-.1,5.53.97,8.16Z"/>
      <path class="cls-30" d="M458.8,361.36c-1.86,6.71-.81,13.55-.9,20.33-.06,4.23.15,8.45-.94,12.59-3.32-2.63-5.56-6.04-7.16-9.9.04-14.72.05-29.44.15-44.15.01-1.91-.72-3.99.82-5.7.82,9.5,4.03,18.28,8.03,26.83Z"/>
      <path class="cls-15" d="M710.73,674.27c-6.33-4.43-5.44-11.83-6.47-17.97-.82-4.88-3.94-9.94-1.32-15.42.26-.56-.75-5.07-4.76-4.93-4.67.16-8.63-2.92-12.74-4.67-2.23-.95-4.31-1.83-6.7-2.11,8.44-1.65,17.14-1.51,25.5-3.81,2.76-.76,2.73,1.44,2.67,3.4-.35,11.31.22,22.58,1.93,33.77.6,3.92,1.26,7.83,1.89,11.74Z"/>
      <path class="cls-65" d="M488.97,425.35c.2,6.08.03,12.11-2.09,17.92-2.84,7.65-8.67,13.11-13.93,18.98-3.02.8-5.27-.29-6.93-2.83,3.45-3.9,7.58-7.27,9.83-12.14,5.23-7.05,6.4-15.27,6.87-23.7,2.23.07,4.38.45,6.25,1.78Z"/>
      <path class="cls-43" d="M666.85,455.47c10.01-.05,20.02-.1,30.03-.15,3.11,1.7,2.32,4.49,2.02,7.15-6.18,2.15-12.66,2.72-19.08,3.63-.58-.26-1.15-.69-1.75-.75-7.29-.7-9.3-2.45-11.22-9.88Z"/>
      <path class="cls-92" d="M661.75,595.37c.12,2.45.24,4.9,2.08,6.82-7.71.72-15.29.28-21.98-4.09-5.08-3.31-8.48-7.78-8.1-14.37.28-4.79.23-9.59.33-14.39.86,5.49,1.56,10.98,4.87,15.79,4.51,6.57,14.91,13.77,22.8,10.24Z"/>
      <path class="cls-73" d="M698.9,462.47c-1.99-2.01-.46-5.02-2.02-7.15.09-7.73-.84-15.58,2.92-22.84,3.38-.02,6.76-.05,10.14-.07-3.79,2.25-4.62,5.98-4.96,9.94-1.78,6.43.85,12.64.9,18.98-2.18,1.28-4.61.99-6.97,1.14Z"/>
      <path class="cls-78" d="M475.89,409.4c2.09-3.02.67-6.41,1.02-9.62.52-4.74-.91-9.61.89-14.28,2.38,1.81,4.77,3.62,7.16,5.43-.03,7.57-.06,15.13-.09,22.7-3.31-.74-6.01-2.77-8.97-4.24Z"/>
      <path class="cls-88" d="M635.05,486.27c2.58.91,4.13,3.17,6.11,4.84,5.43,4.57,11.79,6.79,18.68,6.96,2.83.07,3.39.76,3.21,3.21-.19,2.64-.15,5.3-.21,7.95-.36-5.72-4.42-6.35-8.96-7.08-4.56-.73-8.85-2.53-12.58-5.55-1.32-1.07-2.67-2.59-5.25-2.5v23.07c-.29,0-.58.01-.87.02-.14-2.73-.28-5.47-.42-8.2-.17-7.58-.32-15.15.3-22.71Z"/>
      <path class="cls-12" d="M747.1,501.22c7.24-.5,14.46-1.39,21.75-.96,2.24.13,4.24.49,5.96,1.96.59,1.97,1.2,3.94.96,6.04-9.17-2.67-18.44-2.41-27.75-.98-.31-2.02-.62-4.04-.93-6.06Z"/>
      <path class="cls-58" d="M466.01,459.42c2.02,1.65,4.44,2.34,6.93,2.83,13.98,5.23,28.5,6.58,43.29,5.93,2.67-.12,5.13-.98,7.58-1.93.73.63,1.14,1.41-.01,1.86-1.38.54-2.87,1.16-4.3,1.12-8.73-.24-17.49,1.22-26.21-.77-3.75-.85-8.02,1.22-11.47-2.03-.42-.39-1.98.05-2.79.51-2.24,1.28-3.37,2.47-4.83-1.48-1.03-2.78-5.94-2.8-9.1-4.11-1-.41-2.97.21-2.12-2.07,1,.17,1.98.76,3.02.14Z"/>
      <path class="cls-3" d="M585.03,650.39c-.05-4.17-.41-8.32-2.03-12.19-2.5-5.97.67-11.24,1.78-16.78,2.98.1,4.54.8,3.48,4.52-2.25,7.95-1.92,16.32-3.23,24.45Z"/>
      <path class="cls-99" d="M718.91,475.26c-1.45-2.29-2.14-5.24-5.28-6.06,6.51-1.58,11.07.83,15.34,8.13-1.82,1.61-4.01,1.86-6.31,1.75-1.65-.88-3.86-1.21-3.75-3.82Z"/>
      <path class="cls-49" d="M555.79,418.58c.27,4.83-1.94,8.91-4.04,12.98-.7,1.35-.64,2.44.16,3.62-2.21-.26-3.23-2.49-5.2-3.16,1.38-4.24,3.82-7.92,6.12-11.68.68-1.11,1.21-2.44,2.95-1.76Z"/>
      <path class="cls-44" d="M786.61,478.42c-2.77,1.5-5.55,2.85-8.68.94-1.31-1.35-1.72-3.08-2.11-4.83,2.27-2.54,5.27-2.45,8.28-2.3,2.02,1.58,2.39,3.84,2.51,6.19Z"/>
      <path class="cls-61" d="M650.67,628.42c-12.36.2-24.59-1.34-36.85-2.57-1.96-.2-3.91-.51-5.86-.76,4.87-2.48,9.69.25,14.51.38,9.51.27,18.95,2.12,28.52,1.82.24,0,.48.22.72.33-.35.27-.7.53-1.04.8Z"/>
      <path class="cls-58" d="M448.12,463.21c-1.18-.93-2.36-1.85-3.54-2.78,4.94.85,9.27,3.41,13.81,5.29,7.82,3.24,15.81,5.75,24.06,7.48,2.27.47,2.01.74.09,1.32-1.88-.3-3.76-.6-5.63-.89-1.28.72-2.61.45-3.87.06-8.64-2.68-17.52-4.83-24.92-10.47Z"/>
      <path class="cls-76" d="M784.1,472.23c-2.58,1.44-5.43,1.87-8.28,2.3-1.28-2.58-2.55-5.15-4.04-8.14,5.17.48,9.09,2.42,12.32,5.84Z"/>
      <path class="cls-61" d="M627.04,592.23c-.59-1.88-1.17-3.71-1.16-5.75.1-15.05.12-30.09.16-45.14,1.44,1.35.82,3.11.83,4.69.05,12.56.21,25.12-.1,37.67-.07,2.88,2.37,5.66.26,8.53Z"/>
      <path class="cls-25" d="M827.07,518.31c6.4,3.5,8.12,6.72,5.55,10.11-.68.89-1.45,2.02-2.77,1.66-1.23-.33-.78-1.64-.97-2.53-.62-3.01-1.19-6.02-1.81-9.24Z"/>
      <path class="cls-92" d="M666.11,602.09c2.18-2.18,1.62-5.05,1.95-7.69.33,4.66,3.1,5.34,7.18,5,2.8-.24,5.85-.99,8.58.67-5.9.67-11.81,1.35-17.71,2.02Z"/>
      <path class="cls-61" d="M457.97,298.37c.04,8.26.09,16.52.13,24.78-1.92.4-1.1-1.13-1.11-1.78-.06-9.25-.04-18.5.5-27.81.16,1.6.32,3.21.48,4.81Z"/>
      <path class="cls-58" d="M451.21,453.91c3.24,1.45,6.49,2.91,9.73,4.36-3.99.22-7.55-.55-9.73-4.36Z"/>
      <path class="cls-3" d="M585.74,667.3c-1.65-3.65-.6-7.45-.66-11.2,1.34,3.67.55,7.46.66,11.2Z"/>
      <path class="cls-58" d="M452.45,458.44c1.07.09,1.94.5,2.05,1.68.09.88-.66,1.04-1.33,1.01-.91-.04-1.59-.58-1.81-1.41-.19-.73.32-1.18,1.08-1.27Z"/>
      <path class="cls-85" d="M449.73,52.33c-4.75-7.07-12.16-4.1-18.42-4.36-4.55-.19-9.19.74-13.81-.24-5.21-1.1-10.43.25-15.7,0-11.59-.54-23.18,1.24-34.86.02-6.73-.7-13.65.56-20.49.59-25.69.09-51.39.15-77.08-.02-11.73-.08-23.47-.24-35.19-.31-20.25-.12-40.5.65-60.78.09-12.42-.35-24.99-.51-37.48.29-8.24.52-16.38-1.36-24.67-.71-8.8.68-17.68.84-26.51.59-6.59-.18-13.11-1.53-19.75.07-6.23,1.51-10.13,5.71-11.04,12.13-1.69,11.91-.77,23.86-.92,35.8-.2,15.43-.69,30.87-.27,46.28.31,11.27.1,22.52.14,33.78.07,18.78-.75,37.56-.85,56.34-.16,30.5.05,61-.07,91.5-.11,27.22.15,54.45-.22,81.68-.13,9.84.12,19.74.16,29.6.02,7.87,2.38,14.49,7.69,20.27,1.37,1.5,2.76,1.58,4.42,1.58,58.48,0,116.96,0,175.44.05,2.47,0,5.23-1.99,7.43.79-34.14.07-68.27.16-102.41.2-31.64.04-63.28.04-94.93,0-8.94-.01-11.75-3.14-11.22-12.14.34-3.59.28-7.18.03-10.78-.02-1.03-.05-2.07-.07-3.1.32-.56.53-1.17.63-1.81,1.23-75.19.32-150.39.6-225.59,0-.83.01-1.66-.33-2.45-.04-26.09-.1-52.18-.11-78.27,0-9.3.12-18.61.18-27.91.41-4.95.44-9.9-.01-14.85l.04-4.17c.72-5.05-.34-10.17.57-15.22.03-5.83,0-11.65.09-17.48.12-7.72,3.58-11.17,11.38-11.17,27.16.01,54.32.09,81.48.15,15.66.03,31.32.05,46.98.12,1.79,0,3.68-.49,5.37.58-.28.19-.56.51-.84.51-18.54.19-37.07.04-54.89.12.89.3,2.56-.01,4.19-.01,101.01.02,202.03.02,303.04-.01,3.36,0,6.61.22,9.75,1.46,4.35,4.66,3.38,10.43,3.31,16.01Z"/>
      <path class="cls-89" d="M18.34,13.74c1.91,6.12,7.13,9.37,10.23,14.21,1.54,2.41,2.52,4.77,2.25,7.24-1.72,15.79-.64,31.6-.7,47.4-.19,51.32-.07,102.64-.07,153.96,0,14.02-.26,28.04.11,42.05.46,17.53.38,35.08.19,52.58-.4,38.64-.39,77.28-.03,115.9.09,9.39-5.69,15.28-8.63,22.82-1.04,2.65-3.82,4.57-5.4,7.08-1.64,2.58-2.68,2.6-4.04-.09-1.74-3.45-2.79-7.03-3.28-10.89-1.13-8.91-.6-17.82-.43-26.74.33-17.9.65-35.82.33-53.72-.32-18.07.12-36.13-.27-54.21-.62-28.82.2-57.68.36-86.52.06-11.26.01-22.52.01-33.79,0-34.04.15-68.09-.07-102.13-.1-16.45-.07-32.91-.18-49.35-.07-10.98-1.09-22.25,2.12-33.19,1.4-4.77,3.2-9.01,7.49-12.61Z"/>
      <path class="cls-98" d="M422.91,486.25c-97.12.03-194.24-.23-291.36.25-31.46.16-62.92.82-94.38.74-6.31-.02-12.57-.78-18.32-4.1,4.04-8.01,12.51-11.01,18.35-16.86,1.32-1.32,3.43-.99,5.28-.99,44.98.03,89.95.06,134.93.06,63.07,0,126.14,0,189.21-.11,10.77-.02,21.51-1.32,32.3-.91,4.02.97,5.67,4.74,8.49,7.12,4.26,3.59,8.39,7.39,13.52,9.89,1.6.78,4.89,1.88,1.98,4.92Z"/>
      <path class="cls-89" d="M21.73,11.54c7.08-2.9,14.3-3.94,21.57-4.04,15.44-.21,30.89-.28,46.33-.02,120.19,2.02,240.4.38,360.59.87,4.72.02,9.2.89,13.83,2.25-3.88,2.86-7.79,5.18-10.73,9.09-2.88,3.84-7.33,5.76-12.59,5.75-43.82-.11-87.64-.07-131.45-.07-64.64,0-129.28,0-193.92,0-21.66,0-43.32-.32-64.97.11-7.57.15-13.36-2.96-19.12-6.88-3.13-2.13-6.1-4.51-9.53-7.06Z"/>
      <path class="cls-10" d="M422.91,486.25c1.56-2.76-1.17-3.11-2.44-3.81-6.8-3.73-13.01-8.11-17.52-14.58-1.05-1.5-3.27-1.69-4.03-3.54,14.32,0,28.63-.03,42.95-.02,2.16,0,4.31.09,6.24-1.1,9.54,3.63,18.86,7.85,28.79,10.41-4.29,7.53-10.44,12.44-19.35,12.62-11.54.23-23.1.03-34.65.02Z"/>
      <path class="cls-69" d="M446.42,36.32c-8.07-1.56-16.24-.92-24.36-.92-97.63-.04-195.26-.03-292.89-.04-1.64,0-3.28,0-4.91,0,0-.37,0-.73,0-1.1,20.3,0,40.6,0,60.9,0,42.96.02,85.92.04,128.87.07,41.47.03,82.93.07,124.4.1,2.82,0,5.71-.32,7.99,1.9Z"/>
      <path class="cls-17" d="M39.2,202.47c1.39,1.59.77,3.51.78,5.27.03,72.77.02,145.54-.03,218.31,0,2.08.76,4.35-.87,6.24-1.02-8.02-.7-16.04-.16-24.07.02-39.28.02-78.57.07-117.85.04-29.3.14-58.6.22-87.89Z"/>
      <path class="cls-61" d="M38.91,408.22c.05,8.02.11,16.05.16,24.07-.26.01-.52.02-.79.03.13-8.04-.81-16.1.63-24.1Z"/>
      <path class="cls-61" d="M39.25,81.44c1.2,4.95,1.21,9.9.01,14.85,0-4.95,0-9.9-.01-14.85Z"/>
      <path class="cls-61" d="M39.87,62.05c-.11,5.08.92,10.19-.57,15.22-.02-5.08-.66-10.18.57-15.22Z"/>
      <path class="cls-61" d="M38.36,435.42c1.02,3.6,1.05,7.19-.03,10.78.01-3.59.02-7.18.03-10.78Z"/>
      <path class="cls-94" d="M859.94,282.27c1.83,4.71,2.1,9.66,1.89,14.61-.85,20.55-4.98,40.09-18.13,56.73-2.17,2.74-4.42,5.43-7.92,6.61-3.13-3.42-6.66-6.15-11.11-7.78-3.17-1.16-4.41-4.25-5.43-7.3-.89-2.66-1.61-5.37-2.37-8.07-3.91-23.06.33-44.32,14.11-63.44,2.17-3.01,5.05-5.34,8.07-7.39,4.81-3.28,12.99-.74,16.01,4.29,2.23,3.72,3.02,7.93,4.89,11.74Z"/>
      <path class="cls-19" d="M800.91,263.41c-1.21-1.77-1.38-3.84-.99-5.78,1.49-7.4,1.09-14.88.84-22.29-.73-21.48-4.3-42.39-17.21-60.26-6.33-8.76-14.51-16.01-24.56-20.61-2.51-1.15-5.4-1.46-8.11-2.15.05-2.14,1.01-3.31,3.28-3.11,22.06,6.28,42.92,14.83,59.24,31.77,2.75,2.86,5.23,6.02,7.59,9.21,5.35,7.24,7.7,14.89,5.26,24.2-2.26,8.59-2.95,17.6-4.32,26.42-.2,1.28.07,2.79-1.47,3.42-9.12,3.74-14.07,11.73-19.54,19.17Z"/>
      <path class="cls-48" d="M859.94,282.27c-.04.16-.03.36-.12.48-.18.21-.41.37-.63.54-1.01-3.95-2.14-7.78-4.34-11.37-3.73-6.08-12.09-7.62-17.32-2.8-12.29,11.33-17.82,25.76-19.8,42.03-1.07,8.78-1.2,17.45.13,26.17-6.12,4.01-12.86,4.95-19.98,3.99-2.91-9.56-2.62-19.43-1.87-29.14,1.21-15.82,5.13-30.98,13.32-44.85,2.93-4.96,6.62-9.15,10.99-12.76,4.62-3.81,9.79-4.47,15.39-2.12,13.41,5.63,21.7,15.38,24.22,29.83Z"/>
      <path class="cls-28" d="M797.89,341.32c6.66-1.33,13.32-2.66,19.98-3.99,1.51,1.14,1.25,3.03,1.61,4.52,1.37,5.67,3.88,10,10.09,11.4,3.55.8,5.38,3.54,6.22,6.97-3.1,1.84-6.3,3.42-9.89,4.05-1.52-3.12-4.38-1.4-6.38-2.06,1.27.85,3.74-.83,4.34,2.09-13.65,1.53-23.75-8.87-25.97-22.99Z"/>
      <path class="cls-21" d="M754.15,149.2c-1.09,1.04-2.18,2.07-3.28,3.11-.33.03-.65.05-.98.04-1.22-.04-2.09-.56-2.94-1.52-.5-.56,1.44-2.04-.83-1.71-5.18.75-10.58-.65-15.62,1.74-2.18,1.03-4.6.89-6.8.07-9.71-3.61-19.96-4.55-30.07-6.18-1.46-.23-3-.28-3.97-1.67-1.26-1.88-2.03-3.87-.57-5.96,1.63-2.32,3.81-1,5.86-.76,5.64.65,11.08,2.89,16.89,2.22,14.33,2.66,28.58,5.63,42.32,10.6Z"/>
      <path class="cls-77" d="M711.83,138.6c-5.98,1.89-11.53-1.18-17.32-1.63-4.69-.36-5.85.55-4.62,5.39-1.64,1.66-3.65,1.09-5.62,1-8.11-.37-16.06-2.29-24.19-2.57-1.66-.06-3.84.16-4.23-2.41l.95-.24c-1.98-5.8-1.97-5.72,4.5-5.8,4.52-.05,8.98,2.41,13.54.3,12.45,1.23,24.64,4.02,36.98,5.96Z"/>
      <path class="cls-97" d="M835.15,222.97c2.15,6.49,1.54,11.9,2.35,17.13.21,1.36.86,3.51-1.77,2.79-1.5-.41-4.55.48-3.84-3.04,1.04-5.17,2.01-10.37,3.26-16.88Z"/>
      <path class="cls-79" d="M660.91,131.07c-14.9-2.35-29.91-3.31-44.98-3.7-1-.03-1.99-.09-2.98-.14,6.81-1.91,13.77-1.03,20.61-.62,10.03.59,20.01,1.93,30.38,2.98-1.14.55-2.09,1.01-3.04,1.47Z"/>
      <path class="cls-94" d="M823.85,364.31c-1.7-1.99-5.11-.06-6.64-3.15,2.51-.17,4.79.4,7.32-1,1.75-.98.83,2.64,1.36,4.12-.68.01-1.36.02-2.04.04Z"/>
      <path class="cls-27" d="M251.89,209.31c7.62.38,15.26.55,22.67,2.78,4.91,1.48,7.49,4.83,7.63,9.86.13,4.94-2.37,8.24-7.21,9.39-2.02.48-2.64,1.44-2.76,3.41-.73,11.75-1.5,23.5-2.43,35.23-.19,2.46,1,3.42,2.77,4.66,10.38,7.28,17.24,17.02,19.3,29.67,3.02,18.52-8.43,38.23-27.78,44.74-19.96,6.72-42.87-1.48-54-19.34-12.3-19.76-4.63-46.38,16.99-57.22,4.68-2.34,5.92-5.06,6.11-9.79.35-8.62,1.27-17.23,2.16-25.82.24-2.35.2-3.89-2.19-5.29-4.55-2.66-6.72-7-5.93-12.24.77-5.13,4.57-7.25,9.36-8.35,5.06-1.17,10.09-2.02,15.3-1.68Z"/>
      <path class="cls-24" d="M317.01,117.44c5.1.68,10.19,1.38,15.3,2.04,3.16.41,5.29-.72,6.69-3.79,2.49-5.43,5.38-10.68,8-16.06,1.18-2.43,2.11-5.3,5.39-5.08,3.87.26,3.7,3.79,4.13,6.44.96,5.9,1.97,11.83,2.35,17.78.23,3.62,1.71,4.57,4.94,4.47,3.82-.11,7.65.04,11.48.13,2.68.06,5.67-.02,6.68,3.14,1.11,3.52-1.26,5.48-3.94,7.19-3.64,2.32-7.17,4.83-10.84,7.12-2.4,1.5-3.33,3.34-2.79,6.24.97,5.22,1.75,10.48,2.33,15.76.26,2.34,1.08,5.18-1.85,6.66-2.97,1.49-4.94-.12-6.87-2.3-3.18-3.62-6.75-6.91-9.83-10.61-2.03-2.44-3.86-2.56-6.44-1.08-5.18,2.98-10.51,5.71-15.71,8.65-2.21,1.24-4.34,1.82-6.48.11-2.27-1.83-.98-4.09-.23-5.95,1.93-4.76,3.96-9.51,6.38-14.04,1.97-3.7,1.36-6.5-1.39-9.41-3.53-3.75-6.8-7.74-10.23-11.59-1.3-1.47-1.23-3.02-.48-4.63.69-1.49,2.05-1.5,3.4-1.18Z"/>
      <path class="cls-57" d="M111.05,280.27c-6.45.09-9.62-4.22-7.6-9.8,7.23-19.95,14.62-39.84,21.97-59.75,1.15-3.1,2.6-6.1,3.59-9.25.75-2.37,1.8-4.54,4.3-4.89,2.58-.37,4.8.94,6.36,3.15,4.5,6.37,8.94,12.78,13.53,19.08,8.31,11.41,16.34,23.02,23.7,35.07,3.68,6.03,2.75,8.54-4.07,10.31-18.45,4.77-36.94,9.4-55.41,14.12-2.39.61-4.73,1.45-6.37,1.95Z"/>
      <path class="cls-83" d="M143.85,334.07c16.47,1.11,29.37,9.19,36.51,25.27,5.33,12,3.11,23.49-4.76,33.73-8.48,11.02-19.9,15.92-33.7,14.08-10.7-1.43-20.19-12.48-20.74-23.2-.53-10.34,7.36-21.01,17.66-23.89,11.26-3.15,20.62,3.6,19,13.69-.98,6.08-5.82,9.74-11.74,9.58-2.3-.06-2.23-.72-1.47-2.11.95-1.73,2.02-3.38,3.62-4.7,2.02-1.67,3.34-3.9,2.05-6.59-1.28-2.67-3.66-3.66-6.58-3.56-7.18.25-13.5,5.4-15.05,12.35-1.61,7.2,1.68,14.16,8.27,17.53,11.58,5.91,21.71,3.37,31.83-7.99,7.2-8.08,7.99-21.08,1.88-30.67-10.2-15.97-31.36-20.47-47.25-10.07-5.33,3.49-10.14,7.53-13.79,12.82-4.8,6.95-7.6,14.37-5.58,22.97.42,1.8.96,3.96-1.47,4.57-2.2.55-3.15-1.44-3.81-3.13-2.42-6.17-2.09-12.28.36-18.42,6.8-17.01,19.36-27.28,36.86-31.85,1.11-.29,2.3-.33,3.46-.39,1.15-.06,2.31-.01,4.44-.01Z"/>
      <path class="cls-36" d="M183.35,127.35c6.55-6.57,13.04-12.79,19.18-19.34,2.54-2.71,4.77-2.79,7.22-.53,4.64,4.28,9.14,8.71,13.68,13.1,1.81,1.75,1.05,3.45-.09,5.26-1.37,2.17-3.12,2.84-5.5,1.93-2.24-.86-3.86-2.56-5.47-4.23-1.96-2.02-3.82-4.14-5.74-6.23-6.95,6.05-13.71,11.99-19.42,18.94-2.92,3.55-5.48,3.27-8.18.19-3.84-4.38-7.79-8.7-11.19-13.4-2.48-3.44-4.09-2.74-6.32,0-4.2,5.16-8.53,10.2-12.82,15.29-3.44,4.07-7.07,4.06-10.79.13-4.68-4.95-9.54-9.74-14.15-14.75-1.96-2.13-2.95-1.91-4.9.21-5.43,5.88-10.25,12.22-14.92,18.68-1.29,1.78-2.54,3.64-4.7,4.29-1.92.58-3.65-.36-4.81-1.86-1.52-1.98-1.13-4.07.32-5.98,5.22-6.88,10.2-13.96,15.73-20.6,9.44-11.33,9.91-11.25,20.86-.99,3.28,3.07,6.54,6.18,9.47,9.58,2.66,3.08,4.47,1.51,6.3-.62,3.91-4.54,7.75-9.12,11.57-13.74,4.93-5.95,8.67-5.84,13.51.42,3.66,4.73,7.36,9.43,11.16,14.28Z"/>
      <path class="cls-59" d="M237.13,187.28c-6.55.12-10.38-2.89-10.36-7.64.02-3.95,4.16-8.29,7.87-8.24,3.49.04,9.38,6.06,8.75,9.56-.64,3.53-2.3,6.75-6.26,6.33Z"/>
      <path class="cls-87" d="M256.58,163.56c-4.08,0-5.41-2.6-5.5-6.11-.12-4.49,2.54-7.19,6.87-7.25,4.29-.06,5.75,2.7,5.94,6.32.21,4-3.09,7-7.31,7.04Z"/>
      <path class="cls-50" d="M262.49,182.34c4.25-.09,7.77,3.58,7.71,7.49-.06,3.9-2.87,5.04-5.98,5.25-3.62.24-8.42-3.84-8.04-6.77.5-3.84,3.49-5.28,6.31-5.96Z"/>
      <path class="cls-82" d="M655.86,138.38c3.81,2.17,8.05.68,12.08,1.38,7.25,1.26,14.63,1.78,21.95,2.61,7.03,2.34,14.53,2.02,21.66,3.89,3.46.91,6.99,1.22,10.38,2.78,3.23,1.49,6.7,1.63,10.44-.22,4.19-2.07,9.13-.96,13.74-.74,2.41.11,1.43,3.79,3.78,4.28-2.11,2.01-4.53,3.57-7.19,4.76-1.66-.04-3.42.31-4.92-.52-4.45-2.45-8.03-.59-11.39,2.18-4.82,3.96-8.83,8.54-10.94,14.59-.87,2.51-1.7,5.05-2.55,7.57-2.11,6.24-3.16,6.9-9.46,5.54-26.55-5.72-53.5-8.76-80.46-11.29-22.14-2.08-44.3-4.68-66.63-4.37-6.32.09-12.57,1.48-18.91.94-1.07,0-2.1-.19-3.06-.68-2.12-1.87-.89-3.76.3-5.27,2.98-3.81,5.77-7.76,8.33-11.84,1.99-3.16,6.24-2.99,8.42-5.86-1.78-1.39-4.58,1.95-5.44-1.65,12.93-5.18,26.6-6.54,40.26-8.3,9.61-1.24,19.23-.84,28.82-1.43,9.87-.6,19.86.87,29.8,1.37,3.66.19,7.32.2,10.98.3Z"/>
      <path class="cls-23" d="M533.88,170.3c1.03.04,2.07.08,3.1.12,4.68.7,9.5.41,14.05,2.07,1.43.52,3.15.76,2.93,2.67-.19,1.73-1.81,2.18-3.34,2.42-4.04.64-8.3-.79-12.18,1.31-.75.27-1.52.36-2.3.3-2.59-.82-5.36-.26-8.01-1.1-1.2-.38.63.94-.2,1.29-4.63,2.69-10.13,2.95-14.78,5.81-6.4,3.94-11.62,8.54-14.93,15.54-7.27,15.33-11.33,31.65-15.45,47.94-5.66,22.38-7.73,45.17-7.52,68.29.23,26.13,12.83,43.16,36.52,53.91,20.55,9.33,42.66,12.82,64.77,15.98,23.4,3.34,46.88,6.11,70.46,7.59,19.31,1.21,38.61,1.16,57.54-3.95,17.55-4.74,29.5-15.67,35.68-32.65,7.28-19.97,10.98-40.72,13.39-61.81,1.96-17.11,1.77-34.22,1.8-51.35.02-15.28-5.48-27.88-18.17-36.95-1.74-1.24-3.76-2.24-4.62-4.41.8-3.98,4.64-3.46,7.2-4.83,13.36,8.09,20.57,20.04,23.21,35.33,2.8,16.22,2.19,32.39,1.03,48.67-1.24,17.4-3.18,34.67-7.11,51.69-1.94,8.4-4.33,16.66-7.01,24.86-7.3,22.31-22.48,35.85-45.13,41.38-17.9,4.38-36.05,5.14-54.37,4.12-21.71-1.21-43.24-4.01-64.79-6.79-20.91-2.7-41.64-6.04-61.82-12.35-18.3-5.72-34.8-14.21-46.55-29.97-6.52-8.75-9.68-18.78-10.48-29.65-3.16-43.08,5.56-84.11,21.04-124.04,4.12-10.62,10.77-18.95,20-25.4,7.84-5.63,16.28-8.62,26.02-6.02Z"/>
      <path class="cls-11" d="M739.84,198.47c-1.29,3.3-4.86,2.52-7.16,4.01-1.14.68-2.28.35-3.34-.14-15.81-7.24-32.78-9.7-49.74-12.27-29.45-4.46-59.07-7.42-88.73-9.97-16.07-1.38-32.2-1.96-48.33-.66-1.67.13-3.35.29-4.58-1.23,1.18-2.25,3.3-1.83,5.27-1.86,2.82-.04,5.65-.02,8.46-.15.79-.04,1.71-.44,1.5-1.54-.14-.71-.74-.98-1.49-.99-5.12-.07-9.62-2.96-14.7-3.25,9.47-.02,18.87-1.62,28.37-1.06,16.03.94,32.03,2.14,48.03,3.64,11.37,1.07,22.76,2.04,34.09,3.42,14.77,1.8,29.6,3.17,44.18,6.32,5.01,1.08,10.13,1.66,15.12,2.83,2.09.49,2.9.22,3.56-1.84,1.3-4.1,2.9-8.1,4.37-12.15,2.94-8.11,9.01-13.34,16.17-17.56,1.41-.83,3.21-1.17,4.26-.27,2.25,1.94,5.42,1.48,7.58,3.37-10.82,6.84-17.9,16.33-20.91,28.87-.61,2.55-.44,3.42,2.26,4.6,5.36,2.36,11.31,3.71,15.79,7.88Z"/>
      <path class="cls-100" d="M533.88,170.3c-9.2-.28-17.66,2.64-26.02,6.02,1.66-7.01,6.53-11.83,11.95-15.76,7.14-5.18,14.25-10.68,23.27-12.54,1.03-.21,1.53-1.79,2.91-1.59,1.85,1.96,3.3-.05,4.87-.54.98-.31,2.01-.74,2.67.28.63.96.08,1.94-.66,2.66-.82.8-1.62,1.84-2.63,2.2-9.17,3.3-11.4,12.43-16.36,19.26Z"/>
      <path class="cls-66" d="M602.01,507.95c.17,7.44-1.83,14.42-4.63,21.2-3.47,8.41-10.43,11.52-18.88,12.28-9.69.87-17.55-2.81-22.35-11.05-7.36-12.63-6.41-26.08-1.48-39.3,1.73-4.66,5.42-5.69,10.2-3.75,7.06,2.87,14.07,5.83,21.59,7.3,1.93.38,3.96.66,5.91.52,6.81-.48,9.39,1.78,9.64,8.81.05,1.33,0,2.66,0,3.99Z"/>
      <path class="cls-81" d="M425.04,384.18c.39.45.78.9,1.18,1.35.6,1.36.23,2.65-.52,3.78-5.56,8.4-11.98,15.92-21.7,19.68-1.56.6-3.92,2.84-5.19-.67,6.57-12.22,2.28-22.75-5.18-32.72-2.48-3.31-6-6.04-9.94-6.16-6.8-.21-9.44-4.75-12.57-9.43-11.83-17.68-23.82-35.25-35.75-52.85-1.86-2.75-3.4-5.65-4.24-8.88,1.62-5,5.59-2.97,8.88-2.98,3.85,1.35,3.93,3.41,1.03,6.12,2.59-.53,5.1-1.51,7.66-.6,2.52.9,3.71,3.17,5.07,5.28,13.13,20.4,25.92,41.05,39.92,60.86,6.11,8.65,13.83,16.16,18.63,25.79.65,1.3,1.42,1.66,2.76.86,2.15-1.29,4.32-2.43,5.11-5.14.69-2.37,2.07-4.18,4.86-4.28Z"/>
      <path class="cls-22" d="M425.04,384.18c-1.89,1.55-3.72,3.01-4.05,5.8-.47,4.06-5.35,3.38-7.2,6.21-.65,1-1.3-.62-1.58-1.13-10.66-19.13-26.34-34.76-37.35-53.69-7.15-12.3-15.31-24-22.89-36.05-1.89-3.01-4.04-4.68-7.68-3.54-1.44.45-2.89.74-4.38.23.21-1.94,4.04-3.17,1.07-5.68,3.07-2.12,4.57-5.16,6.04-8.55,1.46-3.37,2.19-8.43,8.01-7.5l-.06-.02c3.1,2.24,2.21,5.22,1.5,8.15-.74,3.04-2.1,6.03-.6,9.21,9.66,15.66,19.98,30.91,29.78,46.48,1.06,1.68,2.28,3.28,2.6,5.32-.38,11.92,5.7,18.96,19.65,22.76,1.77,4.77,5.53,8.22,8.2,12.52,2.99-1.43,5.86-4.83,8.94-.41v-.12Z"/>
      <path class="cls-31" d="M374.29,376.97c8.6.16,13.11,3.04,15.72,8.69,2.48,5.37,5.86,11.02,1.72,16.74-4.57,6.31-11.18,9.74-19.1,10.05-3.75.15-6.23-2.05-7.68-5.3-3.34-7.48-3.51-15.14-.17-22.6,2.2-4.91,6.13-7.77,9.5-7.57Z"/>
      <path class="cls-31" d="M435.91,384.47c-3.39-4.69-6.14-9.83-10.26-14.02-4.14-4.21-9.12-6.43-14.9-7.09-3.52-.4-6.76-1.55-9.62-3.69-3.43-2.57-5.59-5.72-4.17-10.22,1.41-4.48,4.86-6.65,9.25-7.09,8.33-.85,14.9,2.83,20.01,9.02,7.03,8.52,10.79,18.45,11.58,29.49-.9,1.06.7,3.43-1.89,3.6Z"/>
      <path class="cls-47" d="M388.24,349.42c-5.32-5.96-8.83-13.14-13.25-19.71-6.92-10.31-13.4-20.9-20.07-31.38,2.04-4.24,4.96-7.22,10.07-7.13,9.09,14.04,18.2,28.06,27.26,42.12,1.86,2.88,2.39,5.65-.47,8.52-1.98,2-2.63,4.92-3.55,7.57Z"/>
      <path class="cls-1" d="M431.15,393.26c3.28,3.64,5.29,8.02,6.94,12.54,3.35,9.17-3.01,19.82-12.7,21.48-.82.14-1.69.06-2.47.3-8.17,2.48-14.23.06-18.17-7.6-.83-1.61-1.98-3.05-2.98-4.56.63-1.11,1.76-1.54,2.86-1.8,9.4-2.22,15.99-8.23,21.63-15.67,1.34-1.77,2.41-4.03,4.9-4.68Z"/>
      <path class="cls-63" d="M355.03,280.28c-5.25,1.34-6.93,6.08-7.59,10.19-.72,4.46-3.03,5.34-6.47,5.87-3.3.57-7.07-1.3-9.85,1.93-2.41-7.86-4.73-15.74-7.28-23.55-.69-2.11-.91-3.29,1.75-3.74,1.6-.27,3.61-.71,4.55-1.83,4.63-5.53,8.57-2.25,12.45.76,4.27,3.31,9.14,5.91,12.43,10.38Z"/>
      <path class="cls-4" d="M431.15,393.26c-7.04,11.04-15.45,20.27-29.39,22.15-1-2.36-4.28-3.77-2.94-7.1,4.45,1.58,7.65-1.61,10.57-3.62,7.12-4.9,13.24-11.01,16.82-19.17,2.34,2.14,3.54,5,4.93,7.74Z"/>
      <path class="cls-81" d="M425.03,384.3c-3.59-2.15-6.28-.88-8.7,2.64-3.05-4.25-5.96-8.36-8.92-12.44-.74-1.02-1.55-1.93.49-2.31,8.92-.5,13.63,4.94,17.13,12.11Z"/>
      <path class="cls-80" d="M365,291.21c-4.18,1.21-6.78,4.65-10.07,7.13-2.81-3.21-.94-6.51.08-9.59.97-2.94,1.43-5.66-.04-8.48,4.98,2.15,7.83,6.25,10.03,10.95Z"/>
      <path class="cls-58" d="M435.91,384.47c2.06-.45.91-2.59,1.89-3.6.13.47.26.94.39,1.41,3.08-1.55,4.48-.97,5.77,2.83,1.05,3.09,1.45,6.44,4.99,8,.95.42,1.1,1.67.9,2.66-.47,2.26-2.35-1.17-2.99.68-1.24-1.73-2.52-3.43-3.69-5.2-.78-1.18-1.25-.4-1.8.15-1.33.03-1.93,2.61-3.75,1.03-1.38-1.2-2.05-2.51-1.11-4.29.72-1.37.05-2.52-.6-3.67Z"/>
      <path class="cls-60" d="M380.43,419.5c2.35-.91,3.95-1.32,5.33-2.11,4.75-2.7,7.73-1.67,8.8,4.28-4.55.05-9.02-.19-14.14-2.17Z"/>
      <path class="cls-54" d="M318.89,254.91c3.86.65,5.21,3.82,7.88,5.07.4.19.84,1.33.64,1.62-1.01,1.5-2.69,1.66-4.34,1.75-1.36.07-2.7.07-3.02-1.71-.37-2.07-.72-4.13-1.17-6.72Z"/>
      <path class="cls-58" d="M460.29,400.37c-.57,2.05-1.53,3.01-3.33,2.63-.75-.16-1.06-.91-.73-1.57.95-1.89,2.52-.8,4.05-1.06Z"/>
      <path class="cls-13" d="M718.91,475.26c1.25,1.27,2.5,2.54,3.75,3.82-14.07,2.87-28.14,5.75-42.22,8.6-6.3,1.28-12.6,2.56-18.92,3.71-4.63.84-8.85-.3-12.55-3.24,12.53-1.78,25.22-2.66,37.51-5.85,10.72-2.78,21.59-4.82,32.43-7.04Z"/>
      <path class="cls-33" d="M251.27,217.65c5.66.42,12.14.49,18.49,1.83,1.61.34,4.31.34,3.86,2.85-.34,1.91-2.68,1.73-4.23,1.34-4.14-1.06-5.47.44-5.73,4.63-.91,15.03-2.12,30.04-3.34,45.05-.33,4.04,2.48,5.44,5.16,7.1,10.01,6.2,16.64,14.82,17.8,26.74,2.22,22.62-19.61,40.39-42.36,34.73-14.5-3.61-26.37-15.7-28.03-28.55-1.82-14.07,6.07-28.48,20.21-34.32,6.69-2.76,9.09-6.12,9.22-13.35.22-12.59,1.73-25.17,2.93-37.74.42-4.37-1.1-5.79-5.21-4.58-1.77.52-3.94,1.41-4.46-1.14-.48-2.35,1.95-2.5,3.61-3.06,3.67-1.24,7.5-1.16,12.08-1.52Z"/>
      <path class="cls-42" d="M114.27,269.29c6.65-18.02,13.13-35.62,19.7-53.19.49-1.3.54-3.38,2.16-3.61,1.63-.23,2.29,1.67,3.11,2.84,8.67,12.41,17.2,24.9,26,37.22,2.04,2.86,1.33,3.78-1.64,4.51-16.25,3.99-32.48,8.05-49.33,12.23Z"/>
      <path class="cls-26" d="M537.94,178.21c11.43-1.25,22.92-1.16,34.36-.65,18.56.83,37.09,2.44,55.55,4.6,16.96,1.98,33.92,4.01,50.84,6.29,16.09,2.16,32.15,4.64,47.31,10.9,2.27.94,4.45,2.09,6.67,3.14,2.51,1.9,5.04,3.76,7.53,5.69,11.83,9.17,16.3,21.68,16.67,36.2.58,23.14-.18,46.21-4.08,69.06-2.82,16.52-6.02,32.97-12.69,48.5-7.69,17.91-21.88,27.49-40.4,31.24-18.68,3.78-37.53,3.66-56.5,2.33-20.19-1.42-40.27-3.78-60.31-6.39-24.5-3.18-49.01-6.7-71.81-17.01-17.57-7.95-31.15-19.88-35.53-39.63-2.76-12.45-1.96-25.19-1.29-37.77,1.42-26.5,7.73-52.09,15.84-77.26,1.78-5.51,4.11-10.86,6.38-16.2,5.43-12.8,15.89-19.02,28.89-21.85.96-.21,1.88-.58,2.82-.88,2.52-1.13,5.09-.75,7.67-.27.69-.01,1.39-.03,2.08-.04Z"/>
      <path class="cls-11" d="M535.86,178.25c-2.56.09-5.11.18-7.67.27-.45-.25-1.41-.92-1.03-.92,2.9-.06,5.94-1.13,8.69.66Z"/>
      <path class="cls-8" d="M558.88,508.71c.34-4.3.77-8.59.99-12.89.13-2.61,1.21-2.69,3.14-1.63,9.17,5.03,18.93,8,29.46,7.64,2.39-.08,2.67.8,2.28,2.49-1.36,5.79-1.41,11.81-3.48,17.5-3.17,8.72-6.41,11.58-14.04,11.58-8.2,0-13.76-4-16.4-11.95-1.37-4.12-2.04-8.38-1.95-12.75Z"/>
      <path class="cls-34" d="M239.05,301.42c-.42,2.7-1.94,5.04-5.67,4.9-4.33-.16-5.49-3.18-5.54-6.84-.07-4.14,3.18-5.02,6.14-4.93,3.49.12,4.98,2.81,5.07,6.86Z"/>
      <path class="cls-86" d="M265.63,305.15c.03,2.47-1.13,3.58-3.01,3.6-2.04.02-3.52-1.01-3.39-3.32.11-1.9.7-3.82,2.95-3.89,2.52-.07,3.11,1.99,3.45,3.61Z"/>
      <path class="cls-58" d="M656.4,289.53c.07-11.7,2.92-22.6,9.16-32.56,6.83-10.92,16.22-17.51,29.54-16.63,12.41.82,20.99,8.24,25.36,19,8.22,20.24,7.63,40.52-4.73,59.27-6.63,10.06-16.41,16.02-28.69,14.5-13.45-1.66-22.32-10.06-27.28-22.59-2.67-6.75-3.34-13.83-3.36-20.99Z"/>
      <path class="cls-58" d="M502.42,273.32c-.28-16.83,5.04-30.37,16.32-41.35,14.89-14.49,36.99-10.52,44.34,8.85,7.9,20.84,5.58,41.5-6.66,60.33-6.25,9.63-15.35,15.33-27.49,13.19-11.81-2.08-18.6-10.29-22.9-20.72-2.79-6.78-3.9-14.01-3.62-20.3Z"/>
      <path class="cls-58" d="M571.28,320.87c1.01-4.41-.68-9.49,3.56-11.45,4.02-1.86,6.95,2.29,9.91,4.4,15.26,10.93,30.64,11.57,46.33,1.67,1.81-1.14,3.66-2.28,5.6-3.18,6.19-2.87,11.32-.14,12.24,6.72,2.38,17.66-16.47,45.67-37.91,44.4-5.06-.3-9.95-1.39-14.2-4.05-14.5-9.07-24.43-21.22-25.54-38.51Z"/>
      <path class="cls-40" d="M496.44,315.55c6.37,2.34,14.93.56,20.32,7.97,3.43,4.71,2.37,9.94-3.18,11.69-11.74,3.71-21.61-.64-30.62-7.71-1.56-1.22-2.44-3.69-1.58-5.9.98-2.52,2.47-4.83,5.48-5.22,2.93-.39,5.88-.52,9.58-.84Z"/>
      <path class="cls-9" d="M710.72,360.31c-4,.33-7.89-.68-11.5-3.09-6.4-4.28-6.44-9.45.68-12.7,5.7-2.6,11.98-4.92,18.31-1.07,1.1.67,2.21.19,3.31.26,4.15.23,6.31,3.16,7.7,6.66.98,2.49-.81,5.75-2,6.11-4.22,1.29-8.12,3.82-12.72,3.84-1.16,0-2.33,0-3.78,0Z"/>
      <path class="cls-90" d="M689.09,265.28c-.1,1.32-.08,2.67-.31,3.97-.81,4.57-5.03,7.82-8.78,6.86-4.46-1.14-7.49-6.48-6.27-10.86.65-2.34,1.86-4.35,3.8-5.64,2.55-1.69,5.17-4.03,8.59-2.18,3.17,1.71,3.03,4.83,2.97,7.86Z"/>
      <path class="cls-72" d="M536.23,247.05c-.18,3.05-.92,5.97-2.97,8.28-2.36,2.65-4.86,5.25-8.95,2.83-3.87-2.29-5.44-6.66-3.64-10.69,1.11-2.48,2.79-4.56,5.07-6.03,2.25-1.46,4.58-2.84,7.38-1.24,2.15,1.23,3.17,3.46,3.11,6.86Z"/>
      <path class="cls-93" d="M633,340.9c-5.25,10.83-17.51,14.55-26.44,13.32-2.97-.41-3.61-1.8-1.66-4.24,2.5-3.13,5.97-4.72,9.6-5.87,5.83-1.84,11.8-3.12,18.5-3.21Z"/>
    </g>
  </g>
</svg>