<?xml version="1.0" encoding="UTF-8"?>
<svg id="Layer_2" data-name="Layer 2" xmlns="http://www.w3.org/2000/svg" viewBox="0 0 871.4 834.91">
  <defs>
    <style>
      .cls-1 {
        fill: #232a4e;
      }

      .cls-1, .cls-2, .cls-3, .cls-4, .cls-5, .cls-6, .cls-7, .cls-8, .cls-9, .cls-10, .cls-11, .cls-12, .cls-13, .cls-14, .cls-15, .cls-16, .cls-17, .cls-18, .cls-19, .cls-20, .cls-21, .cls-22, .cls-23, .cls-24, .cls-25, .cls-26, .cls-27, .cls-28, .cls-29, .cls-30, .cls-31, .cls-32, .cls-33, .cls-34, .cls-35, .cls-36, .cls-37, .cls-38, .cls-39, .cls-40, .cls-41, .cls-42, .cls-43, .cls-44, .cls-45, .cls-46, .cls-47, .cls-48, .cls-49, .cls-50, .cls-51, .cls-52, .cls-53, .cls-54, .cls-55, .cls-56, .cls-57, .cls-58, .cls-59, .cls-60, .cls-61, .cls-62, .cls-63, .cls-64, .cls-65, .cls-66, .cls-67, .cls-68, .cls-69, .cls-70, .cls-71, .cls-72, .cls-73, .cls-74, .cls-75, .cls-76, .cls-77, .cls-78, .cls-79 {
        stroke-width: 0px;
      }

      .cls-2 {
        fill: #ecbc7c;
      }

      .cls-3 {
        fill: #c0d7c3;
      }

      .cls-4 {
        fill: #39426a;
      }

      .cls-5 {
        fill: #e9724e;
      }

      .cls-6 {
        fill: #fd9f7d;
      }

      .cls-7 {
        fill: #354c77;
      }

      .cls-8 {
        fill: #27345a;
      }

      .cls-9 {
        fill: #fadea1;
      }

      .cls-10 {
        fill: #f1e9d5;
      }

      .cls-11 {
        fill: #62a5cb;
      }

      .cls-12 {
        fill: #fdefbf;
      }

      .cls-13 {
        fill: #b3cbb4;
      }

      .cls-14 {
        fill: #4fb3e0;
      }

      .cls-15 {
        fill: #e8ad71;
      }

      .cls-16 {
        fill: #7dc1d4;
      }

      .cls-17 {
        fill: #568576;
      }

      .cls-18 {
        fill: #31345d;
      }

      .cls-19 {
        fill: #93dbda;
      }

      .cls-20 {
        fill: #394068;
      }

      .cls-21 {
        fill: #010229;
      }

      .cls-22 {
        fill: #7fcdc2;
      }

      .cls-23 {
        fill: #fca962;
      }

      .cls-24 {
        fill: #9ee3d5;
      }

      .cls-25 {
        fill: #282d54;
      }

      .cls-26 {
        fill: #6dbccf;
      }

      .cls-27 {
        fill: #f0c380;
      }

      .cls-28 {
        fill: #7fcdc1;
      }

      .cls-29 {
        fill: #62a6cc;
      }

      .cls-30 {
        fill: #80aea4;
      }

      .cls-31 {
        fill: #79c7d0;
      }

      .cls-32 {
        fill: #2d325a;
      }

      .cls-33 {
        fill: #46c789;
      }

      .cls-34 {
        fill: #403963;
      }

      .cls-35 {
        fill: #394169;
      }

      .cls-36 {
        fill: #10123e;
      }

      .cls-37 {
        fill: #fdd856;
      }

      .cls-38 {
        fill: #6c9c91;
      }

      .cls-39 {
        fill: #e57b5d;
      }

      .cls-40 {
        fill: #93dcda;
      }

      .cls-41 {
        fill: #fadda0;
      }

      .cls-42 {
        fill: #cc8b61;
      }

      .cls-43 {
        fill: #fdedba;
      }

      .cls-44 {
        fill: #a7e9df;
      }

      .cls-45 {
        fill: #46a1d2;
      }

      .cls-46 {
        fill: #a8e8df;
      }

      .cls-47 {
        fill: #394069;
      }

      .cls-48 {
        fill: #bbd2be;
      }

      .cls-49 {
        fill: #376968;
      }

      .cls-50 {
        fill: #516e9a;
      }

      .cls-51 {
        fill: #31355d;
      }

      .cls-52 {
        fill: #e8b690;
      }

      .cls-53 {
        fill: #96a6b1;
      }

      .cls-54 {
        fill: #7bc2d5;
      }

      .cls-55 {
        fill: #fb9e4b;
      }

      .cls-56 {
        fill: #fc9f7c;
      }

      .cls-57 {
        fill: #2e335a;
      }

      .cls-58 {
        fill: #28375c;
      }

      .cls-59 {
        fill: #2f415e;
      }

      .cls-60 {
        fill: #32305b;
      }

      .cls-61 {
        fill: #594973;
      }

      .cls-62 {
        fill: #fcbc50;
      }

      .cls-63 {
        fill: #cffcec;
      }

      .cls-64 {
        fill: #262b50;
      }

      .cls-65 {
        fill: #384168;
      }

      .cls-66 {
        fill: #7e8599;
      }

      .cls-67 {
        fill: #61a4cb;
      }

      .cls-68 {
        fill: #6a6984;
      }

      .cls-69 {
        fill: #1d2444;
      }

      .cls-70 {
        fill: #5c92c2;
      }

      .cls-71 {
        fill: #e3e182;
      }

      .cls-72 {
        fill: #fdf3c7;
      }

      .cls-73 {
        fill: #282b51;
      }

      .cls-74 {
        fill: #c06d3b;
      }

      .cls-75 {
        fill: #272c52;
      }

      .cls-76 {
        fill: #2e325a;
      }

      .cls-77 {
        fill: #7bc3d5;
      }

      .cls-78 {
        fill: #1e234e;
      }

      .cls-79 {
        fill: #568676;
      }
    </style>
  </defs>
  <g id="_Ñëîé_1" data-name="Ñëîé 1">
    <g>
      <path class="cls-19" d="M706.19,718.75c-4.77.82-9.33-1.45-14.08-.94-1.26,1.14-2.79.89-4.25.71-11.99-1.47-23.99-2.87-35.83-5.34-35.36-6.14-70.63-12.77-105.89-19.4-9.8-2.24-19.58-4.64-29.41-6.77-1.75-.38-3.46-1.2-5.3-.53-1.61,1.43-.78,3.32-.98,5.01-.22,1.86.33,3.93-1.6,5.26-1.07-1.3-.69-2.86-.72-4.32-.17-9.08-.14-9.12-9.12-11.32-12.72-3.11-25.51-5.94-38.16-9.28-10.7-2.82-20.74-6.85-24.01-19.15-.9-3.37-1.75-6.75-1.74-10.27.04-14.98,1.8-29.82,3.53-44.66,1.51-13.01,2.87-26.03,4.44-39.03,1.74-14.31,3.65-28.6,5.48-42.9,1.19-9.31,2.35-18.62,3.53-27.92-1.21-1.4-1.13-3.03-.87-4.7,2.1-13.03,3.27-26.19,5.75-39.16,1.85-10.75,3.03-21.61,4.66-32.39.37-2.45.62-4.93,1.79-7.18,2.38-1.8,2.41.63,2.77,1.75.58,1.82,1.28,3.26,3.13,4.2,25.91,13.01,60.67,10.18,83.22-8.7,14.55-12.18,25.58-26.95,31.17-45.44,3.07-10.16,13.47-15.09,23.55-11.46,3.6,1.29,6.86,3.4,10.56,4.48,2.19.64,2.43,2.49,2.55,4.38.17,2.81-.27,5.67.68,8.41.45,11.82,3.22,23.03,8.82,33.5.63,1.18,1.04,2.45,1.04,3.82.27,5.79,2.11,11.01,5.69,15.58,9.23,11.79,20.7,19.98,34.92,25.45,14.75,5.68,29.53,8.91,45.21,8.16,22.59-1.08,40.84-9.81,52.15-30.28,2.05-3.72,5.09-7.05,5.4-11.61,4.95-8.97,9.76-17.98,12.62-27.93,1.46-5.09,2.72-10.22,4.14-15.32.47-1.7.49-3.68,2.34-4.72,2.71,3.46,6.12,5.65,10.44,6.9,5.19,1.5,5.65,2.64,4.62,8.12-2.95,15.72-6.77,31.25-10.06,46.9-5.94,28.19-12.2,56.31-18.3,84.47-2.36,10.87-4.41,21.86-8.29,32.36-1.48,1.51-2.83.41-3.94-.44-8.4-6.43-17.75-10.83-27.97-13.49-.8-.21-1.47-.75-2.01-1.39-.46-5.76,1.62-11.12,2.73-16.61,1.62-7.99,3.36-15.96,5.36-23.87.52-2.07,1.38-4.37-.63-6.08-2.11-1.8-4.49-.85-6.6.12-8.79,4.04-16.79,9.51-25.23,14.17-3.5,1.93-6.77,4.27-10.37,6-9.3,4.47-15.74,12.04-22.1,19.81-3.87,4.72-6.87,10.25-12.08,13.81-4.45.6-8.72-1.42-13.29-.5-10.57,2.14-15.96,11.4-12.29,21.61.95,2.65,2.76,4.91,3.38,7.7-.93,5.93-5.84,9.37-8.81,14.02-3.44,3.73-5.9,8.22-9.14,12.11-2.1,2.21-3.12,5.2-5.29,7.37-1.28.73-1.9,3.59-4.12,1.28.58-11.97,2.44-23.81,3.8-35.69.53-4.63,1.44-9.22,1.61-13.89.2-5.62-1.55-8.14-7.27-9.61-9.2-2.37-18.55-4.07-27.96-5.37-5.46-.75-10.79-2.14-16.23-2.88-9.62-1.32-13.43,1.43-14.65,10.95-4.55,35.51-8.66,71.07-14.4,106.42-1.32,8.09,1.47,12.32,9.39,13.62,13.33,2.18,26.43,5.4,39.61,8.26,1.79.39,3.61.66,5.44.74,6.6.28,9.74-2.45,10.88-9.01,1.22-7.03,1.2-14.28,3.65-21.1.67-1.03,1.7-1.2,2.55-.53,4.29,3.37,8.95,6.21,13.23,9.58.53.42.65,1.13.75,1.79-.1,4.34-1.17,8.56-1.67,12.86-.77,6.63,1.5,10.43,8.2,12.11,8.39,2.11,16.96,3.49,25.5,4.78,9.38,1.42,18.61,3.59,27.94,5.26,8.39,1.5,13.07-1.38,14.7-9.82,2.11-10.95,3.43-22.02,5.26-33.01.57-3.42.79-6.98,3.24-9.79,5.37-.93,10.48.85,15.66,1.63,5.57.83,11.02,2.47,16.78,1.72,2.58-.34,4.66.45,4.9,3.56-1.89,13.36-5.71,26.29-8.61,39.43-2.36,10.73-5.22,21.3-10.58,31.05-4.82,8.77-11.07,14.55-21.97,12.25-.93-.2-1.99-.2-2.91.35Z"/>
      <path class="cls-15" d="M30.89,3.8C37.89.68,45.44.31,52.85.22c21.82-.27,43.65-.3,65.47-.02,38.27.49,76.54,1.24,114.81,1.97,32.13.61,64.25,1.19,96.37,2.09,34.95.99,69.92,1.22,104.87,2.04,35.48.84,70.95.2,106.41,1,11.37.26,22.99-.21,33.92,4.32,11.31,4.69,17.68,13.31,18.17,25.22,2.36,57.93.84,115.9.97,173.85-8.53.93-16.77.1-24.52-3.91-1.89-5.27-1.63-10.92-1.45-16.22.28-8.51-.5-16.94-.47-25.41.11-38.25.05-76.51.05-114.77,0-3.49.12-7-1.02-10.36-2.55-5.91-8.01-7.6-13.49-9.27-7.2-.4-14.4-.96-21.56.47-11.48,1.09-22.89-.78-34.34-.77-26.3,0-52.64.89-78.89-.15-20.3-.81-40.57-.41-60.85-.83-27.26-.57-54.54-.6-81.79-1.31-16.45-.43-32.92.24-49.34-.76-23.93-1.46-47.92.12-71.82-1.15-21.64-1.15-43.25-.42-64.86-.77-10.81-.17-21.58.82-32.31,2.03-7.7.87-10.53,4.2-11.88,13.51-1.38,3.92-.43,7.94-.43,11.9-.05,125.72-.02,251.43-.09,377.15,0,7.68.85,15.29,1.31,22.92.45,7.41,4.62,11.83,11.82,13.61,3.11.77,6.28.73,9.44.67,68.08-1.23,136.17-.93,204.26-1.08.67,0,1.33,0,1.98.06,3.03.49,2.67,2.96,2.84,5.04,1.02,12.07,11.14,18.64,22.68,14.6,3.68-1.29,6.08-3.99,7.53-7.53,1.08-2.62,1.81-5.36,2.75-8.03,1.61-4.6,3.07-5.09,6.62-1.78,6.76,6.29,14.37,11.31,22.45,15.68,4.1,2.22,8.34,4.14,12.68,5.85,1.74.69,4.07.91,4.09,3.63-.8,1.08-1.96,1.12-3.15,1.11-75.64-.9-151.28-.15-226.91-.4-24.81-.08-49.59,1.64-74.41.99-9.49-.25-17.79-3.17-24.84-9.96-6.76-6.5-9.49-14.18-9.25-23.33.81-29.79-.02-59.58-.37-89.38-.12-10.13,1.17-20.21,1.15-30.4-.05-30.97.42-61.94-.22-92.91-.5-24.13-1.14-48.3-.3-72.41.62-17.95-.96-35.88.5-53.84.55-6.84-.72-13.99-.53-20.91.37-13.64-.26-27.27.18-40.91.32-10.12,1.11-20.28-.3-30.41-1.07-7.7,1.64-14.41,5.51-20.82,2-3.32,5.48-4.56,8.6-6.31Z"/>
      <path class="cls-10" d="M738.92,777.29c1.71-2.46,4.35-1.58,6.44-1.32,22.32,2.8,44.69,5.51,66.04,13.17,4.82,1.73,9.59,3.56,14.05,6.29,8.51,5.21,5.61,11.85-.57,15.42-7.67,4.43-16.07,7.09-24.7,8.96-17.77,3.84-35.7,6.96-53.75,8.75-13.61,1.35-27.29,2.45-40.93,3.54-43.33,3.46-86.69,2.8-130.06,2.65-17.91-.06-35.83-.97-53.71-2-16.65-.96-33.33-2.07-49.88-4.05-15.89-1.89-31.87-3.17-47.63-6.44-7.42-1.54-14.95-2.72-22.41-4.18-4.39-.86-8.89-.05-13.35.71-14.64,2.49-29.43,2.12-44.2,2.07-20.24-.07-40.49-1.14-60.41-4.36-13.34-2.16-26.86-3.66-40.01-6.85-6.36-1.54-12.69-4.04-17.83-8.47-4.28-3.69-3.82-5.43,1.12-7.86,8.49-4.18,17.8-4.86,26.86-6.33,12.71-2.06,25.51-3.74,38.34-4.84,8.57-.74,17.15-1.43,25.72-2.22,6.93-.63,13.9-.7,20.85-1.07,9.37-.5,18.54,1.53,27.54,3.32,12.76,2.54,24.91.94,37.32-1.58,10.52-2.13,21.27-3.14,31.99-3.64,7.12-.33,14.18-1.6,21.36-1.2,2.41.14,3.54.71,3.64,3.06,1.31,1.7-.37,2.86-.74,4.27-3.61,7.9-2.13,11.98,5.71,15.44,6.5,2.88,13.36,3.92,20.43,3.94,16.4.04,32.47-2.55,48.42-5.99,8.08-1.75,15.64-4.69,20.67-11.86,1.16-2.41.44-4.88,0-7.25-.71-3.8,1.05-5.62,4.49-6.4,1.63-.37,3.28-.62,4.95-.58,17.97.4,35.91-1.15,53.88-1.16,11.33,0,22.58,1.3,33.9,1.23,5.33-.03,6.72,1.61,6.97,6.94.16,3.45.54,6.86,1.4,10.2,3.88,10.96,13.34,15.13,23.1,18.68,15.57,5.67,31.67,8.94,48.28,9.12,6.36.07,12.6-1.21,18.24-4.4,5.74-3.26,6.93-6.26,5.44-12.83-2.41-7.36-8.61-11.62-13.77-16.71-1.27-1.25-3.16-1.98-3.17-4.17Z"/>
      <path class="cls-40" d="M569.65,206.91c8.06,1.26,16.13,2.52,24.19,3.78,21.37,3.72,42.79,7.19,64.11,11.23,37.8,7.16,75.11,16.45,112.3,26.22,14.26,3.75,28.57,7.44,42.35,12.85,1.22.48,2.36,1.18,3.53,1.77,7.55,8.21,6.92,18.39,6.2,28.27-1.03,14.04-2.6,28.05-5.42,41.87-.26,1.27-.22,2.69-1.48,3.55-7.45.49-14.16-2.04-20.73-5.14-1.29-1.63-1.69-3.6-2.03-5.57-2.39-13.92-10.86-22.96-23.34-28.47-27.52-12.12-56.18-19.14-86.42-16.76-16.4,1.29-32.43,4.61-44.47,17.54-5.2,5.59-8.7,12.12-11.44,19.18-2.2,5.67-2.66,5.68-7.83,2.99-8.1-4.22-16.73-5.2-25.69-3.91-7.05,1.02-7.97.42-7.77-6.81.32-11.52-1.81-22.17-9.44-31.27-6.89-8.21-15.97-13.09-25.85-16.33-16.08-5.27-32.63-8.02-49.64-7.59-2.74.07-5.72.76-8.1-1.47-.06-13.89,1.62-27.52,7.6-40.19,3.97-8.43,13.29-12.82,23.33-12.05,13.07,1,26.13,2.01,39.09,4.02,2.44.38,5,.4,6.96,2.28Z"/>
      <path class="cls-4" d="M738.04,521.91c12.43,2.35,23.17,8.17,32.94,15.99,4.95,1.83,6.88,6.37,9.23,10.47,2.24,3.91,3.44,8.23,4.04,12.67.48,3.56,2.4,5.39,5.88,5.38,3.98,0,7.85,1.04,11.81,1.09,4.47.07,8.94.28,13.31-1.11,9.12-2.9,12.06-10.45,7.25-18.8-.83-1.44-1.79-2.8-2.28-4.41-6.91-15.22-10.71-31.13-10.56-47.88.05-5.71,1.16-6.83,6.65-7.96,2.07-.18,3.61.67,4.64,2.46,17.92,10.21,32.74,23.55,42.44,42.06.53,1.01.95,2.08,1.41,3.13,1.93,7.48,4.85,14.73,5.06,22.62.16,5.97.46,11.93-1.23,17.77-2.35,2.34-4.17,5.13-6.05,7.82-8.08,11.52-20.08,16.92-32.72,21.49-16.92,6.11-33.79,3.72-50.6-.24-5.05-1.19-9.81-1.51-14.63.48-12.41,6.03-25.2,6.84-38.77,4.32-9.78-1.82-19.31-4.83-29.23-5.86-2.53-1.35-3.14-3.89-3.95-6.32-.45-1.76-1.25-3.68-.54-5.33,2.44-5.67,1.45-10.5-1.65-15.84-3.02-5.19-1.18-10.88,1.66-16,2.73-3.68,6.14-6.47,10.51-8.01,2.32-.62,4.42-1.83,6.69-2.59,12.26,1.09,24.46,2.48,36.09,7.44-3.02-3.2-5.48-5.13-9.2-5.96-7.16-1.6-14.04-4.09-21.08-6.05-.48-.13-.99-.43-1.44-.35-5.78,1.04-7.18-2.43-7.42-7.13-.1-.52-.12-1.04-.08-1.57,2.26-13.81,22.37-17.89,31.82-13.78Z"/>
      <path class="cls-43" d="M359.18,774.76c-8.91-.13-17.13-3.47-25.57-5.68-25.78-6.78-51.36-14.28-76.74-22.45-6.14-1.98-12.23-4.17-18.23-6.54-17.1-6.77-20.61-22.66-15.69-37.84,3.13-9.66,9.63-17.36,15.08-25.64,4.65-7.07,8.82-14.41,13.11-21.67,3.18-.27,5.11,2.07,7.24,3.73,2.05,1.59,1.47,3.66-.52,4.94-3.45,2.24-2.43,3.69.59,5.08.6.27.1-.29.42.23,2.91,4.77,5.91,9.43,11.14,12.04-.47,6.49,2.05,10.86,8.58,12.76,1.14.33,1.45,2.19.56,3.51-1.11,1.64-2.8,1.94-4.39,1.11-3.9-2.04-8.51-1.1-12.38-3.18-1.17-.63-2.24.13-3.27.63-3.6,2.85-3.53,3.79.77,5.4,7.81,2.92,15.78,5.37,23.8,7.59,13.32,3.7,26.44,8.11,39.79,11.68,1.45.39,2.88.9,4.38.96,1.79.07,3.95.63,4.96-1.34.97-1.87-1.3-2.82-1.9-4.27-.92-1.45-2.52-2.11-3.84-3.02-4.29-2.97-4.41-3.64-.18-6.83,1.99-1.5,4-2.91,5.47-4.99,2.16-3.07,5.74-2.01,8.67-2.82.81-.11,1.63.03,2.44.05,2.14.07,5.19,1.4,5.67-1.85.41-2.76-2.57-2.82-4.58-3.33-1.74-.44-3.57-.68-4.7-2.34-2.46-2.79-2.25-5.47-1.13-9.09,1.94-6.29,6.36-11.63,6.63-18.59.12-3.14,3.13-4.44,6.1-5,1.75-.33,3.7.43,5.26-.94,5.44-4.57,9.94-10.07,15.03-14.99,2.23-2.15,3.28-4.47,2.5-7.51-1.74-7.47-2.52-8.97-10.04-8.62-3.42.16-6.93-.59-10.38-1.03-1.65-.21-3.72-.3-4.67-1.49-5.48-6.84-14.16-5.77-21.19-8.7-7.91-3.3-16.28-5.57-24.73-7.22-8.59-1.68-17.19-3.38-25.82-4.85-1.83-.31-3.54,1.04-5.37.28.08-2.82.58-5.53,2.02-8.02,2.45-1.83,4.82-.34,7.13.31,19.33,5.54,38.6,11.31,58.14,16.05,14.51,3.52,29.04,7.05,43.73,9.82,6.69,1.26,13,4.18,19.92,4.4,2.02.06,3.18,1.62,4.01,3.35-10.88,31.29-25.28,60.9-42.37,89.24-2.31,3.83-4.35,7.82-6.52,11.74.93,2.3-.42,4.21-1.18,6.17-4.6,11.88-5.41,23.58,1.3,35.03.66,1.13,1.35,2.32.96,3.75Z"/>
      <path class="cls-42" d="M30.89,3.8c-5.43,4.06-9.43,9.13-11.58,15.68-.69,2.1-1.37,4.1-1.15,6.29,1.58,15.64.82,31.35.31,46.95-.29,8.7.83,17.35.01,26.11-.7,7.46-.4,15.26.91,22.84.44,2.58-.55,5.15-.83,7.66-.89,8.13-.37,16.27.16,24.25.7,10.58-.82,21.01-.38,31.57.41,9.8.12,19.74.07,29.62-.06,11.69.54,23.38.53,35.08-.04,26.15.75,52.3-.15,78.46-.31,9.05,1.13,18.2.41,27.2-.48,5.93-1.3,11.85-1.28,17.83.07,17.44-.29,34.91.44,52.32.57,13.49-.25,26.91-.25,40.37,0,11.82,11.42,22.97,20.42,25.81,4.95,1.56,9.96,2.23,15.19,2.15,13.29-.2,26.58.21,39.86-.14,83.93-2.17,167.87-.29,251.8-1.05,3.24-.03,6.4,1.67,9.64.31,4.67-1.19,8.41.31,11.41,3.95-8.62,2.29-17.46,1.87-26.24,1.98-59.58.74-119.17,1.19-178.75,2.2-38.44.65-76.87.86-115.31.74-7.56-.02-14.94-1.51-21.88-4.3-14.06-5.65-20.78-17.16-22.95-31.45-1.32-8.7-1.62-17.56-1-26.4.68-1.78.35-3.63.35-5.44.02-120.62.02-241.24,0-361.87,0-1.81.33-3.67-.34-5.45C-.16,54.77.05,42.42,2.23,30.32,4.55,17.39,17.99,5.51,30.89,3.8Z"/>
      <path class="cls-11" d="M802.12,568.76c-5.11-.48-10.23-.97-15.34-1.43-2.11-.19-3.39-1.21-3.53-3.38-.7-10.28-5.34-18.7-12.26-26.05,4-17.59,8.15-35.15,11.97-52.78,5.2-23.93,9.86-47.98,15.33-71.85,3.18-13.88,6.08-27.81,9.17-41.7.62-2.78-.19-3.57-2.43-4.18-1.76-.48-3.45-1.28-5.23-1.62-3.81-.72-6.03-2.83-6.53-6.7-1.49-3.64-.91-7.25.2-10.84,2.31-2.08,4.61-.36,6.85.13,2.68.59,5.38,1.2,7.98,2.11,8.59,2.59,17.35,4.67,25.65,8.2,4.61,1.96,9.09,4.15,13.14,7.11,1.38,1.01,3.41,1.74,2.82,4.15-6.25,25.76-12.52,51.52-18.75,77.28-3.43,14.19-6.8,28.39-10.2,42.59-1.35-.55-2.7-1.11-4.05-1.66-7.99-.56-15.76,6.7-17.28,16.47-1.26,8.12.18,15.48,6.67,21.31,2.3,2.07,4.91,4.04,5.7,7.35-1.62,11.36-5.05,22.29-7.91,33.35-.26,1.02-1.06,1.65-1.98,2.12Z"/>
      <path class="cls-72" d="M356.91,657.77c-.74,2.16-2.6,1.37-4.03,1.43-4.13.17-7.24,1.33-6.43,6.35.3,1.85-.56,3.43-1.41,4.62-2.45,3.43-2.68,7.7-4.7,11.21-1.67,2.91-1.92,5.67-.44,8.64-2.39,1.81-4.84.57-7.14-.08-20.3-5.74-40.52-11.78-60.91-17.18-2.34-.62-5.85-2.85-6.87.56-.81,2.72,3.15,3.31,5.35,4.08,16.47,5.78,33.38,10.11,50.17,14.83,5.76,1.62,11.45,3.47,17.24,4.94,1.27.32,2.62.61,3.34,1.93-7.8-.08-10.75,7.37-17.41,10.63,3.37,1.39,6.01,2.52,7.37,5.19-1.87,1.56-3.79.57-5.65.05-20.75-5.72-41.23-12.37-62.05-17.86-1.58-.42-3.26-.77-4.2-2.37.6-.52,1.54-1.61,1.76-1.48,4.12,2.43,9.12,1.56,13.31,3.61,1.21.59,2.36,1.37,3.69.46.72-.49,1.17-1.24.69-2.13-.66-1.21-1.64-2.01-3.08-2.26-4.83-.83-7-4.29-5.96-9.23.59-2.8-1.71-3.65-3.53-4.63-.82-.44-2.61-.02-2.82-.49-2.19-5.01-5.41-9.05-9.69-12.5-1.27-1.03.81-1.94,2.02-2.5,1.29-.59,3.16-.85,3.17-2.71,0-1.86-1.98-1.96-3.14-2.79-1.47-1.06-2.94-2.11-4.41-3.17,8.25-14.89,13.46-30.99,18.84-47.04.57-1.7.74-3.58,2.06-4.98,2.53-2.13,5.08-1.63,8.25-1.18,6.25.89,12.29,2.67,18.5,3.66,8.16,1.29,16.15,3.29,23.97,6.17,6.07,2.24,12.21,4.62,18.78,5.27,2.63.26,4.71,1.32,6.02,3.78.72,1.35,1.99,2.08,3.61,2.34,5.34.83,10.63,1.95,16.1,1.42,5.19-.51,8.08,3.4,7.9,10.5-4.81.68-8.03,3.72-10.75,7.39-2.01,2.72-4.4,5-7.21,6.84-3.27,2.13-4.93,1.68-6.7-1.86-1.42-2.85-1.77-6.07-2.91-9.02-2.57-6.71-5.88-7.48-10.98-2.54-5.86,5.68-10.67,12.35-16.8,17.77-1.35,1.19-2.59,3.02-4.62,2.44-2.2-.63-2.68-2.85-3.01-4.82-.56-3.28-.79-6.62-1.91-9.79-2.29-6.45-6.76-8.28-12.42-4.51-6.51,4.33-12.34,9.6-18.09,14.9-1.3,1.2-2.99,2.96-1.36,4.7,1.63,1.75,3.38.04,4.8-1.04,5.17-3.92,9.89-8.42,15.18-12.21,4.53-3.25,6.89-2.31,7.74,3.23.51,3.3.85,6.62,1.99,9.77,2.28,6.31,6.43,7.62,12.08,4.06,5.91-3.73,9.98-9.24,14.38-14.45.97-1.14,1.79-2.42,2.92-3.41,2.9-2.56,4.5-2.16,5.84,1.46.4,1.09.62,2.25.91,3.38,1.42,5.44,4.13,9.48,10.45,9.61.84.02,1.63.34,2.21,1.01Z"/>
      <path class="cls-12" d="M248.12,551.91c.36-20.67,14.9-32.41,32.37-33.69,6.92-.51,14.1,1.5,21.07,2.82,27.64,5.21,55.15,11.04,82.41,17.95,7.15,1.81,14.59,3.04,21.08,6.99-3.63,2.44-7.72,1.14-11.59,1.3-8.59.36-16.19,2.76-22.39,9.1-5,5.11-7.02,11.07-6.28,18.07.21,1.95.9,3.94-.57,5.72-1.78.97-3.59.44-5.34.02-25.68-6.06-51.23-12.64-76.86-18.92-8.7-2.13-17.38-4.39-26.16-6.25-2.74-.58-5.62-.9-7.73-3.1Z"/>
      <path class="cls-20" d="M459.11,781.88c.55-1.02,1.09-2.04,1.64-3.06,13.29-14.34,29.7-22.39,49.16-24,2.88-.24,3.2-1.21,2.82-3.68-.67-4.41-1.03-8.87-1.51-13.31.97-6.81-1.05-13.51-.76-20.32.18-4.1.83-5.38,4.9-4.41,9.55,2.26,19.2,4.04,28.81,5.96,2.12.42,2.86,1.94,3.33,3.87,1.22,5.03,1.1,10.2,1.61,15.3.08.81-.38,1.66.96,1.68,1.83,1.87,1.44,4.34,1.74,6.57,1.06,8.01,2.81,15.94,3.24,24.04-.84,2.64-.35,5.22.15,7.87.66,3.5-.47,5.6-4.26,7.16-17.75,7.28-36.48,8.55-55.25,9.77-7.31.48-14.62.68-21.94.06-4.21-.35-8.19-1.22-11.98-3.16-4.99-2.55-5.14-2.77-3.14-7.96.3-.77.73-1.5.48-2.38Z"/>
      <path class="cls-47" d="M738.92,777.29c6.95,5.67,14.31,10.95,17.99,19.62-.3,7.48-.47,7.79-7.66,9.92-11.94,3.53-24.06,2.66-36.1.97-13.65-1.91-27.07-5.06-40.52-8.05-8.43-1.87-11.04-7.6-11.99-15.04-1.66-13.79-3.72-27.53-5.44-41.32-.7-5.61.72-6.95,6.16-6.14,9.88,1.48,19.27,4.96,29.03,6.89,2.8.55,4.61,1.77,4.14,4.99-.47,3.19,1.38,6.15.99,9.35-.04.29.02.47.03.47.63.39.28-.62.72-.5.42,2.66,1.19,4.26,4.59,4.76,13.63,2,26.38,6.69,38.07,14.09Z"/>
      <path class="cls-59" d="M366.44,497.06c-3.63-1.82-7.5-2.93-11.41-3.95-12.61-4.65-24.39-10.8-34.98-19.13-1.81-1.43-3.49-3.05-5.08-4.73-2.11-2.22-3.55-3.12-4.28,1-.46,2.59-1.43,5.11-2.38,7.58-3.15,8.19-7.49,10.81-16.18,9.88-1.82-.19-3.62-.54-5.43-.82-7.71-1.21-11.26-5.27-11.53-13.16-.07-2.16-.13-4.32-.19-6.48-1.1-3.89.02-7.57,1.02-11.27,1.64-4.72,1.84-9.85,4.05-14.41.87-.83,1.97-1.53,3.12-1.25,5.57,1.33,9.99-1.3,14.39-4.02,3.51-2.17,6.46-2.32,8.57,1.89,1.03,2.07,2.83,3.14,5.1,3.54,1.64.29,3.23.77,4.36,2.15,2.7,12.68,12.34,20.14,21.37,27.93,10.68,9.22,23.83,12.88,37.28,15.61,14.51,2.94,29,2.27,43.36-1.01,6.89-1.57,12.7-5.36,18.58-9.26,7.44-4.93,11.13-12.55,16.12-19.28,1.65-2.23,2.15-4.81,2.44-7.49.29-2.63.45-5.32,2.19-7.54.96-.19,1.51.11,1.39,1.18-2.08,14.62-4.17,29.24-6.25,43.86-8.32,5.52-17.4,9.34-27.03,11.9-5.82-.38-11.37,1.59-17.19,1.74-12.05.31-23.82-.99-35.46-4.02-1.68-.44-3.38-1.61-5.28-.68-.18.19-.41.27-.67.23Z"/>
      <path class="cls-27" d="M364.03,579.86c-.15-4.26-1.49-8.37-.52-12.79,2.89-13.1,15.61-20.41,27.58-21.13,4.63-.28,9.3,0,13.95.03,9.44,3.62,13.6,10.87,14.19,20.59.33,5.42.23,10.84-.27,16.25-5.07,5.01-9.55,10.59-15.43,14.79-10.12,7.23-21.38,10.09-33.47,7.9-12.24-2.22-24.12-6.14-36.23-9.06-17.43-4.21-34.59-9.51-51.99-13.85-2.41-.6-5.26-1-3.82-4.76.63-2.97,1.25-5.94,1.88-8.91,6.95-.62,13.33,2.09,19.91,3.5,20.67,4.44,40.92,10.6,61.51,15.35,4.56,1.05,8.89,2.8,13.38,4.02,7.74,2.09,12.86.6,16.94-4.85,4.17-5.57,2.55-14.22-3.36-17.91-4.27-2.67-9.15-1.14-11.73,3.68-2.57,4.8-1,9.51,3.87,11.5,1.38.57,2.89.82,4.22,1.53.9.48,1.78,1.08,1.78,2.21,0,1.3-.86,2.08-1.97,2.64-5.84,2.93-18.33-2.13-20.47-8.31-.28-.8-.38-1.62.03-2.42Z"/>
      <path class="cls-67" d="M706.19,718.75c.74-.28,1.52-.88,2.22-.79,13.1,1.57,19.11-6.63,23.73-16.95,6.68-14.93,9-31.04,12.87-46.73,1.5-6.08,2.71-12.24,4.05-18.36.7-.71.29-1.98,1.26-2.56,2.34-1.09,4.07.22,5.96,1.34,5.29,3.13,10.35,6.59,15.32,10.2,2.69,1.96,5.55,3.69,8.95,4.14,2.95.39,3.61,1.86,2.4,4.47-.65,1.4-.7,2.87-.05,4.32-2.16,9.51-4.28,19.03-6.48,28.53-4.46,19.2-17.8,28.78-36.05,32.55-11.33,2.35-22.78,1.09-34.17-.16Z"/>
      <path class="cls-9" d="M278.02,577.83c.07,1.57.34,2.61,2.34,3.12,18.1,4.65,36.13,9.52,54.21,14.22,11.83,3.07,23.63,6.31,35.59,8.81,12.51,2.61,23.81-.84,33.94-8.54,4.24-3.23,7.85-7.03,11.25-11.08.97-1.15,1.75-2.56,3.61-1.54-1.36,13.78-5.17,26.96-9.79,39.94-.72,2.03-1.45,4.05-2.18,6.07-2.37-2.77-5.74-1.78-8.7-2.37-6.63-1.32-13.05-3.42-19.7-4.77-15.33-3.11-30.62-6.54-45.76-10.5-18.23-4.76-36.29-10.2-54.43-15.33-1.42-.4-2.89-.64-4.34-.96.63-5.85,2.62-11.39,3.96-17.07Z"/>
      <path class="cls-29" d="M814.86,336.09c3.18-18.03,6-36.08,6.24-54.46.08-6.09-1.46-11.44-4.58-16.51-.45-.72-1.77-1.33-.39-2.36,14.31,7.21,26.15,17.43,36.02,29.97,5.87,7.46,7.15,16.17,6.51,25.36-.81,11.74-2.59,23.35-4.86,34.89-.65.22-1.36.33-1.94-.02-11.54-6.77-24.16-10.98-36.66-15.49-.41-.39-.52-.85-.34-1.38Z"/>
      <path class="cls-41" d="M364.03,579.86c2.75,8.37,9.75,9.54,17.1,10.02,1.58.1,3.95.54,4.32-1.43.43-2.29-2.23-1.98-3.58-2.38-6.47-1.94-8.29-4.04-8.1-9.97.13-4.08,4.15-8.69,8.58-9.77,3.87-.95,6.73.83,9.2,3.54,4.01,4.4,5.17,9.58,3.28,15.11-1.89,5.52-7.19,8.77-13.14,8.94-3.37.1-6.51-.61-9.75-1.51-22.57-6.26-45.19-12.33-68.05-17.51-8.03-1.82-15.99-3.98-23.98-5.98-7.4-1.64-14.82-3.19-22.19-4.93-7.47-1.77-9.52-4.46-9.6-12.07,13.17,3.1,26.32,6.31,39.52,9.29,22.04,4.99,43.66,11.72,65.92,15.82,3.54.65,6.98,1.88,10.46,2.84Z"/>
      <path class="cls-2" d="M359.18,774.76c-9.26-12.46-9.08-25.72-3.38-39.45.76-1.83,1.53-3.66,2.3-5.49,10.06,2.03,20.13,4,30.17,6.12,7.63,1.61,9.02,4.12,6.39,11.6-3.87,10.99-10.19,20.14-20.67,25.8-4.65,2.51-9.61,3.69-14.81,1.44Z"/>
      <path class="cls-73" d="M815.26,336.77c13.71,3.36,26.47,8.96,38.54,16.21,15.98,12.77,21.12,28.56,15.26,47.02-.49,1.55-1.21,3.05-1.91,4.52-1.2,2.5-3.19,3.98-5.98,3.32-2.86-.68-5.33-2.16-5.31-5.63.03-5.64-.05-11.3.34-16.92.43-6.26-1.49-11.34-6.28-15.36-7.71-7.56-17.75-10.54-27.56-13.92-4.67-1.61-9.46-2.85-14.2-4.25,3.06-3.62,4.17-7.99,4.96-12.53.19-1.08.07-2.86,2.15-2.47Z"/>
      <path class="cls-51" d="M696.26,758.44c-.17,1.12-.34,2.24-.69,4.48-.62-4.32-1.79-7.59-1.39-10.66.74-5.54-2.37-6.55-6.6-7.35-9.08-1.71-17.83-4.82-26.96-6.39-4.33-.75-4.85-.39-4.22,4.07,1.98,14.07,3.77,28.17,5.64,42.26-.74.84-1.44,2.13-2.46.25-3.44-21.95-6.79-43.91-8.6-66.07-.2-2.46-.96-4.97.91-7.15,13.4,1.97,26.8,3.95,40.2,5.92,1.39,13.55,2.77,27.09,4.16,40.63Z"/>
      <path class="cls-70" d="M782.9,657.84c-.12-.12-.35-.26-.33-.35,1.06-5.58-2.26-6.75-6.77-8.8-7.25-3.3-13.72-8.4-20.33-13.01-1.76-1.23-3.37-1.93-5.43-1.78-2.52-5.74,1.05-10.63,2.2-15.86.97-1.51,2.5-2.07,4.14-2.46,4.7-1.1,9.15-2.88,13.38-5.18,2.21-1.2,4.33-1.51,6.62-.45,3.63,1.47,7.49,2.11,11.23,3.21,1.83.53,3.92.7,4.75,2.9-2.09,12.5-5.53,24.71-8.46,37.02-.38,1.58-.55,3.2-.99,4.76Z"/>
      <path class="cls-18" d="M549.3,739.45c-.36.31-.68,2.75-1.13.35-1-5.34-1.55-10.78-1.94-16.2-.16-2.26-.86-2.88-3.06-3.26-9.42-1.65-18.87-3.27-28.07-5.99-3.42-1.01-4.21.42-4.02,3.39.34,5.12.73,10.23.96,15.35.07,1.59.54,3.36-.83,4.74-1.4-9.96-1.61-20-1.99-30.03.79-6.12.13-12.27.37-18.4.07-1.8-.42-3.66.42-5.4,10.77,2.47,21.54,4.93,32.3,7.44,1.24.29,2.7.18,3.51,1.52,1.27.81,1.54,2.14,1.65,3.47,1.07,13.08,1.35,26.22,2.83,39.28.15,1.34-.07,2.66-1.01,3.75Z"/>
      <path class="cls-57" d="M792.34,616.06c-5.32-2.28-11.33-2.32-16.52-5.04-1.55-2.19-3.88-2.67-6.33-2.99-2.57-.34-4.75-1.3-5.47-4.13,4.62-2.44,9.34-2.46,14.33-1.09,14.29,3.92,28.88,5.72,43.52,2.92,11.74-2.24,22.49-7.67,31.99-14.72,4.55-3.38,8.33-8.41,11.09-13.73.74-1.43,1.26-2.27,2.89-1.46,1.05,3.68-1.17,6.56-2.45,9.64-.95,2.29-2.21,4.45-3.32,6.67-4.38,7.62-11.16,12.69-18.67,16.7-14.63,7.82-30.31,9.74-46.61,7.4-1.46-.21-2.97-.12-4.45-.18Z"/>
      <path class="cls-74" d="M.32,67.08c1.42,1.58.8,3.5.8,5.26.03,120.58.04,241.15,0,361.73,0,1.92.69,4.02-.81,5.76C.2,400.7,0,361.56,0,322.42c0-83.45.1-166.9.17-250.35,0-1.66.09-3.33.14-4.99Z"/>
      <path class="cls-78" d="M862.08,592.13c1.29-5.66,5.22-10.39,5.77-16.31,2.11-12.69,2.14-25.2-3.04-37.29-.51-1.19-1.4-2.37,0-3.55,7.71,18.46,9.06,36.83-.77,55.06-.49.91-1.02,1.66-1.96,2.09Z"/>
      <path class="cls-36" d="M367.11,496.83c1.43-1.63,2.96-.65,4.54-.25,11.36,2.84,22.84,4.73,34.63,4.36,4.79-.15,9.47-.91,14.16-1.69,1.61-.27,3.23-.94,4.6.55-19.6,4.67-38.85,2.56-57.93-2.96Z"/>
      <path class="cls-21" d="M510.02,684.01c-.44,7.93,1.1,15.92-.8,23.8-.13-3.69-.25-7.37-.38-11.06,1.11-4.18-1.25-8.68,1.17-12.74Z"/>
      <path class="cls-17" d="M277.25,455.87c-1.25,3.7-.61,7.77-2.26,11.39-2.07.91-4.26.64-6.41.64-47.31.08-94.62-.17-141.92.37-21.14.24-42.28.64-63.42.61-12.64-.02-18.72-6.08-19.15-18.51-2.16-62.94-.66-125.91-.89-188.86-.25-69.63-.06-139.26,0-208.89,0-3.94-.66-7.98.78-11.85.61.45.67,1.08.61,1.76.19-.26.04-.55.06-.82.81-9.1,5.11-13.91,14.08-15.03,6.21-.78,12.74-.04,18.7-.73,10-1.16,19.88-.66,29.78-.77,9.51-.11,19.02-.27,28.54-.22,9.82.05,19.62.92,29.45.6,1.84-.06,3.56-.54,4.52,2.4.61,1.88,4.17,1.68,5.73.22,5.11-4.77,10.7-2.4,15.6-.66,4.8,1.7,9.4,2.97,14.44,2.52,1.53-.14,2.99,0,4.45.36,2.22.53,5.18.45,6.22-.86,3.63-4.54,8.46-2.07,12.66-2.96.95-.2,2.3-.43,2.91.26,4.66,5.33,9.92,2.02,14.84.93,3.11-.69,5.81-.85,8.63.71,2.79,1.55,5.6,2.07,8.29-.43,1.48-1.37,3.47-1.17,5.26-.98,8.09.84,16.35-.54,24.24.88,4.77.86,9.56-.36,14.11,1.26,1.24.44,1.8-.55,2.69-.77,2.3-.57,4.74-1.12,6.09,1.65,1.42,2.92,3.06,1.97,4.6.31,1.89-2.03,4.2-2.75,6.78-2.35,5.87.9,11.91-.51,17.72,1.66,2.33.87,4.63-1.41,7.25-1.24,19.06,1.26,38.19-.21,57.21.89,6.33.36,12.57.02,18.84.17,3.13.07,6.37-.57,9.19,1.47.55.4,1.24.39,1.92.32,18.66-2.1,37.41-1.46,56.09-1.01,6.21.15,12.55-.25,19.02.94,5.2.96,11.71-.26,17.59-.9,5.66-.62,11.31-.15,16.96-.32,1.84-.06,3.32.47,3.91,2.38.8,2.59,2.69,3.45,5.05,2.76,3.75-1.1,6.41.66,9.01,2.85,1.93,2.34,2.03,5.13,2.03,7.98.04,40.72.08,81.45.18,122.17.03,12.91.24,25.83.37,38.74-9.2-1.13-18.38-2.45-27.6-3.35-7.58-.73-15.22-1.44-22.82-1.28-9.38.2-15.74,5.31-19.17,14.09-3.78,9.69-4.87,19.89-6,30.1-.24,2.13-.55,4.26-.83,6.39-2.34,2.36-5.44,2.12-8.38,2.5-12.21,1.58-23.79,4.97-33.79,12.47-5.29,3.97-9.55,8.54-6.51,16.06.72,1.78-.04,3.61-.71,5.34-8.49,21.9-9.34,44.46-5.25,67.29,2.7,15.06,10.26,27.27,23.17,35.89,1.52,1.01,3.11,1.96,4.03,3.66.94,2.95.92,5.72-1.54,8.02-1.98,13.32-3.96,26.64-5.93,39.95-.41-.35-.83-.71-1.24-1.06-1.09,2.16-2.85,3.63-4.91,4.81-32.68,18.65-74.27,17.34-103.72-8.93-.87-.78-1.76-1.53-2.71-2.2-6.16-4.41-8.2-9.89-5.59-17.37,2.36-6.75,3.74-13.83,2.69-21.09-1.44-9.94-5.77-14.61-15.56-16.98-.81-.2-1.61-.43-2.29-.93-1.31-1.67-.71-3.5-.39-5.27.78-4.25,1.46-8.52,2.21-12.78,1-5.63,2.08-6.35,7.97-6.67,31.46-1.71,56.69-15.25,75.73-40.3,10-13.16,17.4-27.61,20.08-44.07,4.37-26.79.42-51.96-15.34-74.66-7.01-10.96-17.36-18.23-28-25.13-16.42-10.65-34.34-17.12-54.01-16.99-52.88.36-95.64,39.38-101,89.55-2.04,19.08-.69,37.53,7.78,55.06,2.62,5.43,5.98,10.43,9.72,15.08,12.92,16.08,27.79,29.6,48.21,35.58,1.73.5,3.59.89,4.74,2.55.67,7.27-1.42,14.19-2.61,21.23-.91,2.58-2.71,3.58-5.42,3.23-13.45-1.71-22.16,5.4-27.47,16.45-9.26,19.29-7.38,39.64,6.99,56.39,1.57,1.83,3.82,3.37,3.05,6.34Z"/>
      <path class="cls-61" d="M465.28,396.15c-18.07-10-26.68-25.96-29.24-45.9-1.9-14.77-1.19-29.43,1.13-44.06.49-3.09,1.51-6.1,2.35-9.13,1.67-5.95,5.37-11.46,2.64-18.25-1.09-2.7.93-5.34,2.98-7.51,10.53-11.11,24.33-14.89,38.72-17.31,3.09-.52,6.24-.76,9.36-1.13,19.11-.63,37.9,1.33,56.16,7.17,14.92,4.77,27.62,12.48,34.28,27.56,3.46,7.82,3.78,16.15,3.4,24.51-.13,3,.14,3.89,3.7,3.24,11.61-2.15,22.84-1.09,33.08,6.05.47-1.15.98-2.18,1.34-3.26,7-21.5,22.29-33.18,44.05-37.2,31.84-5.89,62.21.02,91.9,11.4,1.55.6,3.08,1.26,4.64,1.84,17.13,6.39,27.49,18.16,29.3,36.75,1.25,5.87.84,11.64-.98,17.33.05,3.63-.04,7.25-.84,10.81-3.63,16.9-8.11,33.47-18.22,47.9-1.98,5.49-5.94,9.52-10.05,13.38-13.52,12.68-29.88,19-48.13,18.64-16.49-.32-32.67-3.82-48.27-9.56-9.92-3.65-19.33-8.21-27.31-15.21-4.57-4.01-9.27-8.09-10.87-14.41-6.7-11.76-10.56-24.31-10.66-37.93-.41-5.44-.7-10.93-.82-16.35-.12-5.6-2.54-8.87-7-10.94-7.45-3.47-15.17-3.04-22.85-.56-2.75.89-3.48,3.28-4.15,5.77-4.2,15.64-11.21,29.94-21.48,42.43-12.74,15.5-29.33,23.98-49.33,26.16-15.75,1.72-30.34-1.77-44.4-8.5-1.83-.88-3.63-1.68-4.46-3.72Z"/>
      <path class="cls-33" d="M463.12,624.48c1.71-12.36,4-28.44,6.16-44.55,1.98-14.8,3.75-29.62,5.74-44.42,2.1-15.6,4.37-31.19,6.52-46.78.88-6.41,1.54-12.84,2.53-19.23,1.03-6.68,5.71-10.47,12.32-9.39,14.89,2.43,29.76,5.05,44.56,7.99,7.53,1.49,9.9,4.69,9.06,12.39-1.35,12.36-3.35,24.65-5.06,36.97-2.31,16.59-4.55,33.18-6.92,49.76-2.86,20.02-5.84,40.03-8.7,60.05-.56,3.94-.89,7.92-1.23,11.88-.69,7.9-4.44,11.58-12.36,10.8-7.24-.72-14.39-2.35-21.58-3.62-6.21-1.1-12.38-2.42-18.61-3.36-10.28-1.56-12.66-4.23-12.42-18.49Z"/>
      <path class="cls-23" d="M614.08,634.89c-1.02,7.57-2.09,15.13-3.04,22.7-.86,6.82-5.61,10.81-12.52,9.53-12.41-2.29-24.73-5.06-37.09-7.58-3.25-.66-6.57-1.03-9.81-1.76-6.69-1.51-10.23-6.52-9.15-13.21,3.86-23.95,7.24-47.97,10.32-72.03,1.52-11.87,2.88-23.75,4.36-35.63,1.45-11.72,5.96-14.9,17.57-12.49,13.82,2.86,27.88,4.41,41.65,7.59,8.46,1.96,10.71,4.46,9.75,13.07-1.8,16.17-3.83,32.31-5.76,48.46.67,2.46-.85,4.35-1.66,6.43-2.37,2.73-5.24,4.91-7.51,7.83-5.41,6.98-4.52,13.67-.26,20.65,1.23,2.02,3.62,3.55,3.16,6.43Z"/>
      <path class="cls-37" d="M738.04,521.91c-4.95.07-9.92-.6-14.85.46-8.26,1.78-14.2,6.08-16.37,14.64.09,1.75.82,3.65-1.14,4.95-3.67-4.13-3.74-4.06-7.39.35-7.12,8.61-12.81,18.22-19.39,27.21-1.68,2.29-3.43,4.52-5.7,6.24-2.21,1.68-4.61,3-7.23.87-2.65-2.15-1.93-4.75-.51-7.19,5.95-10.24,12.8-19.83,20.57-28.77,1.09-1.26,2.31-2.41,3.11-3.88.59-1.09.84-2.23-.23-3.18-1.01-.9-2.16-.8-3.22-.08-1.52,1.03-2.91,2.25-4.05,3.68-12.73,15.81-24.46,32.34-35.57,49.33-.89,1.36-1.52,3.09-3.69,2.73-4.64-4.89-7.87-10.22-5.39-17.33,3.05-4.32,6.11-8.63,9.16-12.95.37-1.84,1.3-3.37,2.42-4.86,5.31-7.04,10.65-14.06,15.88-21.17,1.21-1.64,2.62-2.98,4.3-4.07,4.71-5.79,9.63-11.42,14.07-17.41,6.52-8.8,15.36-14.46,24.72-19.64,9-4.97,17.79-10.32,26.73-15.39,2.29-1.3,4.75-2.48,7.28-3.13,4.22-1.09,7.21,1.45,6.31,5.58-3.12,14.37-6.53,28.67-9.83,43Z"/>
      <path class="cls-14" d="M713.14,628.91c-3.21,14.05-4.8,28.37-7.03,42.59-1.23,7.87-6.69,13.6-16.59,11.47-17.29-3.72-34.8-6.42-52.16-9.87-9.47-1.88-11.68-5.58-10.45-15.05.53-4.1.81-8.22,2.18-12.16,4.39-1.08,7.46,1.91,10.97,3.54,1.02,3.3,2.82,5.55,6.72,5.3,1.7-.11,3.15.8,4.62,1.63,7.21,4.06,13.48,3.23,19.47-2.6,8.82-8.58,16.11-18.56,24.68-27.39,4.28-4.42,4.69-4.72,9.98-1.51,2.28,1.39,4.82,2.24,7.16,3.5.15.18.31.37.46.56Z"/>
      <path class="cls-77" d="M465.28,396.15c30.08,16.76,63.14,15.11,87.7-5.3,16.4-13.64,25.39-32.17,30.78-52.47.89-3.36,2.22-5.2,5.49-6.04,10.59-2.73,20.75-3.26,29.25,5.31,1.15,1.15,2.11,2.27,1.99,4.29-.42,6.63-.51,13.28-.73,19.93-.16-.29-.37-.56-.48-.87-1.14-3.41,1.92-8.29-1.8-10.32-8.85-4.84-18.26-8.32-28.22-2.55-1.92,1.11-2.6,3.13-3.33,5.27-3.52,10.32-7.1,20.59-13.79,29.51-13.5,17.99-30.04,31.6-52.7,35.59-15.85,2.79-31.64,1.78-46.59-5.18-.15-.07-.29-.19-.44-.22-4.87-1.06-8.23-3.48-8.15-9.01.34-2.64.69-5.29,1.03-7.93Z"/>
      <path class="cls-54" d="M630.41,399.8c15.06,22.39,38.43,30.04,63.06,34.98,13.32,2.67,26.76,4.35,40.44.91,17.48-4.4,30.61-14.59,41.14-28.72,1.98,3.82-1.83,5.62-3.06,8.21-5.51,11.68-13.69,21.17-25.12,27.38-7.93,4.3-16.82,6.41-25.63,7.16-14.94,1.27-29.74-.18-44.03-5.54-13.39-5.02-26.17-10.79-36.12-21.6-5.37-5.83-9.68-12.1-11.65-19.86-.33-1.3-.34-2.27.97-2.92Z"/>
      <path class="cls-39" d="M640.01,650c-3.64-1.37-7.28-2.75-10.92-4.12-5.21-3.38-10.52-6.62-15-11-3.44-4.28-6.73-8.7-7.89-14.2-1.49-7.07,3.71-16.16,11.66-20.78,1.77,1.04,2,2.96,2.6,4.63,6.2,17.17,23.85,28.74,42.23,27.61,1.17-.07,2.31-.23,3.34.53-1.08,6.68-12.45,18.5-18.73,19.31-2.64.34-5.34.43-7.29-1.99Z"/>
      <path class="cls-60" d="M593.41,443.97c-19.5-.91-28.65-11.69-32.9-29.05-.62-2.54-.01-5.13,3.03-5.97,3.58-.98,4.72,1.45,5.35,4.28,2.07,9.21,6.23,16.83,15.58,20.48,10.42,4.07,20.9.72,29.16-9.32,1.16-1.41,2.06-3.03,3.25-4.41,1.51-1.76,3.34-2.89,5.65-1.37,2.23,1.47,2.21,3.56,1.3,5.75-4.25,10.24-18.95,19.7-30.42,19.62Z"/>
      <path class="cls-50" d="M665.97,632.97c-23.96,4.26-45.97-15.57-48.11-33.07,0-2.44,1.38-4.34,2.49-6.35.87-.86,1.74-1.72,2.62-2.58,3.09,4.78,4.77,10.35,8.64,14.73,2.73,3.08,5.38,6.18,8.78,8.54,3.74,3.39,7.75,6.35,12.64,7.92,6.02,2.02,12.4,1.91,18.56,3.1.66,4.41-1.72,6.61-5.62,7.71Z"/>
      <path class="cls-16" d="M753.09,617.76c-.3,5.52-3.27,10.53-3.06,16.14-.33.67-.65,1.35-.97,2.03.42-2.42-1.38-3.09-2.92-2.64-4.18,1.24-8.18.32-12.2-.41-6.94-1.26-13.87-2.64-20.8-3.97,0,0-.22,0-.22,0-.78-5.33-.3-10.36,3.47-14.62,3.03-.94,5.89.31,8.8.72,6.9.95,13.8,1.58,20.78,1.39,2.43-.07,5.01-.44,7.12,1.37Z"/>
      <path class="cls-66" d="M652.03,622.9c-4.8-1.38-8.85-3.93-12.03-7.8,1.6-4.95-.64-8.59-3.72-12.25-3.2-3.81-5.58-8.24-7.51-12.85-.81-1.93-2.07-3.89-.8-6.13,2.93-4.04,5.38-8.43,9.02-11.93-.1,6.43,2.02,12.05,6.17,16.93,3.68,2,6.37,4.82,7.34,9.03-.26,1.67-1.25,3.05-1.87,4.58-1.81,4.43-.66,8.46,3.14,11.17,3.81,2.72,3.91,5.93.27,9.27Z"/>
      <path class="cls-35" d="M668.76,528.89c-7.22,10.27-14.65,20.37-22.61,30.09-2.07-3.59-4.35-7.09-5.04-11.28-1.98-11.88,6.85-21.49,18.86-20.4,2.95.27,5.86,1.05,8.79,1.59Z"/>
      <path class="cls-53" d="M627.97,583.86c2.15,7.99,6.19,15.02,11.65,21.09,3.24,3.6,3.31,6.64.38,10.14-8.59-5.98-14.8-13.65-17.04-24.12,1.96-2.16,2.56-5.29,5.01-7.11Z"/>
      <path class="cls-49" d="M567.07,38.01c-3.5-1.84-7.07-2.25-10.95-1.1-1.83.55-4.48-.37-4.26-2.31.49-4.38-2.24-3.56-4.6-3.57-7.67-.02-15.33-.02-23,.02-2.58.01-5.26-.61-7.23,2.12-.94,1.3-2.82,1.16-4.03-.03-3.46-3.38-6.99-2.86-10.65-.46-.69.46-1.68,1.13-2.25.43-3.04-3.75-7.15-1.94-10.74-1.99-12.88-.19-25.76-.25-38.62.79-4.03.33-8.36-2.03-12,1.6-.24.24-1.48-.01-1.74-.39-4.27-6.13-10.45-1.74-15.62-2.85-1.08-.23-1.45,1.22-2.08,1.94-1.56,1.81-3,2.05-4.24-.27-.82-1.54-2.14-1.93-3.75-1.92-6.83.03-13.67.22-20.49,0-7.5-.24-14.95.62-22.48.29-4.72-.21-9.31-2.15-13.99-1.22-5.35,1.06-10.39,2.62-16.01.15-2.79-1.23-6.57-.14-9.9-.24-3.12-.1-5.97-.03-7.6,3.37-.97,2.02-3.08,1.74-4.89,1.53-2.29-.27-1.07-1.9-1.04-3.07.03-1.67-1.19-1.87-2.39-1.78-1.14.09-2.97-.7-2.93,1.53.02,1,.49,2.11-1.02,2.19-.99.06-1.28-.85-1.55-1.66-.9-2.74-2.86-1.75-4.48-1.06-2.69,1.15-5.03.92-7.53-.68-2.44-1.56-5.47-.46-8.25-.95-6.63-1.17-13.6-.4-20.43-.36-.61,0-1.51.24-1.77.67-3.28,5.44-7.42,2.39-10.75.61-2.62-1.4-4.29-1.32-6.8-.09-2.09,1.02-4.51,2.17-7.13,1.16-.57-.22-1.6-.35-1.87-.05-3.67,4.25-5.03,1.85-6.07-1.97-.14-.51-1.01-1.29-1.32-1.2-3.26,1-6.45.74-9.68-.09-.35-.09-1,.26-1.23.6-2.44,3.6-6.41,5.16-10.76,3.63-3.46-1.21-6.59,1.42-10.48-.17-2.88-1.18-6.28-1.16-9.1-3.43-2.72-2.2-6.88,1.98-9.67-1.59-.05-.07-1.11.34-1.19.66-1.21,4.52-4.34,3.42-7.81,3.45-4.14.04-5.36-.22-1.74-4.25-17.32,0-33.79.12-50.26-.11-3.02-.04-2.96,2.84-4.49,3.43-3.07,1.18.94-3.52-2.47-3.42-9.77.27-19.55.12-29.33.11-1.36,0-2.04.87-2.81,1.78-1,1.19-2.13,1.28-3.52.44-5.58-3.36-17.84-1.33-23.51,1.98-6.11,3.57-8.05,8.27-7.31,15.3-1.61-1.85-.78-3.45-1.27-4.79.82-10.14,4.05-13.55,13.96-14.78,25.38-3.15,50.88-1.89,76.33-1.67,43.13.37,86.25,1.07,129.37,1.95,48.11.98,96.23,1.38,144.34,2.16,32.14.52,64.28.51,96.41.89,9.15.11,18.3.35,27.45.54,7.45-.51,14.89-.61,22.33.06,5.27,1.15,10.02,3.13,12.87,8.11Z"/>
      <path class="cls-17" d="M554.19,29.91c-7.44-.02-14.89-.04-22.33-.06,7.45-.71,14.89-1.64,22.33.06Z"/>
      <path class="cls-64" d="M553.91,770.92c.71,4.64,2.18,9.17,2.13,13.92-2.15,5.37-6.64,8.08-11.68,10.02-12.98,4.99-26.69,6.44-40.34,8-11.06,1.27-22.16,2.17-33.11-.89-2.22-.62-4.46-1.29-6.53-2.29-8.25-3.98-9.9-9.73-5.25-17.8,2,2.59-3.27,5.76-.08,7.45,3.98,2.11,8.13,4.31,12.96,4.56,20.66,1.07,41.05-.81,61.42-4.37,6.73-1.18,12.54-4.37,19.02-5.88,2.88-.67,1.59-3.68,1.37-5.61-.28-2.41-1.68-4.75.11-7.11Z"/>
      <path class="cls-64" d="M660.02,787.93c.05-.69.1-1.38.15-2.06.63-.34,1.25-.67,1.88-1.01.29,9.35,3.08,12.4,12.56,13.95,9.2,1.5,18.18,4.03,27.36,5.7,13.69,2.5,27.32,3.92,41.22,2.53,3.5-.35,6.47-2.1,9.93-2.66,3.32-.54,1.87-5.22,3.79-7.46,2.79,7.64,1.61,11.06-5.51,15.24-7.47,4.38-15.78,5.21-24.11,4.59-17.8-1.32-35.13-4.91-51.53-12.29-7.51-3.38-13.67-7.99-15.73-16.53Z"/>
      <path class="cls-34" d="M794.1,348.25c-.19-5.81-.17-11.6.98-17.33,6.59,1.72,13.18,3.44,19.77,5.17.12.23.26.46.4.68-.91,3.39-2.12,6.73-2.65,10.18-.44,2.86-1.99,4.12-4.46,4.81-4.68-1.17-9.36-2.34-14.05-3.51Z"/>
      <path class="cls-62" d="M650.32,597.72c-2.39-2.95-4.77-5.91-7.16-8.86,10.99-16.71,21.89-33.47,34.92-48.74,2-2.34,3.66-4.99,5.95-7.14,1.9-1.79,3.51-2.7,5.99-.68,2.75,2.24,1.42,4.15-.15,5.85-6.88,7.44-12.81,15.6-18.46,23.96-2.04,3.01-3.75,6.24-5.62,9.36-1.03,1.71-.66,3.12.77,4.42,1.35,1.23,2.69,1,4.11.19,2.65-1.52,4.58-3.76,6.39-6.16,6.86-9.09,12.39-19.13,19.86-27.78.86-1,1.55-2.17,2.51-3.06,1.17-1.08,1.99-3.12,3.88-2.71,2.38.51,1.39,3.03,1.98,4.74,1.39-1.17.13-3.12,1.54-4.09l.33-.1c-.83,4.6,3.22,8.34,2.27,12.96-1.59,2.24-4.19,2.16-6.48,2.8-4.4.91-7.51,3.54-9.8,7.29-3.58,7.76-4.46,15.27,2.28,21.92,1.11,1.09.83,1.88.15,2.99-2.25,3.71-2.62,7.75-1.88,11.95-1.36,5.15-5.28,8.47-8.66,12.19-3.75,2.7-7.63,2.78-11.62.57-1.6-2.53.68-3.49,2-4.75,4-3.79,7.49-8.02,10.89-12.33.82-1.03,2.09-2.65.48-3.38-5.91-2.68-4.07-6.2-1.42-10.21-9.4,7.38-15.03,17.77-22.93,26.17-.62.42-1.31.55-2.05.48-.71-.12-1.37-.39-2.02-.69-2.99-2.03-7.06-2.85-8.05-7.13Z"/>
      <path class="cls-45" d="M684.97,607.86c2.91-3.68,5.82-7.36,8.73-11.04.88,2.19,1.46,4.53,3.19,6.29,5.82,4.84,13.01,7.46,19.14,11.8-1.03,4.66-2.07,9.33-3.1,13.99-3.39.33-6.31-1.34-8.49-3.34-3.42-3.14-5.26-1.62-7.63,1.08-8.16,9.29-16.3,18.62-24.76,27.64-6.95,7.41-13.79,7.96-22.3,2.35-1.59-1.05-3.18-.63-4.78-.72-3.8-.22-6.01-1.66-4.96-5.91,7.11,2.28,12.57,0,16.87-5.91,2.82-3.87,6.7-6.89,9.09-11.12,2.04-2.35,4.09-4.7,6.13-7.04,1-5.19,5.7-7.72,8.47-11.64,1.5-2.12,3.25-4.06,4.4-6.43Z"/>
      <path class="cls-32" d="M716.02,614.91c-7.01-2.92-14.64-4.82-19.14-11.8,2.7-.97,5.32-.5,8.02.19,12.43,3.18,24.87,6.33,37.85,6.01,7.49-.18,14.52-2.27,21.27-5.41,2.22,1.72,4.31,3.41,7.52,3.11,2.46-.23,3.52,1.94,4.28,4.01-1.57-.21-3-1.12-4.72.01-5.47,3.59-11.7,5.28-18.01,6.72-12.5.93-24.85-.18-37.07-2.85Z"/>
      <path class="cls-76" d="M811.09,532.88c-1.86-1.86-3.67-3.76-5.57-5.58-10.8-10.32-10.13-28.35,1.42-37.82,3.05-2.5,6.26-3.75,9.97-1.34-5.13.42-6.07,3.55-5.98,8.15.24,11.63,2.39,22.8,5.81,33.91,1.33,4.31,3.5,8.29,4.44,12.7-4.53-2.16-7.6-5.8-10.09-10.02Z"/>
      <path class="cls-25" d="M709.42,549.87c-1.92-4.12-3.27-8.33-2.27-12.96,1.22,1.01.74,2.44.93,3.72.29,1.91.43,3.85,3.29,2.05,2.01-1.27,3.66.91,5.53,1.32,6.62,1.44,12.93,3.95,19.58,5.43,4.94,1.1,9.38,4.02,12.17,9.64-6.59-2.04-12.42-4.83-18.77-5.71-5.67-.78-11.21-2.86-17.05-1.85-1.67.29-2.03-1.63-3.41-1.64Z"/>
      <path class="cls-75" d="M740.72,588.23c-6.54-.57-12.56-3.03-18.84-4.09-6.48-1.09-13.09-1.37-19.63-2.11-.98-.11-2.68.38-2.74-1.35-.05-1.25,1.12-1.98,2.18-2.47,1.05-.48,2.19-1.07,3.29-1.08,12.1-.05,24.14.26,34.45,7.99.82.61,1.59,1.23,1.3,3.11Z"/>
      <path class="cls-37" d="M693.14,559.96c1.65-4.6,4.73-7.27,9.8-7.29-3.86,1.62-6.97,4.27-9.8,7.29Z"/>
      <path class="cls-56" d="M356.91,657.77c-8.94.37-11.36-1.7-14.13-11.18-.5-1.72.25-4.78-2.19-4.98-1.79-.14-3.07,2.29-4.28,3.85-4.48,5.78-9.07,11.44-15.13,15.72-6.52,4.6-11.67,3.03-14.29-4.51-1.21-3.47-1.6-7.09-2.06-10.73-.42-3.31-1.57-5.47-5.3-2.13-5.07,4.54-10.49,8.69-15.84,12.91-2.07,1.63-4.64,3.81-6.96,1.03-2.1-2.53-.36-5,1.86-6.85,6.13-5.1,12.05-10.49,18.49-15.16,6.56-4.76,12.65-2.26,14.71,5.63.88,3.35,1.19,6.85,1.79,10.28.61,3.46,1.53,4.76,4.81,1.59,6.11-5.92,11.69-12.32,17.25-18.72,5.33-6.14,10.67-3.94,13.12,2.72,1.14,3.11,1.84,6.37,2.88,9.52.91,2.77,2.05,3.66,4.96,1.43,4.3-3.3,7.17-7.87,11.17-11.38,2.12-1.87,4.23-4.03,7.42-1.95,1.15,2.05,1.48,4.07-.4,5.88-5.93,5.7-10.85,12.47-17.87,17.02Z"/>
      <path class="cls-6" d="M341.07,699.1c-14.56-3.35-28.85-7.69-43.19-11.85-10.03-2.91-20.19-5.41-29.94-9.25-.46-.18-.97-.28-1.4-.52-2.1-1.17-5.26-1.91-4-5.22,1.11-2.91,3.77-2.64,6.4-1.87,6.85,1.99,13.75,3.82,20.62,5.77,15.48,4.39,30.94,8.83,46.43,13.21,1.26.36,2.61.44,3.91.65,2,1.25,4.25,1.58,6.52,1.98,2.54.45,5.02,1.36,4.68,4.64-.37,3.52-3.23,3.21-5.67,3.17-1.46-.03-2.9-.46-4.36-.71Z"/>
      <path class="cls-56" d="M259.13,694.74c20.39,4.87,40.28,11.47,60.45,17.14,3.8,1.07,7.63,2.03,11.45,3.04.95.65,1.9,1.31,2.86,1.94,1.56,1.02,1.39,2.55,1.06,4.02-.34,1.53-1.6,1.91-3.02,2.09-4.46.56-8.54-1.08-12.62-2.29-19.51-5.78-38.97-11.75-58.44-17.67-.79-.24-1.56-.56-2.34-.82-2.09-.7-4.45-1.49-4.21-4.14.23-2.6,2.51-3.21,4.82-3.31Z"/>
      <path class="cls-20" d="M325.2,379.91c9.53-1.24,17.82,8.44,19.02,16.79,1.27,8.85-.86,17.11-3.33,25.32-1.31,4.37-.63,7.64,2.61,10.81,19.51,19.1,42.88,28.21,70.07,25.89,15.7-1.34,30.45-6.51,43.51-15.74-.52,7.85-3.16,14.56-7.47,21.48-7.02,11.25-16.92,17.75-28.54,22.33-5.11,2.02-10.71,2.57-16.29,3.2-20.97,2.37-40.9-1.37-59.44-10.76-10.94-5.54-19.67-14.52-26.89-24.63-2.26-3.17-3.76-6.65-3.35-10.69-1.47-6.29.75-12.11,2.39-17.98.72-2.57,3.19-3.08,5.38-3.93,5.61-2.18,11.06-4.61,13.65-12.11-3.82,3.62-7.13,6.12-11.02,7.73-10.85,4.49-19.69-1.25-19.7-12.93-.01-7.76,2.89-14.53,7.53-20.63,1.91-1.53,3.87-3,5.97-4.26,1.95-1.16,3.97-1.45,5.91.11Z"/>
      <path class="cls-65" d="M277.25,455.87c-1.05-3.92-4.64-5.92-6.93-8.9-13.86-18.06-12.97-44.99.23-61.59,6.1-7.67,14.15-12.08,24.42-9.84,2.17.47,3.03-.37,4.03-1.75,3.68,3.29,8.24,5.88,9.05,11.45.48,9.47-4.22,14.66-13.62,15.07-7.2.32-9.87,1.04-14.43,4.25,5.06-.46,9.31-1.35,13.62-.23,5.09,1.32,9.59,2.99,10.6,9,.86,5.12-2.13,11.3-7.2,14.33-3.88,2.32-8.04,4.03-12.58,4.52-2.64.28-4.84.57-2.77,4.1,1.09,1.86.72,3.86-.53,5.64-1.29,4.65-2.58,9.29-3.87,13.94Z"/>
      <path class="cls-1" d="M281.11,441.93c-.21-2.36.47-4.66-1.87-6.8-2.41-2.21-.65-4.17,2.06-4.1,5.38.15,9.96-1.97,14.59-4.18,4.26-2.04,6.19-5.94,7.11-10.14,1.06-4.85-1.7-8.32-6.44-10.17-5.98-2.33-11.88-1.25-18.03-.34,1.21-7.18,7.5-5.65,11.93-7.12.91-.3,1.98-.13,2.97-.15,9.65-.14,13.47-4.05,13.7-14,2.31-2.12,4.62-3.85,6.95-.02-4.25,6.47-7.34,13.28-6.99,21.3.37,8.55,7.19,13.6,15.4,11.01,4.77-1.5,9.33-3.47,12.05-8.11.53-.9.88-2.49,2.49-1.46,1.13.72,1.3,2.01.9,3.13-1.07,3-2.64,5.78-5.2,7.71-1.97,1.48-4.15,3.34-6.43,3.66-9.88,1.38-8.83,9.42-10.13,15.98-.38,1.91.06,3.99-1.06,5.78-4.78-.69-9.38-1.62-11.39-6.93-.79-2.08-2.26-1.29-3.61-.54-2.58,1.44-5.24,2.77-7.74,4.33-3.6,2.24-7.54.37-11.24,1.16Z"/>
      <path class="cls-7" d="M302.06,351.99c-13.59-3.38-25.98-9.17-36.22-18.87-8.08-7.65-15.91-15.5-22.09-24.94-8.04-12.27-12.44-25.74-13.46-40.1-1.3-18.37.81-36.39,8.43-53.52,11.13-25.05,29.57-42.52,54.47-53.44,11.84-5.19,24.41-7.64,37.2-8.01,23.63-.67,44.45,7.61,63.52,21.12,7.35,5.21,14.37,10.66,19.86,17.9.89,1.18,2.24,2.03,2.36,3.7.51,4.58-1.86,3.98-4.73,2.67,10.93,22.71,12.75,46.15,6.05,70.53-6.81,24.79-20.25,45.01-40.33,60.85-15.9,12.55-34.35,18.44-54.31,20.55-6.91.73-13.92-.09-20.74,1.59Z"/>
      <path class="cls-48" d="M126.01,179.29c-11.42,3.67-22.12,3.09-31.32-3.9-12.15-9.22-12.93-24.3-2.67-35.66,6.54-7.24,14.97-10.63,24.57-12.21-2.61-8.74-2.33-17.37,2.24-25.34,3.6-6.29,8.55-11.47,15.54-14.14,21.96-8.39,39.37-2.01,46.19,16.62,8.84-9.1,19.57-11.88,31.81-9.64,8.49,1.55,14.91,6.33,17.95,14.12,2.52,6.45,1.57,13.38-2.49,19.44-.72,1.07-1.55,2.07-2.59,3.43,5.55,1.54,10.63,3.23,15.52,5.74,7.74,3.97,10.57,19.49,7.76,26.8-4.57,11.91-16.12,19.7-28.59,19.29-4.09-.14-8.09-1.13-11.85-2.75-2.24-.97-3.08-.71-4.31,1.75-5.39,10.73-21.42,20.68-34.19,14.09-.58-.3-1.18-.64-1.81-.79-2.57-.62-3.06-6.42-6.42-3.46-1.64,1.45-3.73,2.54-5.36,4.34-6.57,7.3-22.44,4.34-27.88-4.28-2.65-4.2-2.82-8.57-2.12-13.44Z"/>
      <path class="cls-58" d="M302.06,351.99c1.27-2.25,2.74-2.88,5.66-2.49,8.76,1.16,17.47-.69,26.08-2.05,13.73-2.16,26.48-7.42,37.96-15.1,10.66-7.13,19.52-16.4,26.99-26.86,14.29-20.02,21.51-42.41,21.25-67-.13-12.69-3.17-24.88-8.42-36.47-1.01-2.22-1.81-4.62-4.24-6.06,2.4-.68,3.97.81,5.35,1.74,2.91,1.98,2.95-.09,3.42-1.9,10.59,14.65,15.94,30.96,17.19,49.06,2.33,33.7-9.89,61.63-33.54,84.54-18.27,17.69-40.63,27.31-66.47,27.39-3.27.01-4.5,1.25-4.96,4.03-1.06,6.36-2.09,12.72-3.14,19.08-4.9-.98-7.49,3.19-11.14,5-2.33-2.27-4.64-.14-6.95.02-1.8-2.96-2.58-6.72-6.84-7.67-1.35-.3-1.13-2.19-1.29-3.47,1.02-7.27,2.05-14.53,3.07-21.8Z"/>
      <path class="cls-13" d="M145.98,348.97c2.63.34,5.35.34,7.86,1.09,5.8,1.72,6.46-1.5,6.72-6.03.96-16.59,2.11-33.17,3.22-49.75.19-2.84.71-5.67.73-8.51.02-3.33,1.66-5.15,4.76-5.03,3.48.14,4.06,2.97,3.96,5.79-.33,9.67-.58,19.35-1.17,29.01-.67,10.99-1.57,21.97-2.62,32.93-.23,2.38.85,2.49,2.45,2.54,5.31.17,10.55,1.4,15.89.96,3.29,1.66,6.72,2.01,10.27.97,5.72.58,11.4,1.41,17.18,1.36,2.8-.02,6.27.92,6.17,4.21-.12,3.59-3.12,4.15-6.66,3.92-11.19-.75-22.45-.67-33.63-1.6-21.37-1.79-42.82-2.4-64.13-4.86-5.74-.66-11.55-.66-17.31-1.12-2.72-.22-5.26-.96-5.67-4.39-.37-3.08-.25-5.2,4-4.25,8.35,1.88,8.19,1.7,9.59-6.63,1.35-7.99.81-16.06,1.46-24.07,1.08-13.29,1.59-26.63,2.55-39.93.18-2.49,2.05-5.78,4.18-5.42,2.22.37,4.91,2.11,5.02,6.12.53,18.48-2.48,36.74-2.77,55.16-.06,4.05-1.07,8.09-1.65,12.13-.26,1.82-.34,3.02,2.34,3.05,4.08.05,8.16.75,12.22,1.35,1.94.28,3.18-.39,4.09-1.99,3.06,3.15,7.47,1.37,10.95,2.99Z"/>
      <path class="cls-3" d="M477.05,97.77c0-.1,0,.73,0,1.57-.07,7.74-.06,7.68,7.56,9.43,4.35,1,8.63,2.36,12.99,3.31,2.92.63,4.36,2.83,4.73,5.13.4,2.46-1.74,3.84-4,4.98-5.33,2.68-10.43,5.81-15.73,8.55-2.57,1.33-3.5,3.06-3.31,5.96.38,5.93.45,11.88.59,17.83.06,2.77-.38,5.41-3.39,6.57-2.9,1.11-4.7-.81-6.44-2.64-4.33-4.57-8.9-9.03-11.96-14.55-2.17-3.92-4.56-3.66-7.87-1.93-5.29,2.76-10.65,5.41-16.05,7.96-1.82.86-3.78,2.68-5.87.76-1.97-1.81-1.75-4.44-1.04-6.56,2.07-6.13,5.01-11.97,8.57-17.32,2.96-4.44,2.78-7.86-.4-11.99-2.49-3.23-4.15-7.09-6.19-10.66-1.37-2.41-.9-5.18.3-7.01,1.16-1.78,3.89-.84,5.95-.3,4.97,1.31,10.01,2.41,14.9,3.98,2.72.87,4.12.02,5.82-2,4.09-4.85,7.21-10.34,10.96-15.4,1.21-1.63,2.38-4.06,5.08-3.07,2.06.76,2.83,2.43,3.45,4.81,1.02,3.91,1.16,7.76,1.34,12.61Z"/>
      <path class="cls-52" d="M145.98,348.97c-2.86.33-5.61,1.21-8.63.14-1.83-.65-2.23-1.58-2.32-3.13.47-10.71,2.42-21.32,2.28-32.08-.03-2.13.62-4.35,2.4-5.79,1.88-1.53,3.96-3.75,6.53-2.04,2,1.33,2.53,3.73,2.33,6.35-.96,12.18-1.74,24.37-2.59,36.56Z"/>
      <path class="cls-5" d="M198.05,352.95c-3.82,3.07-7.11,2.75-10.26-.97,2.01-9.83,1.05-19.89,2.17-29.8.37-3.28,1.38-5.17,4.78-5.77,3.61-.64,5.56.38,5.26,4.28-.83,10.74-.44,21.56-1.94,32.26Z"/>
      <path class="cls-44" d="M633.11,354.6c.2-11.2,2.07-22.06,5.76-32.71,5.68-16.4,17.63-24.69,34-27.89,18.91-3.69,37.39-.58,55.84,3.31,13.39,2.83,26.26,6.95,38.27,13.79,8.74,4.99,13.54,12.01,13.76,22.05.54,24.89-4.86,48.26-18.82,69.11-9.29,13.88-23.44,20.3-39.48,21.19-23.68,1.32-46.25-2.92-66.38-16.81-16.45-11.36-21.25-28.11-22.93-46.55-.17-1.82-.02-3.66-.02-5.49Z"/>
      <path class="cls-46" d="M486.13,267.1c24.77-3.02,48.41.92,70.64,12.21,9.92,5.04,14.78,13.49,15.61,24.91,1.76,24.42-4.5,46.54-18.15,66.5-7.78,11.38-19.82,17.15-32.79,20.38-19.23,4.78-37.19,1.21-53.56-10.05-1.97-3.41-.37-6.91.12-10.2,4.92-32.84,10.21-65.63,15.93-98.34.72-1.81.63-3.95,2.2-5.41Z"/>
      <path class="cls-38" d="M485.2,272.11c-2.4,15.04-4.82,30.08-7.21,45.12-3.38,21.27-6.74,42.54-10.11,63.81-.6-.38-1.19-.75-1.79-1.13-.33-3.72-1.21-7.19-3.97-9.96-7.42-7.46-7.73-17.07-7.52-26.59.27-12.28-.7-24.58,1.94-36.83,3.04-14.1,7.79-26.59,22.38-32.57,1.57-.64,2.76-1.78,3.76-3.18.57-.8.98-2.57,2.48-1.47.79.58.45,1.85.04,2.8Z"/>
      <path class="cls-30" d="M485.2,272.11c-.06-.5-.03-1.02-.2-1.48-.46-1.27-.88-.68-.9.14-.04,2.57-2.01,3.34-3.83,4.06-14.89,5.93-19.53,18.38-22.48,32.84-2.46,12.09-1.36,24.11-1.94,36.14-.5,10.49,1.32,20.62,9.79,28.35,2.29,2.09,2,5.06.44,7.75-11.51-8.45-16.04-20.46-16.87-34.09-1.12-18.39,1.2-36.35,6.2-54.18,4.49-16.04,15.29-22.86,30.71-24.55-.25,1.68.31,3.52-.93,5.02Z"/>
      <path class="cls-68" d="M684.97,607.86c.41,6.11-5.58,8.15-8.01,12.48-1.18,2.11-3.21,3.74-4.86,5.59-6.86.09-13.68-.04-20.07-3.03,2.61-4.64,1.45-7.83-3.54-9.85-5.3-2.15-.96-6.33-1.51-9.48-.3-1.73,1.36-4.35,3.33-5.84,2.55,2.56,5.57,4.44,8.7,6.17.23,2.58-3.79,1.79-3.4,4.69,2.19-.6,2.9-2.86,4.51-4.03.64.1,1.28.19,1.92.29,3.99.38,7.75,1.43,11.02,3.88,4.07,1.17,8.14,2.22,11.9-.86Z"/>
      <path class="cls-55" d="M673.07,608.72c-3.92-.58-7.68-1.64-11.02-3.88,4.99-7.77,10.75-14.95,16.83-21.88,1.08-1.23,2.39-2.18,3.24-3.69,1.33-2.35,1.46-2.28,5.39-1.79-.4.96-.6,1.99-1.17,2.74-2.64,3.46-4.16,6.36,1.9,7.92,2.26.58,1.55,2.31.25,3.87-4.85,5.84-9.62,11.75-15.41,16.72Z"/>
      <path class="cls-66" d="M660.13,604.55c-.15.64-.22,1.33-.47,1.93-.98,2.27-2.76,3.72-5.14,4.22-.9.19-1.69-.87-1.24-1.64,1.17-2,1.91-4.65,5.08-4.48.21.01.44-.44.66-.67.37.22.74.44,1.11.66Z"/>
      <path class="cls-31" d="M369.98,182.06c24.64,14.88,33.37,37.75,33.43,65.34.1,39.68-32.66,78.06-69.44,83.02-16.58,2.24-32.52,1.41-46.93-8.32-1.96-.05-2.83-1.27-3.24-3,.23-1.23-.22-2.18-.95-3.2-3.78-5.28-3.34-6.42,3.07-8.31,3.73,1.62,6.7,4.38,9.73,6.92,7.85,6.58,16.73,9.94,26.96,10.04,13.02.12,25.86-1.33,36.81-8.77,7.79-5.29,14.26-12.36,20.41-19.64,8.94-10.59,11.6-23.41,13.76-36.43,2.52-15.24-1.74-29.45-7.79-43.11-8.75-19.76-25.51-27.6-45.91-29.21-13.48-1.07-26,2.98-38.25,8.1-2.27.95-4.4,2.47-7.08,1.99-2.09-1.68-.48-2.89.62-4,2.79-2.82,5.84-5.34,9.51-6.98,2.49-1.12,4.46-2.65,4.8-5.61,12.02-5.94,24.8-7.23,37.92-5.97,7.98.76,15.84,2.22,22.55,7.15Z"/>
      <path class="cls-8" d="M283.86,319.31c1.06.93,2.12,1.86,3.18,2.79-.44.68-1.09.82-1.69.4-5.81-4.05-11.91-7.76-17.31-12.3-6.49-5.46-11.51-12.5-15.15-20.04-10.05-20.85-11.48-42.19-2.93-64.2,5.41-13.92,13.4-25.81,24.4-35.61,14.61-13,31.2-21.3,51.46-21.56,11.85-.15,23.05,1.72,33.83,6.29,3.75,1.59,7.14,4.07,10.68,6.16.07.04.05.33,0,.46-.06.14-.22.24-.34.36-20.28-8.18-40.55-8.21-60.82.04-1.91,4.31-6.57,4.8-9.97,6.96-20.49,13-34.73,30.52-39.06,54.78-3.5,19.61-2.46,38.82,8.73,56.32,1.98,3.1,4.39,5.86,6.53,8.82,1.97,3.68,5.26,6.17,8.11,9.06.25.38.37.81.36,1.27Z"/>
      <path class="cls-79" d="M117.75,135.65c2.8.33,5.59.77,8.41.95,1.61.1,3.79-.02,4.4-1.45.45-1.05-.52-2.85-1.6-4.07-1.09-1.23-2.09-2.58-2.91-3.99-7.23-12.36-.46-24.89,10.93-30.53,7.51-3.72,15.58-5.99,24.24-2.15,6.75,3,10.29,8.1,11.74,14.87.6,2.78,1.01,5.12,4.16,6.03,3.41.99,5.5-.77,6.99-3.32,4.52-7.72,12.44-7.89,19.86-9.03,4.86-.75,9.71-.65,14.15,2.09,4.04,2.49,6.34,5.93,5.8,10.73-.62,5.48-2.4,10.46-8.07,12.73-1.54.62-3.76-.25-3.67,2.71.09,2.82.99,4.78,3.96,5.41,5.67,1.21,11.34,2.36,16.53,5.21,7.13,3.91,10.21,10.14,9.17,19.19-.72,6.32-5.78,10.68-12.77,13.35-9.66,3.7-17.81-.23-26.27-3.52-6.26-2.44-6.45-2.26-6.09,4.24.33,6.01-3.21,9.91-7.85,12.84-7.67,4.86-17.97,6.36-22.89-4.84-1.31-2.98-3.73-3.39-6.09-.27-2.57,3.4-4.89,7.09-8.91,9.15-4.29,2.2-8.57,2.7-12.75,0-3.82-2.47-4.36-6.46-4.11-10.56.1-1.62.53-3.3,1.16-4.8.96-2.26,1.68-5.46.71-6.74-1.48-1.93-4.33,0-6.37.87-7,3.01-14.34,2.9-21.57,1.98-7.46-.95-13.64-7.63-14.79-15.01-1.24-7.93,2.77-13.44,8.89-17.62,4.64-3.17,9.89-4.7,15.62-4.45Z"/>
      <path class="cls-79" d="M434.99,103.5c4.97.49,9.5,1.97,13.96,3.71,3.67,1.44,6.9,1.32,9.78-2.07,3.82-4.49,7.53-9.04,11.42-13.98.34,4.7.86,9.4.95,14.11.11,5.54,3.16,7.9,8.19,8.68,5.04.79,10.06,1.71,16.08,2.75-5.87,3.99-11.29,7.09-17.06,9.26-4.1,1.54-5.32,4.1-5.18,7.92.22,6.13.53,12.26.84,19.3-4.73-3.9-8.04-8.01-11.06-12.4-5.69-8.25-7.13-8.62-16.15-4.09-3.68,1.85-7.32,3.78-11.67,6.03,2.47-6.84,5.15-12.78,8.65-18.32,2.28-3.61,2.61-6.88-.5-10.3-2.99-3.29-4.87-7.48-8.27-10.6Z"/>
      <path class="cls-69" d="M722,360.22c.07,1.4-.27,3.83-.77,6.3-.59,2.96-1.46,5.25-5.05,4.6-3.7-.67-3.42-3.49-3.05-6.22,1.16-8.51-.36-16.53-4.79-23.87-7.45-12.34-16.68-12.22-27.17-4.5-6.8,5-10.96,12.33-13.15,20.62-.38,1.43-.91,2.83-1.44,4.22-.81,2.13-2.52,2.46-4.47,2.02-1.96-.44-3.1-1.49-3.16-3.77-.38-15.4,19.21-36.2,34.61-36.73,9.74-.33,16.93,3.91,21.88,12.05,4.49,7.4,6.5,15.54,6.55,25.29Z"/>
      <path class="cls-69" d="M558.12,334.04c.01,3.65.22,7.32-1.06,10.86-.98,2.72-2.29,5.04-5.71,4.05-3.36-.97-2.78-3.56-2.18-6.11,2.02-8.63.73-17.17-3.09-24.76-6.54-13.01-18.65-13-29.12-4.31-6.48,5.38-9.91,12.86-11.6,21.02-.69,3.32-2,5.27-5.65,4.48-3.99-.86-3.06-3.92-2.46-6.39,2.26-9.17,6.24-17.53,13-24.28,8-7.98,17.9-11.45,28.72-8.49,10.66,2.91,15.35,11.99,18.05,22.05,1.04,3.88,1.25,7.88,1.1,11.89Z"/>
      <path class="cls-24" d="M294.12,197c8.23-2.95,16.12-6.73,24.67-8.87,18.87-4.73,36.7-2.4,52.86,8.38,8.45,5.63,13.93,14.19,17.38,23.83,3.12,8.74,5.87,17.64,6.8,26.88.46,4.54-.16,9.27-.87,13.83-.79,5.05-2.22,10.01-3.4,15-3.41,14.39-13.13,24.39-23.3,34.27-14.38,13.99-31.66,16.02-50.65,15.06-13.03-.66-20.75-9.22-30.17-15.59-.82-.55-1.59-1.17-2.39-1.75-3.22-.41-4.65-3.13-6.17-5.33-23.27-33.59-19.33-73.6,9-101.88,1.75-1.74,3.51-3.61,6.24-3.82Z"/>
      <path class="cls-26" d="M294.12,197c-9.48,7.79-17.12,17.19-22.05,28.34-8.34,18.87-9.72,38.19-1.96,57.79,3.63,9.16,8.24,17.63,14.94,24.9-4.16,2.38-4.68,4.91-.51,7.93,1.78,1.29,1.67,2.66-.68,3.35,0,0,.11-.15.11-.15-3.23-2.92-6.12-6.18-9.35-9.11-27.98-28.56-24.93-92.13,22.58-121.56,3.83-2.37,7.96-4.27,11.95-6.38,2.47,2,.59,3-1,3.83-4.7,2.44-9.13,5.22-12.91,8.99-.63.63-1.05,1.22-1.13,2.08Z"/>
      <path class="cls-31" d="M274.62,310.05c4,2.12,6.9,5.38,9.35,9.11-4.03-2.1-6.73-5.56-9.35-9.11Z"/>
      <path class="cls-28" d="M332.42,282.96c3.14-.11,5.26-2.18,7.26-4.16,7.81-7.7,15.84-15.19,22.34-24.11,1.34-1.84,2.86-3.89,5.19-4.53,2.53-.7,5-.24,6.67,2.14,2.08,2.95,1.74,6.11,0,8.9-2.9,4.64-5.81,9.36-9.37,13.48-6.06,7.01-12.53,13.66-19,20.3-4.35,4.46-11.17,5.57-15.68,2.94-1.41-5.38.17-10.24,2.6-14.95Z"/>
      <path class="cls-63" d="M276.02,241.67c.37-1.61.54-3.3,1.13-4.82,5.77-14.81,14.4-27.43,27.79-36.49,2.23-1.51,4.49-1.79,5.57.29,1.32,2.53,6.78,3.54,3.15,8.27-2.75,3.59-5.75,6.9-9.02,9.95-6.77,6.33-11.78,13.84-15.72,22.16-2.92,6.15-4.5,6.63-10.33,4.3-1.87-.75-2.74-1.68-2.58-3.66Z"/>
      <path class="cls-22" d="M286.12,286.84c-.51-2.61,1.51-3.99,2.87-5.53,7.08-8.03,14.09-16.13,23.17-22.1,1.81-1.19,3.12-1.34,4.87.03,1.79,1.4,2.97,2.72,2.86,5.3-.19,4.58-3.1,7.26-6,10.13-5.66,5.58-11.26,11.23-16.85,16.87-2.06,2.08-4.54,3.91-7.39,2.92-3.36-1.16-2.97-4.78-3.52-7.62Z"/>
      <path class="cls-71" d="M332.42,282.96c-.1,5.12-1.73,9.97-2.59,14.95-1.14,1.39-1.52,3.28-3.22,4.34-1.74,1.09-2.94,3.27-5.6,1.72-2.35-1.37-2.9-3.31-2.97-5.83-.12-4.1,1.82-7.71,2.36-11.68.77-5.66,1.26-11.25.02-16.82-.97-4.36,2.34-5.04,4.92-6.18,3.04-1.35,4.1,1.19,5.12,3.27,2.53,5.16,1.31,10.8,1.96,16.21Z"/>
    </g>
  </g>
</svg>